G04 #@! TF.FileFunction,Copper,L1,Top,Signal*
%FSLAX46Y46*%
G04 Gerber Fmt 4.6, Leading zero omitted, Abs format (unit mm)*
G04 Created by KiCad (PCBNEW 4.0.6+dfsg1-1) date Wed Nov  8 01:43:36 2017*
%MOMM*%
%LPD*%
G01*
G04 APERTURE LIST*
%ADD10C,0.100000*%
%ADD11C,0.150000*%
%ADD12R,3.200000X1.000000*%
%ADD13C,5.842000*%
%ADD14R,3.000000X2.000000*%
%ADD15R,3.000000X0.900000*%
%ADD16C,6.000000*%
%ADD17R,4.064000X1.524000*%
%ADD18C,0.889000*%
%ADD19C,1.905000*%
G04 APERTURE END LIST*
D10*
D11*
X88000000Y-147000000D02*
X88000000Y-67000000D01*
X314000000Y-67000000D02*
X314000000Y-147000000D01*
X314000000Y-147000000D02*
X88000000Y-147000000D01*
X88000000Y-67000000D02*
X314000000Y-67000000D01*
D12*
X152500000Y-122150000D03*
X152500000Y-128350000D03*
D13*
X91500000Y-143500000D03*
X310500000Y-143500000D03*
D14*
X100778000Y-93230000D03*
D15*
X100778000Y-91198000D03*
D14*
X100778000Y-108230000D03*
D15*
X100778000Y-106198000D03*
D14*
X100778000Y-123230000D03*
D15*
X100778000Y-121198000D03*
D14*
X128778000Y-93230000D03*
D15*
X128778000Y-91198000D03*
D14*
X128778000Y-108230000D03*
D15*
X128778000Y-106198000D03*
D14*
X128778000Y-123230000D03*
D15*
X128778000Y-121198000D03*
D14*
X156778000Y-93230000D03*
D15*
X156778000Y-91198000D03*
D14*
X156778000Y-108230000D03*
D15*
X156778000Y-106198000D03*
D14*
X156778000Y-123230000D03*
D15*
X156778000Y-121198000D03*
D14*
X184778000Y-93230000D03*
D15*
X184778000Y-91198000D03*
D14*
X184778000Y-108230000D03*
D15*
X184778000Y-106198000D03*
D14*
X184778000Y-123230000D03*
D15*
X184778000Y-121198000D03*
D12*
X96500000Y-122150000D03*
X96500000Y-128350000D03*
X124500000Y-122150000D03*
X124500000Y-128350000D03*
X180500000Y-122150000D03*
X180500000Y-128350000D03*
D14*
X212778000Y-93230000D03*
D15*
X212778000Y-91198000D03*
D14*
X212778000Y-108230000D03*
D15*
X212778000Y-106198000D03*
D14*
X212778000Y-123230000D03*
D15*
X212778000Y-121198000D03*
D14*
X240778000Y-93230000D03*
D15*
X240778000Y-91198000D03*
D14*
X240778000Y-108230000D03*
D15*
X240778000Y-106198000D03*
D14*
X240778000Y-123230000D03*
D15*
X240778000Y-121198000D03*
D14*
X268778000Y-93230000D03*
D15*
X268778000Y-91198000D03*
D14*
X268778000Y-108230000D03*
D15*
X268778000Y-106198000D03*
D14*
X268778000Y-123230000D03*
D15*
X268778000Y-121198000D03*
D14*
X296778000Y-93230000D03*
D15*
X296778000Y-91198000D03*
D14*
X296778000Y-108230000D03*
D15*
X296778000Y-106198000D03*
D14*
X296778000Y-123230000D03*
D15*
X296778000Y-121198000D03*
D14*
X105278000Y-93230000D03*
D15*
X105278000Y-91198000D03*
D14*
X105278000Y-108230000D03*
D15*
X105278000Y-106198000D03*
D14*
X105278000Y-123230000D03*
D15*
X105278000Y-121198000D03*
D14*
X133278000Y-93230000D03*
D15*
X133278000Y-91198000D03*
D14*
X133278000Y-108230000D03*
D15*
X133278000Y-106198000D03*
D14*
X133278000Y-123230000D03*
D15*
X133278000Y-121198000D03*
D14*
X161278000Y-93230000D03*
D15*
X161278000Y-91198000D03*
D14*
X161278000Y-108230000D03*
D15*
X161278000Y-106198000D03*
D14*
X161278000Y-123230000D03*
D15*
X161278000Y-121198000D03*
D14*
X189278000Y-93230000D03*
D15*
X189278000Y-91198000D03*
D14*
X189278000Y-108230000D03*
D15*
X189278000Y-106198000D03*
D14*
X189278000Y-123230000D03*
D15*
X189278000Y-121198000D03*
D14*
X217278000Y-93230000D03*
D15*
X217278000Y-91198000D03*
D14*
X217278000Y-108230000D03*
D15*
X217278000Y-106198000D03*
D14*
X217278000Y-123230000D03*
D15*
X217278000Y-121198000D03*
D14*
X245278000Y-93230000D03*
D15*
X245278000Y-91198000D03*
D14*
X245278000Y-108230000D03*
D15*
X245278000Y-106198000D03*
D14*
X245278000Y-123230000D03*
D15*
X245278000Y-121198000D03*
D14*
X273278000Y-93230000D03*
D15*
X273278000Y-91198000D03*
D14*
X273278000Y-108230000D03*
D15*
X273278000Y-106198000D03*
D14*
X273278000Y-123230000D03*
D15*
X273278000Y-121198000D03*
D14*
X301278000Y-93230000D03*
D15*
X301278000Y-91198000D03*
D14*
X301278000Y-108230000D03*
D15*
X301278000Y-106198000D03*
D14*
X301278000Y-123230000D03*
D15*
X301278000Y-121198000D03*
D16*
X91500000Y-70500000D03*
X310500000Y-70500000D03*
D12*
X208500000Y-122150000D03*
X208500000Y-128350000D03*
X236500000Y-122150000D03*
X236500000Y-128350000D03*
X264500000Y-122150000D03*
X264500000Y-128350000D03*
X292500000Y-122150000D03*
X292500000Y-128350000D03*
X109500000Y-122150000D03*
X109500000Y-128350000D03*
X137500000Y-122150000D03*
X137500000Y-128350000D03*
X165500000Y-122150000D03*
X165500000Y-128350000D03*
X193500000Y-122150000D03*
X193500000Y-128350000D03*
X221500000Y-122150000D03*
X221500000Y-128350000D03*
X249500000Y-122150000D03*
X249500000Y-128350000D03*
X277500000Y-122150000D03*
X277500000Y-128350000D03*
X305500000Y-122150000D03*
X305500000Y-128350000D03*
D17*
X90968000Y-109500000D03*
X95032000Y-106960000D03*
X90968000Y-104420000D03*
X311032000Y-104500000D03*
X306968000Y-107040000D03*
X311032000Y-109580000D03*
D18*
X100778000Y-106198000D02*
X100778000Y-93230000D01*
X100778000Y-121198000D02*
X100778000Y-108230000D01*
X100778000Y-123230000D02*
X97580000Y-123230000D01*
X97580000Y-123230000D02*
X96500000Y-122150000D01*
X128778000Y-106198000D02*
X128778000Y-93230000D01*
X128778000Y-121198000D02*
X128778000Y-108230000D01*
X156778000Y-106198000D02*
X156778000Y-93230000D01*
X156778000Y-121198000D02*
X156778000Y-108230000D01*
X184778000Y-123230000D02*
X181580000Y-123230000D01*
X181580000Y-123230000D02*
X180500000Y-122150000D01*
X184778000Y-106198000D02*
X184778000Y-93230000D01*
X184778000Y-121198000D02*
X184778000Y-108230000D01*
X105500000Y-88500000D02*
X105500000Y-90976000D01*
X105500000Y-90976000D02*
X105278000Y-91198000D01*
X101000000Y-88500000D02*
X101000000Y-90976000D01*
X101000000Y-90976000D02*
X100778000Y-91198000D01*
X128500000Y-88500000D02*
X128500000Y-90920000D01*
X128500000Y-90920000D02*
X128778000Y-91198000D01*
X133500000Y-88500000D02*
X133500000Y-90976000D01*
X133500000Y-90976000D02*
X133278000Y-91198000D01*
X157000000Y-88500000D02*
X157000000Y-90976000D01*
X157000000Y-90976000D02*
X156778000Y-91198000D01*
X161500000Y-88500000D02*
X161500000Y-90976000D01*
X161500000Y-90976000D02*
X161278000Y-91198000D01*
X189500000Y-88500000D02*
X189500000Y-90976000D01*
X189500000Y-90976000D02*
X189278000Y-91198000D01*
X185000000Y-88500000D02*
X185000000Y-90976000D01*
X185000000Y-90976000D02*
X184778000Y-91198000D01*
X213000000Y-88500000D02*
X213000000Y-90976000D01*
X213000000Y-90976000D02*
X212778000Y-91198000D01*
X217500000Y-88500000D02*
X217500000Y-90976000D01*
X217500000Y-90976000D02*
X217278000Y-91198000D01*
X241000000Y-88500000D02*
X241000000Y-90976000D01*
X241000000Y-90976000D02*
X240778000Y-91198000D01*
X245000000Y-88500000D02*
X245000000Y-90920000D01*
X245000000Y-90920000D02*
X245278000Y-91198000D01*
X269000000Y-88500000D02*
X269000000Y-90976000D01*
X269000000Y-90976000D02*
X268778000Y-91198000D01*
X273500000Y-88500000D02*
X273500000Y-90976000D01*
X273500000Y-90976000D02*
X273278000Y-91198000D01*
X297000000Y-88500000D02*
X297000000Y-90976000D01*
X297000000Y-90976000D02*
X296778000Y-91198000D01*
X301278000Y-91198000D02*
X301278000Y-88500000D01*
X301278000Y-88500000D02*
X301000000Y-88500000D01*
D19*
X90968000Y-104420000D02*
X90968000Y-96032000D01*
X311032000Y-93032000D02*
X311032000Y-104500000D01*
X306500000Y-88500000D02*
X311032000Y-93032000D01*
X98500000Y-88500000D02*
X101000000Y-88500000D01*
X101000000Y-88500000D02*
X105500000Y-88500000D01*
X105500000Y-88500000D02*
X128500000Y-88500000D01*
X128500000Y-88500000D02*
X133500000Y-88500000D01*
X133500000Y-88500000D02*
X157000000Y-88500000D01*
X157000000Y-88500000D02*
X161500000Y-88500000D01*
X161500000Y-88500000D02*
X185000000Y-88500000D01*
X185000000Y-88500000D02*
X189500000Y-88500000D01*
X189500000Y-88500000D02*
X213000000Y-88500000D01*
X213000000Y-88500000D02*
X217500000Y-88500000D01*
X217500000Y-88500000D02*
X241000000Y-88500000D01*
X241000000Y-88500000D02*
X245000000Y-88500000D01*
X245000000Y-88500000D02*
X269000000Y-88500000D01*
X269000000Y-88500000D02*
X273500000Y-88500000D01*
X273500000Y-88500000D02*
X297000000Y-88500000D01*
X297000000Y-88500000D02*
X301000000Y-88500000D01*
X301000000Y-88500000D02*
X306500000Y-88500000D01*
X90968000Y-96032000D02*
X98500000Y-88500000D01*
D18*
X128778000Y-123230000D02*
X125580000Y-123230000D01*
X125580000Y-123230000D02*
X124500000Y-122150000D01*
X156778000Y-123230000D02*
X153580000Y-123230000D01*
X153580000Y-123230000D02*
X152500000Y-122150000D01*
X212778000Y-106198000D02*
X212778000Y-93230000D01*
X212778000Y-121198000D02*
X212778000Y-108230000D01*
X212778000Y-123230000D02*
X209580000Y-123230000D01*
X209580000Y-123230000D02*
X208500000Y-122150000D01*
X240778000Y-93230000D02*
X240778000Y-106198000D01*
X240778000Y-108230000D02*
X240778000Y-121198000D01*
X240778000Y-123230000D02*
X237580000Y-123230000D01*
X237580000Y-123230000D02*
X236500000Y-122150000D01*
X268778000Y-93230000D02*
X268778000Y-106198000D01*
X268778000Y-108230000D02*
X268778000Y-121198000D01*
X268778000Y-123230000D02*
X265580000Y-123230000D01*
X265580000Y-123230000D02*
X264500000Y-122150000D01*
X296778000Y-106198000D02*
X296778000Y-93230000D01*
X296778000Y-121198000D02*
X296778000Y-108230000D01*
X296778000Y-123230000D02*
X293580000Y-123230000D01*
X293580000Y-123230000D02*
X292500000Y-122150000D01*
X105278000Y-106198000D02*
X105278000Y-93230000D01*
X105278000Y-121198000D02*
X105278000Y-108230000D01*
X105278000Y-123230000D02*
X108420000Y-123230000D01*
X108420000Y-123230000D02*
X109500000Y-122150000D01*
X133278000Y-106198000D02*
X133278000Y-93230000D01*
X133278000Y-121198000D02*
X133278000Y-108230000D01*
X133278000Y-123230000D02*
X136420000Y-123230000D01*
X136420000Y-123230000D02*
X137500000Y-122150000D01*
X161278000Y-106198000D02*
X161278000Y-93230000D01*
X161278000Y-121198000D02*
X161278000Y-108230000D01*
X161278000Y-123230000D02*
X164420000Y-123230000D01*
X164420000Y-123230000D02*
X165500000Y-122150000D01*
X189278000Y-106198000D02*
X189278000Y-93230000D01*
X189278000Y-121198000D02*
X189278000Y-108230000D01*
X189278000Y-123230000D02*
X192420000Y-123230000D01*
X192420000Y-123230000D02*
X193500000Y-122150000D01*
X217278000Y-106198000D02*
X217278000Y-93230000D01*
X217278000Y-121198000D02*
X217278000Y-108230000D01*
X217278000Y-123230000D02*
X220420000Y-123230000D01*
X220420000Y-123230000D02*
X221500000Y-122150000D01*
X245278000Y-106198000D02*
X245278000Y-93230000D01*
X245278000Y-121198000D02*
X245278000Y-108230000D01*
X245278000Y-123230000D02*
X248420000Y-123230000D01*
X248420000Y-123230000D02*
X249500000Y-122150000D01*
X273278000Y-93230000D02*
X273278000Y-106198000D01*
X273278000Y-121198000D02*
X273278000Y-108230000D01*
X273278000Y-123230000D02*
X276420000Y-123230000D01*
X276420000Y-123230000D02*
X277500000Y-122150000D01*
X301278000Y-93230000D02*
X301278000Y-106198000D01*
X301278000Y-108230000D02*
X301278000Y-121198000D01*
X301278000Y-123230000D02*
X304420000Y-123230000D01*
X304420000Y-123230000D02*
X305500000Y-122150000D01*
D19*
X93500000Y-132500000D02*
X92250000Y-132500000D01*
X96250000Y-132500000D02*
X93500000Y-132500000D01*
X90500000Y-130750000D02*
X90500000Y-109968000D01*
X92250000Y-132500000D02*
X90500000Y-130750000D01*
X90500000Y-109968000D02*
X90968000Y-109500000D01*
X306500000Y-132500000D02*
X307250000Y-132500000D01*
X292500000Y-132500000D02*
X306500000Y-132500000D01*
X311750000Y-128000000D02*
X311750000Y-110298000D01*
X307250000Y-132500000D02*
X311750000Y-128000000D01*
X311750000Y-110298000D02*
X311032000Y-109580000D01*
D18*
X96250000Y-132500000D02*
X96250000Y-128600000D01*
X96250000Y-128600000D02*
X96500000Y-128350000D01*
D19*
X98000000Y-132500000D02*
X96250000Y-132500000D01*
X124500000Y-132500000D02*
X98000000Y-132500000D01*
D18*
X124500000Y-132500000D02*
X124500000Y-128350000D01*
X152500000Y-132500000D02*
X152500000Y-128350000D01*
X180500000Y-132500000D02*
X180500000Y-128350000D01*
X208500000Y-132500000D02*
X208500000Y-128350000D01*
X236500000Y-132500000D02*
X236500000Y-128350000D01*
X264500000Y-132500000D02*
X264500000Y-128350000D01*
X292500000Y-128350000D02*
X292500000Y-132500000D01*
X292500000Y-132500000D02*
X292500000Y-133000000D01*
X292500000Y-133000000D02*
X292500000Y-132500000D01*
D19*
X124500000Y-132500000D02*
X152500000Y-132500000D01*
X152500000Y-132500000D02*
X180500000Y-132500000D01*
X180500000Y-132500000D02*
X208500000Y-132500000D01*
X208500000Y-132500000D02*
X236500000Y-132500000D01*
X236500000Y-132500000D02*
X264500000Y-132500000D01*
X264500000Y-132500000D02*
X292500000Y-132500000D01*
D18*
X305750000Y-126000000D02*
X305750000Y-128100000D01*
X305750000Y-128100000D02*
X305500000Y-128350000D01*
D19*
X305000000Y-126000000D02*
X305750000Y-126000000D01*
X305750000Y-126000000D02*
X307500000Y-126000000D01*
X277500000Y-126000000D02*
X305000000Y-126000000D01*
X306968000Y-112468000D02*
X306968000Y-107040000D01*
X309250000Y-114750000D02*
X306968000Y-112468000D01*
X309250000Y-124250000D02*
X309250000Y-114750000D01*
X307500000Y-126000000D02*
X309250000Y-124250000D01*
X97000000Y-126000000D02*
X94750000Y-126000000D01*
X109500000Y-126000000D02*
X97000000Y-126000000D01*
X95032000Y-116218000D02*
X95032000Y-106960000D01*
X93250000Y-118000000D02*
X95032000Y-116218000D01*
X93250000Y-124500000D02*
X93250000Y-118000000D01*
X94750000Y-126000000D02*
X93250000Y-124500000D01*
D18*
X109500000Y-126000000D02*
X109500000Y-128350000D01*
X137500000Y-126000000D02*
X137500000Y-128350000D01*
X165500000Y-126000000D02*
X165500000Y-128350000D01*
X193500000Y-126000000D02*
X193500000Y-128350000D01*
X221500000Y-126000000D02*
X221500000Y-128350000D01*
X249500000Y-126000000D02*
X249500000Y-128350000D01*
X277500000Y-126000000D02*
X277500000Y-128350000D01*
D19*
X277500000Y-126000000D02*
X249500000Y-126000000D01*
X249500000Y-126000000D02*
X221500000Y-126000000D01*
X221500000Y-126000000D02*
X193500000Y-126000000D01*
X193500000Y-126000000D02*
X165500000Y-126000000D01*
X165500000Y-126000000D02*
X137500000Y-126000000D01*
X137500000Y-126000000D02*
X109500000Y-126000000D01*
M02*
