G04 #@! TF.FileFunction,Soldermask,Top*
%FSLAX46Y46*%
G04 Gerber Fmt 4.6, Leading zero omitted, Abs format (unit mm)*
G04 Created by KiCad (PCBNEW 4.0.6+dfsg1-1) date Wed Nov  8 01:43:36 2017*
%MOMM*%
%LPD*%
G01*
G04 APERTURE LIST*
%ADD10C,0.100000*%
%ADD11C,0.150000*%
%ADD12R,3.403200X1.203200*%
%ADD13C,6.045200*%
%ADD14R,3.203200X2.203200*%
%ADD15R,3.203200X1.103200*%
%ADD16C,6.203200*%
%ADD17R,4.267200X1.727200*%
G04 APERTURE END LIST*
D10*
D11*
X88000000Y-147000000D02*
X88000000Y-67000000D01*
X314000000Y-67000000D02*
X314000000Y-147000000D01*
X314000000Y-147000000D02*
X88000000Y-147000000D01*
X88000000Y-67000000D02*
X314000000Y-67000000D01*
D12*
X152500000Y-122150000D03*
X152500000Y-128350000D03*
D13*
X91500000Y-143500000D03*
X310500000Y-143500000D03*
D14*
X100778000Y-93230000D03*
D15*
X100778000Y-91198000D03*
D14*
X100778000Y-108230000D03*
D15*
X100778000Y-106198000D03*
D14*
X100778000Y-123230000D03*
D15*
X100778000Y-121198000D03*
D14*
X128778000Y-93230000D03*
D15*
X128778000Y-91198000D03*
D14*
X128778000Y-108230000D03*
D15*
X128778000Y-106198000D03*
D14*
X128778000Y-123230000D03*
D15*
X128778000Y-121198000D03*
D14*
X156778000Y-93230000D03*
D15*
X156778000Y-91198000D03*
D14*
X156778000Y-108230000D03*
D15*
X156778000Y-106198000D03*
D14*
X156778000Y-123230000D03*
D15*
X156778000Y-121198000D03*
D14*
X184778000Y-93230000D03*
D15*
X184778000Y-91198000D03*
D14*
X184778000Y-108230000D03*
D15*
X184778000Y-106198000D03*
D14*
X184778000Y-123230000D03*
D15*
X184778000Y-121198000D03*
D12*
X96500000Y-122150000D03*
X96500000Y-128350000D03*
X124500000Y-122150000D03*
X124500000Y-128350000D03*
X180500000Y-122150000D03*
X180500000Y-128350000D03*
D14*
X212778000Y-93230000D03*
D15*
X212778000Y-91198000D03*
D14*
X212778000Y-108230000D03*
D15*
X212778000Y-106198000D03*
D14*
X212778000Y-123230000D03*
D15*
X212778000Y-121198000D03*
D14*
X240778000Y-93230000D03*
D15*
X240778000Y-91198000D03*
D14*
X240778000Y-108230000D03*
D15*
X240778000Y-106198000D03*
D14*
X240778000Y-123230000D03*
D15*
X240778000Y-121198000D03*
D14*
X268778000Y-93230000D03*
D15*
X268778000Y-91198000D03*
D14*
X268778000Y-108230000D03*
D15*
X268778000Y-106198000D03*
D14*
X268778000Y-123230000D03*
D15*
X268778000Y-121198000D03*
D14*
X296778000Y-93230000D03*
D15*
X296778000Y-91198000D03*
D14*
X296778000Y-108230000D03*
D15*
X296778000Y-106198000D03*
D14*
X296778000Y-123230000D03*
D15*
X296778000Y-121198000D03*
D14*
X105278000Y-93230000D03*
D15*
X105278000Y-91198000D03*
D14*
X105278000Y-108230000D03*
D15*
X105278000Y-106198000D03*
D14*
X105278000Y-123230000D03*
D15*
X105278000Y-121198000D03*
D14*
X133278000Y-93230000D03*
D15*
X133278000Y-91198000D03*
D14*
X133278000Y-108230000D03*
D15*
X133278000Y-106198000D03*
D14*
X133278000Y-123230000D03*
D15*
X133278000Y-121198000D03*
D14*
X161278000Y-93230000D03*
D15*
X161278000Y-91198000D03*
D14*
X161278000Y-108230000D03*
D15*
X161278000Y-106198000D03*
D14*
X161278000Y-123230000D03*
D15*
X161278000Y-121198000D03*
D14*
X189278000Y-93230000D03*
D15*
X189278000Y-91198000D03*
D14*
X189278000Y-108230000D03*
D15*
X189278000Y-106198000D03*
D14*
X189278000Y-123230000D03*
D15*
X189278000Y-121198000D03*
D14*
X217278000Y-93230000D03*
D15*
X217278000Y-91198000D03*
D14*
X217278000Y-108230000D03*
D15*
X217278000Y-106198000D03*
D14*
X217278000Y-123230000D03*
D15*
X217278000Y-121198000D03*
D14*
X245278000Y-93230000D03*
D15*
X245278000Y-91198000D03*
D14*
X245278000Y-108230000D03*
D15*
X245278000Y-106198000D03*
D14*
X245278000Y-123230000D03*
D15*
X245278000Y-121198000D03*
D14*
X273278000Y-93230000D03*
D15*
X273278000Y-91198000D03*
D14*
X273278000Y-108230000D03*
D15*
X273278000Y-106198000D03*
D14*
X273278000Y-123230000D03*
D15*
X273278000Y-121198000D03*
D14*
X301278000Y-93230000D03*
D15*
X301278000Y-91198000D03*
D14*
X301278000Y-108230000D03*
D15*
X301278000Y-106198000D03*
D14*
X301278000Y-123230000D03*
D15*
X301278000Y-121198000D03*
D16*
X91500000Y-70500000D03*
X310500000Y-70500000D03*
D12*
X208500000Y-122150000D03*
X208500000Y-128350000D03*
X236500000Y-122150000D03*
X236500000Y-128350000D03*
X264500000Y-122150000D03*
X264500000Y-128350000D03*
X292500000Y-122150000D03*
X292500000Y-128350000D03*
X109500000Y-122150000D03*
X109500000Y-128350000D03*
X137500000Y-122150000D03*
X137500000Y-128350000D03*
X165500000Y-122150000D03*
X165500000Y-128350000D03*
X193500000Y-122150000D03*
X193500000Y-128350000D03*
X221500000Y-122150000D03*
X221500000Y-128350000D03*
X249500000Y-122150000D03*
X249500000Y-128350000D03*
X277500000Y-122150000D03*
X277500000Y-128350000D03*
X305500000Y-122150000D03*
X305500000Y-128350000D03*
D17*
X90968000Y-109500000D03*
X95032000Y-106960000D03*
X90968000Y-104420000D03*
X311032000Y-104500000D03*
X306968000Y-107040000D03*
X311032000Y-109580000D03*
M02*
