  0
SECTION
  2
HEADER
  9
$ANGBASE
  50
0.0
  9
$ANGDIR
  70
  1
  9
$MEASUREMENT
  70
0
  0
ENDSEC
  0
SECTION
  2
TABLES
  0
TABLE
  2
LTYPE
  70
1
  0
LTYPE
  2
CONTINUOUS
  70
0
  3
Solid line
  72
65
  73
0
  40
0.0
  0
ENDTAB
  0
TABLE
  2
STYLE
  70
4
  0
STYLE
  2
KICAD
  70
0
  40
0
  41
1
  42
1
  50
0
  71
0
  3
isocp.shx
  0
STYLE
  2
KICADB
  70
0
  40
0
  41
1
  42
1
  50
0
  71
0
  3
isocp.shx
  0
STYLE
  2
KICADI
  70
0
  40
0
  41
1
  42
1
  50
15
  71
0
  3
isocp.shx
  0
STYLE
  2
KICADBI
  70
0
  40
0
  41
1
  42
1
  50
15
  71
0
  3
isocp.shx
  0
ENDTAB
  0
TABLE
  2
LAYER
  70
30
  0
LAYER
  2
BLACK
  70
0
  62
7
  6
CONTINUOUS
  0
LAYER
  2
GRAY1
  70
0
  62
251
  6
CONTINUOUS
  0
LAYER
  2
GRAY2
  70
0
  62
8
  6
CONTINUOUS
  0
LAYER
  2
GRAY3
  70
0
  62
9
  6
CONTINUOUS
  0
LAYER
  2
WHITE
  70
0
  62
7
  6
CONTINUOUS
  0
LAYER
  2
LYELLOW
  70
0
  62
51
  6
CONTINUOUS
  0
LAYER
  2
BLUE1
  70
0
  62
178
  6
CONTINUOUS
  0
LAYER
  2
GREEN1
  70
0
  62
98
  6
CONTINUOUS
  0
LAYER
  2
CYAN1
  70
0
  62
138
  6
CONTINUOUS
  0
LAYER
  2
RED1
  70
0
  62
18
  6
CONTINUOUS
  0
LAYER
  2
MAGENTA1
  70
0
  62
228
  6
CONTINUOUS
  0
LAYER
  2
BROWN1
  70
0
  62
58
  6
CONTINUOUS
  0
LAYER
  2
BLUE2
  70
0
  62
5
  6
CONTINUOUS
  0
LAYER
  2
GREEN2
  70
0
  62
3
  6
CONTINUOUS
  0
LAYER
  2
CYAN2
  70
0
  62
4
  6
CONTINUOUS
  0
LAYER
  2
RED2
  70
0
  62
1
  6
CONTINUOUS
  0
LAYER
  2
MAGENTA2
  70
0
  62
6
  6
CONTINUOUS
  0
LAYER
  2
BROWN2
  70
0
  62
54
  6
CONTINUOUS
  0
LAYER
  2
BLUE3
  70
0
  62
171
  6
CONTINUOUS
  0
LAYER
  2
GREEN3
  70
0
  62
91
  6
CONTINUOUS
  0
LAYER
  2
CYAN3
  70
0
  62
131
  6
CONTINUOUS
  0
LAYER
  2
RED3
  70
0
  62
11
  6
CONTINUOUS
  0
LAYER
  2
MAGENTA3
  70
0
  62
221
  6
CONTINUOUS
  0
LAYER
  2
YELLOW3
  70
0
  62
2
  6
CONTINUOUS
  0
LAYER
  2
BLUE4
  70
0
  62
5
  6
CONTINUOUS
  0
LAYER
  2
GREEN4
  70
0
  62
3
  6
CONTINUOUS
  0
LAYER
  2
CYAN4
  70
0
  62
4
  6
CONTINUOUS
  0
LAYER
  2
RED4
  70
0
  62
1
  6
CONTINUOUS
  0
LAYER
  2
MAGENTA4
  70
0
  62
6
  6
CONTINUOUS
  0
LAYER
  2
YELLOW4
  70
0
  62
2
  6
CONTINUOUS
  0
ENDTAB
  0
ENDSEC
  0
SECTION
  2
ENTITIES
0
LINE
8
Black
10
166.973
20
-128.723
11
164.027
21
-128.723
0
LINE
8
Black
10
164.027
20
-128.723
11
164.027
21
-127.977
0
LINE
8
Black
10
164.027
20
-127.977
11
166.973
21
-127.977
0
LINE
8
Black
10
166.973
20
-127.977
11
166.973
21
-128.723
0
LINE
8
Black
10
97.973
20
-128.723
11
95.027
21
-128.723
0
LINE
8
Black
10
95.027
20
-128.723
11
95.027
21
-127.977
0
LINE
8
Black
10
95.027
20
-127.977
11
97.973
21
-127.977
0
LINE
8
Black
10
97.973
20
-127.977
11
97.973
21
-128.723
0
LINE
8
Black
10
125.973
20
-128.723
11
123.027
21
-128.723
0
LINE
8
Black
10
123.027
20
-128.723
11
123.027
21
-127.977
0
LINE
8
Black
10
123.027
20
-127.977
11
125.973
21
-127.977
0
LINE
8
Black
10
125.973
20
-127.977
11
125.973
21
-128.723
0
LINE
8
Black
10
181.973
20
-128.723
11
179.027
21
-128.723
0
LINE
8
Black
10
179.027
20
-128.723
11
179.027
21
-127.977
0
LINE
8
Black
10
179.027
20
-127.977
11
181.973
21
-127.977
0
LINE
8
Black
10
181.973
20
-127.977
11
181.973
21
-128.723
0
LINE
8
Black
10
237.973
20
-128.723
11
235.027
21
-128.723
0
LINE
8
Black
10
235.027
20
-128.723
11
235.027
21
-127.977
0
LINE
8
Black
10
235.027
20
-127.977
11
237.973
21
-127.977
0
LINE
8
Black
10
237.973
20
-127.977
11
237.973
21
-128.723
0
LINE
8
Black
10
265.973
20
-128.723
11
263.027
21
-128.723
0
LINE
8
Black
10
263.027
20
-128.723
11
263.027
21
-127.977
0
LINE
8
Black
10
263.027
20
-127.977
11
265.973
21
-127.977
0
LINE
8
Black
10
265.973
20
-127.977
11
265.973
21
-128.723
0
LINE
8
Black
10
209.973
20
-128.723
11
207.027
21
-128.723
0
LINE
8
Black
10
207.027
20
-128.723
11
207.027
21
-127.977
0
LINE
8
Black
10
207.027
20
-127.977
11
209.973
21
-127.977
0
LINE
8
Black
10
209.973
20
-127.977
11
209.973
21
-128.723
0
LINE
8
Black
10
293.973
20
-128.723
11
291.027
21
-128.723
0
LINE
8
Black
10
291.027
20
-128.723
11
291.027
21
-127.977
0
LINE
8
Black
10
291.027
20
-127.977
11
293.973
21
-127.977
0
LINE
8
Black
10
293.973
20
-127.977
11
293.973
21
-128.723
0
LINE
8
Black
10
110.973
20
-128.723
11
108.027
21
-128.723
0
LINE
8
Black
10
108.027
20
-128.723
11
108.027
21
-127.977
0
LINE
8
Black
10
108.027
20
-127.977
11
110.973
21
-127.977
0
LINE
8
Black
10
110.973
20
-127.977
11
110.973
21
-128.723
0
LINE
8
Black
10
138.973
20
-128.723
11
136.027
21
-128.723
0
LINE
8
Black
10
136.027
20
-128.723
11
136.027
21
-127.977
0
LINE
8
Black
10
136.027
20
-127.977
11
138.973
21
-127.977
0
LINE
8
Black
10
138.973
20
-127.977
11
138.973
21
-128.723
0
LINE
8
Black
10
194.973
20
-128.723
11
192.027
21
-128.723
0
LINE
8
Black
10
192.027
20
-128.723
11
192.027
21
-127.977
0
LINE
8
Black
10
192.027
20
-127.977
11
194.973
21
-127.977
0
LINE
8
Black
10
194.973
20
-127.977
11
194.973
21
-128.723
0
LINE
8
Black
10
153.973
20
-128.723
11
151.027
21
-128.723
0
LINE
8
Black
10
151.027
20
-128.723
11
151.027
21
-127.977
0
LINE
8
Black
10
151.027
20
-127.977
11
153.973
21
-127.977
0
LINE
8
Black
10
153.973
20
-127.977
11
153.973
21
-128.723
0
LINE
8
Black
10
306.973
20
-128.723
11
304.027
21
-128.723
0
LINE
8
Black
10
304.027
20
-128.723
11
304.027
21
-127.977
0
LINE
8
Black
10
304.027
20
-127.977
11
306.973
21
-127.977
0
LINE
8
Black
10
306.973
20
-127.977
11
306.973
21
-128.723
0
LINE
8
Black
10
278.973
20
-128.723
11
276.027
21
-128.723
0
LINE
8
Black
10
276.027
20
-128.723
11
276.027
21
-127.977
0
LINE
8
Black
10
276.027
20
-127.977
11
278.973
21
-127.977
0
LINE
8
Black
10
278.973
20
-127.977
11
278.973
21
-128.723
0
LINE
8
Black
10
222.973
20
-128.723
11
220.027
21
-128.723
0
LINE
8
Black
10
220.027
20
-128.723
11
220.027
21
-127.977
0
LINE
8
Black
10
220.027
20
-127.977
11
222.973
21
-127.977
0
LINE
8
Black
10
222.973
20
-127.977
11
222.973
21
-128.723
0
LINE
8
Black
10
250.973
20
-128.723
11
248.027
21
-128.723
0
LINE
8
Black
10
248.027
20
-128.723
11
248.027
21
-127.977
0
LINE
8
Black
10
248.027
20
-127.977
11
250.973
21
-127.977
0
LINE
8
Black
10
250.973
20
-127.977
11
250.973
21
-128.723
0
LINE
8
Black
10
270.151
20
-124.103
11
267.405
21
-124.103
0
LINE
8
Black
10
267.405
20
-124.103
11
267.405
21
-122.357
0
LINE
8
Black
10
267.405
20
-122.357
11
270.151
21
-122.357
0
LINE
8
Black
10
270.151
20
-122.357
11
270.151
21
-124.103
0
LINE
8
Black
10
298.151
20
-124.103
11
295.405
21
-124.103
0
LINE
8
Black
10
295.405
20
-124.103
11
295.405
21
-122.357
0
LINE
8
Black
10
295.405
20
-122.357
11
298.151
21
-122.357
0
LINE
8
Black
10
298.151
20
-122.357
11
298.151
21
-124.103
0
LINE
8
Black
10
134.651
20
-124.103
11
131.905
21
-124.103
0
LINE
8
Black
10
131.905
20
-124.103
11
131.905
21
-122.357
0
LINE
8
Black
10
131.905
20
-122.357
11
134.651
21
-122.357
0
LINE
8
Black
10
134.651
20
-122.357
11
134.651
21
-124.103
0
LINE
8
Black
10
162.651
20
-124.103
11
159.905
21
-124.103
0
LINE
8
Black
10
159.905
20
-124.103
11
159.905
21
-122.357
0
LINE
8
Black
10
159.905
20
-122.357
11
162.651
21
-122.357
0
LINE
8
Black
10
162.651
20
-122.357
11
162.651
21
-124.103
0
LINE
8
Black
10
214.151
20
-124.103
11
211.405
21
-124.103
0
LINE
8
Black
10
211.405
20
-124.103
11
211.405
21
-122.357
0
LINE
8
Black
10
211.405
20
-122.357
11
214.151
21
-122.357
0
LINE
8
Black
10
214.151
20
-122.357
11
214.151
21
-124.103
0
LINE
8
Black
10
190.651
20
-124.103
11
187.905
21
-124.103
0
LINE
8
Black
10
187.905
20
-124.103
11
187.905
21
-122.357
0
LINE
8
Black
10
187.905
20
-122.357
11
190.651
21
-122.357
0
LINE
8
Black
10
190.651
20
-122.357
11
190.651
21
-124.103
0
LINE
8
Black
10
302.651
20
-124.103
11
299.905
21
-124.103
0
LINE
8
Black
10
299.905
20
-124.103
11
299.905
21
-122.357
0
LINE
8
Black
10
299.905
20
-122.357
11
302.651
21
-122.357
0
LINE
8
Black
10
302.651
20
-122.357
11
302.651
21
-124.103
0
LINE
8
Black
10
274.651
20
-124.103
11
271.905
21
-124.103
0
LINE
8
Black
10
271.905
20
-124.103
11
271.905
21
-122.357
0
LINE
8
Black
10
271.905
20
-122.357
11
274.651
21
-122.357
0
LINE
8
Black
10
274.651
20
-122.357
11
274.651
21
-124.103
0
LINE
8
Black
10
242.151
20
-124.103
11
239.405
21
-124.103
0
LINE
8
Black
10
239.405
20
-124.103
11
239.405
21
-122.357
0
LINE
8
Black
10
239.405
20
-122.357
11
242.151
21
-122.357
0
LINE
8
Black
10
242.151
20
-122.357
11
242.151
21
-124.103
0
LINE
8
Black
10
106.651
20
-124.103
11
103.905
21
-124.103
0
LINE
8
Black
10
103.905
20
-124.103
11
103.905
21
-122.357
0
LINE
8
Black
10
103.905
20
-122.357
11
106.651
21
-122.357
0
LINE
8
Black
10
106.651
20
-122.357
11
106.651
21
-124.103
0
LINE
8
Black
10
246.651
20
-124.103
11
243.905
21
-124.103
0
LINE
8
Black
10
243.905
20
-124.103
11
243.905
21
-122.357
0
LINE
8
Black
10
243.905
20
-122.357
11
246.651
21
-122.357
0
LINE
8
Black
10
246.651
20
-122.357
11
246.651
21
-124.103
0
LINE
8
Black
10
218.651
20
-124.103
11
215.905
21
-124.103
0
LINE
8
Black
10
215.905
20
-124.103
11
215.905
21
-122.357
0
LINE
8
Black
10
215.905
20
-122.357
11
218.651
21
-122.357
0
LINE
8
Black
10
218.651
20
-122.357
11
218.651
21
-124.103
0
LINE
8
Black
10
186.151
20
-124.103
11
183.405
21
-124.103
0
LINE
8
Black
10
183.405
20
-124.103
11
183.405
21
-122.357
0
LINE
8
Black
10
183.405
20
-122.357
11
186.151
21
-122.357
0
LINE
8
Black
10
186.151
20
-122.357
11
186.151
21
-124.103
0
LINE
8
Black
10
102.151
20
-124.103
11
99.405
21
-124.103
0
LINE
8
Black
10
99.405
20
-124.103
11
99.405
21
-122.357
0
LINE
8
Black
10
99.405
20
-122.357
11
102.151
21
-122.357
0
LINE
8
Black
10
102.151
20
-122.357
11
102.151
21
-124.103
0
LINE
8
Black
10
130.151
20
-124.103
11
127.405
21
-124.103
0
LINE
8
Black
10
127.405
20
-124.103
11
127.405
21
-122.357
0
LINE
8
Black
10
127.405
20
-122.357
11
130.151
21
-122.357
0
LINE
8
Black
10
130.151
20
-122.357
11
130.151
21
-124.103
0
LINE
8
Black
10
158.151
20
-124.103
11
155.405
21
-124.103
0
LINE
8
Black
10
155.405
20
-124.103
11
155.405
21
-122.357
0
LINE
8
Black
10
155.405
20
-122.357
11
158.151
21
-122.357
0
LINE
8
Black
10
158.151
20
-122.357
11
158.151
21
-124.103
0
LINE
8
Black
10
97.973
20
-122.523
11
95.027
21
-122.523
0
LINE
8
Black
10
95.027
20
-122.523
11
95.027
21
-121.777
0
LINE
8
Black
10
95.027
20
-121.777
11
97.973
21
-121.777
0
LINE
8
Black
10
97.973
20
-121.777
11
97.973
21
-122.523
0
LINE
8
Black
10
306.973
20
-122.523
11
304.027
21
-122.523
0
LINE
8
Black
10
304.027
20
-122.523
11
304.027
21
-121.777
0
LINE
8
Black
10
304.027
20
-121.777
11
306.973
21
-121.777
0
LINE
8
Black
10
306.973
20
-121.777
11
306.973
21
-122.523
0
LINE
8
Black
10
278.973
20
-122.523
11
276.027
21
-122.523
0
LINE
8
Black
10
276.027
20
-122.523
11
276.027
21
-121.777
0
LINE
8
Black
10
276.027
20
-121.777
11
278.973
21
-121.777
0
LINE
8
Black
10
278.973
20
-121.777
11
278.973
21
-122.523
0
LINE
8
Black
10
153.973
20
-122.523
11
151.027
21
-122.523
0
LINE
8
Black
10
151.027
20
-122.523
11
151.027
21
-121.777
0
LINE
8
Black
10
151.027
20
-121.777
11
153.973
21
-121.777
0
LINE
8
Black
10
153.973
20
-121.777
11
153.973
21
-122.523
0
LINE
8
Black
10
250.973
20
-122.523
11
248.027
21
-122.523
0
LINE
8
Black
10
248.027
20
-122.523
11
248.027
21
-121.777
0
LINE
8
Black
10
248.027
20
-121.777
11
250.973
21
-121.777
0
LINE
8
Black
10
250.973
20
-121.777
11
250.973
21
-122.523
0
LINE
8
Black
10
222.973
20
-122.523
11
220.027
21
-122.523
0
LINE
8
Black
10
220.027
20
-122.523
11
220.027
21
-121.777
0
LINE
8
Black
10
220.027
20
-121.777
11
222.973
21
-121.777
0
LINE
8
Black
10
222.973
20
-121.777
11
222.973
21
-122.523
0
LINE
8
Black
10
194.973
20
-122.523
11
192.027
21
-122.523
0
LINE
8
Black
10
192.027
20
-122.523
11
192.027
21
-121.777
0
LINE
8
Black
10
192.027
20
-121.777
11
194.973
21
-121.777
0
LINE
8
Black
10
194.973
20
-121.777
11
194.973
21
-122.523
0
LINE
8
Black
10
166.973
20
-122.523
11
164.027
21
-122.523
0
LINE
8
Black
10
164.027
20
-122.523
11
164.027
21
-121.777
0
LINE
8
Black
10
164.027
20
-121.777
11
166.973
21
-121.777
0
LINE
8
Black
10
166.973
20
-121.777
11
166.973
21
-122.523
0
LINE
8
Black
10
138.973
20
-122.523
11
136.027
21
-122.523
0
LINE
8
Black
10
136.027
20
-122.523
11
136.027
21
-121.777
0
LINE
8
Black
10
136.027
20
-121.777
11
138.973
21
-121.777
0
LINE
8
Black
10
138.973
20
-121.777
11
138.973
21
-122.523
0
LINE
8
Black
10
110.973
20
-122.523
11
108.027
21
-122.523
0
LINE
8
Black
10
108.027
20
-122.523
11
108.027
21
-121.777
0
LINE
8
Black
10
108.027
20
-121.777
11
110.973
21
-121.777
0
LINE
8
Black
10
110.973
20
-121.777
11
110.973
21
-122.523
0
LINE
8
Black
10
209.973
20
-122.523
11
207.027
21
-122.523
0
LINE
8
Black
10
207.027
20
-122.523
11
207.027
21
-121.777
0
LINE
8
Black
10
207.027
20
-121.777
11
209.973
21
-121.777
0
LINE
8
Black
10
209.973
20
-121.777
11
209.973
21
-122.523
0
LINE
8
Black
10
293.973
20
-122.523
11
291.027
21
-122.523
0
LINE
8
Black
10
291.027
20
-122.523
11
291.027
21
-121.777
0
LINE
8
Black
10
291.027
20
-121.777
11
293.973
21
-121.777
0
LINE
8
Black
10
293.973
20
-121.777
11
293.973
21
-122.523
0
LINE
8
Black
10
237.973
20
-122.523
11
235.027
21
-122.523
0
LINE
8
Black
10
235.027
20
-122.523
11
235.027
21
-121.777
0
LINE
8
Black
10
235.027
20
-121.777
11
237.973
21
-121.777
0
LINE
8
Black
10
237.973
20
-121.777
11
237.973
21
-122.523
0
LINE
8
Black
10
265.973
20
-122.523
11
263.027
21
-122.523
0
LINE
8
Black
10
263.027
20
-122.523
11
263.027
21
-121.777
0
LINE
8
Black
10
263.027
20
-121.777
11
265.973
21
-121.777
0
LINE
8
Black
10
265.973
20
-121.777
11
265.973
21
-122.523
0
LINE
8
Black
10
181.973
20
-122.523
11
179.027
21
-122.523
0
LINE
8
Black
10
179.027
20
-122.523
11
179.027
21
-121.777
0
LINE
8
Black
10
179.027
20
-121.777
11
181.973
21
-121.777
0
LINE
8
Black
10
181.973
20
-121.777
11
181.973
21
-122.523
0
LINE
8
Black
10
125.973
20
-122.523
11
123.027
21
-122.523
0
LINE
8
Black
10
123.027
20
-122.523
11
123.027
21
-121.777
0
LINE
8
Black
10
123.027
20
-121.777
11
125.973
21
-121.777
0
LINE
8
Black
10
125.973
20
-121.777
11
125.973
21
-122.523
0
LINE
8
Black
10
246.651
20
-121.521
11
243.905
21
-121.521
0
LINE
8
Black
10
243.905
20
-121.521
11
243.905
21
-120.875
0
LINE
8
Black
10
243.905
20
-120.875
11
246.651
21
-120.875
0
LINE
8
Black
10
246.651
20
-120.875
11
246.651
21
-121.521
0
LINE
8
Black
10
274.651
20
-121.521
11
271.905
21
-121.521
0
LINE
8
Black
10
271.905
20
-121.521
11
271.905
21
-120.875
0
LINE
8
Black
10
271.905
20
-120.875
11
274.651
21
-120.875
0
LINE
8
Black
10
274.651
20
-120.875
11
274.651
21
-121.521
0
LINE
8
Black
10
302.651
20
-121.521
11
299.905
21
-121.521
0
LINE
8
Black
10
299.905
20
-121.521
11
299.905
21
-120.875
0
LINE
8
Black
10
299.905
20
-120.875
11
302.651
21
-120.875
0
LINE
8
Black
10
302.651
20
-120.875
11
302.651
21
-121.521
0
LINE
8
Black
10
218.651
20
-121.521
11
215.905
21
-121.521
0
LINE
8
Black
10
215.905
20
-121.521
11
215.905
21
-120.875
0
LINE
8
Black
10
215.905
20
-120.875
11
218.651
21
-120.875
0
LINE
8
Black
10
218.651
20
-120.875
11
218.651
21
-121.521
0
LINE
8
Black
10
190.651
20
-121.521
11
187.905
21
-121.521
0
LINE
8
Black
10
187.905
20
-121.521
11
187.905
21
-120.875
0
LINE
8
Black
10
187.905
20
-120.875
11
190.651
21
-120.875
0
LINE
8
Black
10
190.651
20
-120.875
11
190.651
21
-121.521
0
LINE
8
Black
10
162.651
20
-121.521
11
159.905
21
-121.521
0
LINE
8
Black
10
159.905
20
-121.521
11
159.905
21
-120.875
0
LINE
8
Black
10
159.905
20
-120.875
11
162.651
21
-120.875
0
LINE
8
Black
10
162.651
20
-120.875
11
162.651
21
-121.521
0
LINE
8
Black
10
106.651
20
-121.521
11
103.905
21
-121.521
0
LINE
8
Black
10
103.905
20
-121.521
11
103.905
21
-120.875
0
LINE
8
Black
10
103.905
20
-120.875
11
106.651
21
-120.875
0
LINE
8
Black
10
106.651
20
-120.875
11
106.651
21
-121.521
0
LINE
8
Black
10
134.651
20
-121.521
11
131.905
21
-121.521
0
LINE
8
Black
10
131.905
20
-121.521
11
131.905
21
-120.875
0
LINE
8
Black
10
131.905
20
-120.875
11
134.651
21
-120.875
0
LINE
8
Black
10
134.651
20
-120.875
11
134.651
21
-121.521
0
LINE
8
Black
10
270.151
20
-121.521
11
267.405
21
-121.521
0
LINE
8
Black
10
267.405
20
-121.521
11
267.405
21
-120.875
0
LINE
8
Black
10
267.405
20
-120.875
11
270.151
21
-120.875
0
LINE
8
Black
10
270.151
20
-120.875
11
270.151
21
-121.521
0
LINE
8
Black
10
242.151
20
-121.521
11
239.405
21
-121.521
0
LINE
8
Black
10
239.405
20
-121.521
11
239.405
21
-120.875
0
LINE
8
Black
10
239.405
20
-120.875
11
242.151
21
-120.875
0
LINE
8
Black
10
242.151
20
-120.875
11
242.151
21
-121.521
0
LINE
8
Black
10
214.151
20
-121.521
11
211.405
21
-121.521
0
LINE
8
Black
10
211.405
20
-121.521
11
211.405
21
-120.875
0
LINE
8
Black
10
211.405
20
-120.875
11
214.151
21
-120.875
0
LINE
8
Black
10
214.151
20
-120.875
11
214.151
21
-121.521
0
LINE
8
Black
10
186.151
20
-121.521
11
183.405
21
-121.521
0
LINE
8
Black
10
183.405
20
-121.521
11
183.405
21
-120.875
0
LINE
8
Black
10
183.405
20
-120.875
11
186.151
21
-120.875
0
LINE
8
Black
10
186.151
20
-120.875
11
186.151
21
-121.521
0
LINE
8
Black
10
158.151
20
-121.521
11
155.405
21
-121.521
0
LINE
8
Black
10
155.405
20
-121.521
11
155.405
21
-120.875
0
LINE
8
Black
10
155.405
20
-120.875
11
158.151
21
-120.875
0
LINE
8
Black
10
158.151
20
-120.875
11
158.151
21
-121.521
0
LINE
8
Black
10
130.151
20
-121.521
11
127.405
21
-121.521
0
LINE
8
Black
10
127.405
20
-121.521
11
127.405
21
-120.875
0
LINE
8
Black
10
127.405
20
-120.875
11
130.151
21
-120.875
0
LINE
8
Black
10
130.151
20
-120.875
11
130.151
21
-121.521
0
LINE
8
Black
10
102.151
20
-121.521
11
99.405
21
-121.521
0
LINE
8
Black
10
99.405
20
-121.521
11
99.405
21
-120.875
0
LINE
8
Black
10
99.405
20
-120.875
11
102.151
21
-120.875
0
LINE
8
Black
10
102.151
20
-120.875
11
102.151
21
-121.521
0
LINE
8
Black
10
298.151
20
-121.521
11
295.405
21
-121.521
0
LINE
8
Black
10
295.405
20
-121.521
11
295.405
21
-120.875
0
LINE
8
Black
10
295.405
20
-120.875
11
298.151
21
-120.875
0
LINE
8
Black
10
298.151
20
-120.875
11
298.151
21
-121.521
0
LINE
8
Black
10
312.937
20
-110.215
11
309.127
21
-110.215
0
LINE
8
Black
10
309.127
20
-110.215
11
309.127
21
-108.945
0
LINE
8
Black
10
309.127
20
-108.945
11
312.937
21
-108.945
0
LINE
8
Black
10
312.937
20
-108.945
11
312.937
21
-110.215
0
LINE
8
Black
10
92.873
20
-110.135
11
89.063
21
-110.135
0
LINE
8
Black
10
89.063
20
-110.135
11
89.063
21
-108.865
0
LINE
8
Black
10
89.063
20
-108.865
11
92.873
21
-108.865
0
LINE
8
Black
10
92.873
20
-108.865
11
92.873
21
-110.135
0
LINE
8
Black
10
186.151
20
-109.103
11
183.405
21
-109.103
0
LINE
8
Black
10
183.405
20
-109.103
11
183.405
21
-107.357
0
LINE
8
Black
10
183.405
20
-107.357
11
186.151
21
-107.357
0
LINE
8
Black
10
186.151
20
-107.357
11
186.151
21
-109.103
0
LINE
8
Black
10
274.651
20
-109.103
11
271.905
21
-109.103
0
LINE
8
Black
10
271.905
20
-109.103
11
271.905
21
-107.357
0
LINE
8
Black
10
271.905
20
-107.357
11
274.651
21
-107.357
0
LINE
8
Black
10
274.651
20
-107.357
11
274.651
21
-109.103
0
LINE
8
Black
10
246.651
20
-109.103
11
243.905
21
-109.103
0
LINE
8
Black
10
243.905
20
-109.103
11
243.905
21
-107.357
0
LINE
8
Black
10
243.905
20
-107.357
11
246.651
21
-107.357
0
LINE
8
Black
10
246.651
20
-107.357
11
246.651
21
-109.103
0
LINE
8
Black
10
242.151
20
-109.103
11
239.405
21
-109.103
0
LINE
8
Black
10
239.405
20
-109.103
11
239.405
21
-107.357
0
LINE
8
Black
10
239.405
20
-107.357
11
242.151
21
-107.357
0
LINE
8
Black
10
242.151
20
-107.357
11
242.151
21
-109.103
0
LINE
8
Black
10
302.651
20
-109.103
11
299.905
21
-109.103
0
LINE
8
Black
10
299.905
20
-109.103
11
299.905
21
-107.357
0
LINE
8
Black
10
299.905
20
-107.357
11
302.651
21
-107.357
0
LINE
8
Black
10
302.651
20
-107.357
11
302.651
21
-109.103
0
LINE
8
Black
10
106.651
20
-109.103
11
103.905
21
-109.103
0
LINE
8
Black
10
103.905
20
-109.103
11
103.905
21
-107.357
0
LINE
8
Black
10
103.905
20
-107.357
11
106.651
21
-107.357
0
LINE
8
Black
10
106.651
20
-107.357
11
106.651
21
-109.103
0
LINE
8
Black
10
218.651
20
-109.103
11
215.905
21
-109.103
0
LINE
8
Black
10
215.905
20
-109.103
11
215.905
21
-107.357
0
LINE
8
Black
10
215.905
20
-107.357
11
218.651
21
-107.357
0
LINE
8
Black
10
218.651
20
-107.357
11
218.651
21
-109.103
0
LINE
8
Black
10
214.151
20
-109.103
11
211.405
21
-109.103
0
LINE
8
Black
10
211.405
20
-109.103
11
211.405
21
-107.357
0
LINE
8
Black
10
211.405
20
-107.357
11
214.151
21
-107.357
0
LINE
8
Black
10
214.151
20
-107.357
11
214.151
21
-109.103
0
LINE
8
Black
10
270.151
20
-109.103
11
267.405
21
-109.103
0
LINE
8
Black
10
267.405
20
-109.103
11
267.405
21
-107.357
0
LINE
8
Black
10
267.405
20
-107.357
11
270.151
21
-107.357
0
LINE
8
Black
10
270.151
20
-107.357
11
270.151
21
-109.103
0
LINE
8
Black
10
102.151
20
-109.103
11
99.405
21
-109.103
0
LINE
8
Black
10
99.405
20
-109.103
11
99.405
21
-107.357
0
LINE
8
Black
10
99.405
20
-107.357
11
102.151
21
-107.357
0
LINE
8
Black
10
102.151
20
-107.357
11
102.151
21
-109.103
0
LINE
8
Black
10
190.651
20
-109.103
11
187.905
21
-109.103
0
LINE
8
Black
10
187.905
20
-109.103
11
187.905
21
-107.357
0
LINE
8
Black
10
187.905
20
-107.357
11
190.651
21
-107.357
0
LINE
8
Black
10
190.651
20
-107.357
11
190.651
21
-109.103
0
LINE
8
Black
10
158.151
20
-109.103
11
155.405
21
-109.103
0
LINE
8
Black
10
155.405
20
-109.103
11
155.405
21
-107.357
0
LINE
8
Black
10
155.405
20
-107.357
11
158.151
21
-107.357
0
LINE
8
Black
10
158.151
20
-107.357
11
158.151
21
-109.103
0
LINE
8
Black
10
162.651
20
-109.103
11
159.905
21
-109.103
0
LINE
8
Black
10
159.905
20
-109.103
11
159.905
21
-107.357
0
LINE
8
Black
10
159.905
20
-107.357
11
162.651
21
-107.357
0
LINE
8
Black
10
162.651
20
-107.357
11
162.651
21
-109.103
0
LINE
8
Black
10
130.151
20
-109.103
11
127.405
21
-109.103
0
LINE
8
Black
10
127.405
20
-109.103
11
127.405
21
-107.357
0
LINE
8
Black
10
127.405
20
-107.357
11
130.151
21
-107.357
0
LINE
8
Black
10
130.151
20
-107.357
11
130.151
21
-109.103
0
LINE
8
Black
10
298.151
20
-109.103
11
295.405
21
-109.103
0
LINE
8
Black
10
295.405
20
-109.103
11
295.405
21
-107.357
0
LINE
8
Black
10
295.405
20
-107.357
11
298.151
21
-107.357
0
LINE
8
Black
10
298.151
20
-107.357
11
298.151
21
-109.103
0
LINE
8
Black
10
134.651
20
-109.103
11
131.905
21
-109.103
0
LINE
8
Black
10
131.905
20
-109.103
11
131.905
21
-107.357
0
LINE
8
Black
10
131.905
20
-107.357
11
134.651
21
-107.357
0
LINE
8
Black
10
134.651
20
-107.357
11
134.651
21
-109.103
0
LINE
8
Black
10
308.873
20
-107.675
11
305.063
21
-107.675
0
LINE
8
Black
10
305.063
20
-107.675
11
305.063
21
-106.405
0
LINE
8
Black
10
305.063
20
-106.405
11
308.873
21
-106.405
0
LINE
8
Black
10
308.873
20
-106.405
11
308.873
21
-107.675
0
LINE
8
Black
10
96.937
20
-107.595
11
93.127
21
-107.595
0
LINE
8
Black
10
93.127
20
-107.595
11
93.127
21
-106.325
0
LINE
8
Black
10
93.127
20
-106.325
11
96.937
21
-106.325
0
LINE
8
Black
10
96.937
20
-106.325
11
96.937
21
-107.595
0
LINE
8
Black
10
158.151
20
-106.521
11
155.405
21
-106.521
0
LINE
8
Black
10
155.405
20
-106.521
11
155.405
21
-105.875
0
LINE
8
Black
10
155.405
20
-105.875
11
158.151
21
-105.875
0
LINE
8
Black
10
158.151
20
-105.875
11
158.151
21
-106.521
0
LINE
8
Black
10
186.151
20
-106.521
11
183.405
21
-106.521
0
LINE
8
Black
10
183.405
20
-106.521
11
183.405
21
-105.875
0
LINE
8
Black
10
183.405
20
-105.875
11
186.151
21
-105.875
0
LINE
8
Black
10
186.151
20
-105.875
11
186.151
21
-106.521
0
LINE
8
Black
10
274.651
20
-106.521
11
271.905
21
-106.521
0
LINE
8
Black
10
271.905
20
-106.521
11
271.905
21
-105.875
0
LINE
8
Black
10
271.905
20
-105.875
11
274.651
21
-105.875
0
LINE
8
Black
10
274.651
20
-105.875
11
274.651
21
-106.521
0
LINE
8
Black
10
214.151
20
-106.521
11
211.405
21
-106.521
0
LINE
8
Black
10
211.405
20
-106.521
11
211.405
21
-105.875
0
LINE
8
Black
10
211.405
20
-105.875
11
214.151
21
-105.875
0
LINE
8
Black
10
214.151
20
-105.875
11
214.151
21
-106.521
0
LINE
8
Black
10
302.651
20
-106.521
11
299.905
21
-106.521
0
LINE
8
Black
10
299.905
20
-106.521
11
299.905
21
-105.875
0
LINE
8
Black
10
299.905
20
-105.875
11
302.651
21
-105.875
0
LINE
8
Black
10
302.651
20
-105.875
11
302.651
21
-106.521
0
LINE
8
Black
10
130.151
20
-106.521
11
127.405
21
-106.521
0
LINE
8
Black
10
127.405
20
-106.521
11
127.405
21
-105.875
0
LINE
8
Black
10
127.405
20
-105.875
11
130.151
21
-105.875
0
LINE
8
Black
10
130.151
20
-105.875
11
130.151
21
-106.521
0
LINE
8
Black
10
102.151
20
-106.521
11
99.405
21
-106.521
0
LINE
8
Black
10
99.405
20
-106.521
11
99.405
21
-105.875
0
LINE
8
Black
10
99.405
20
-105.875
11
102.151
21
-105.875
0
LINE
8
Black
10
102.151
20
-105.875
11
102.151
21
-106.521
0
LINE
8
Black
10
242.151
20
-106.521
11
239.405
21
-106.521
0
LINE
8
Black
10
239.405
20
-106.521
11
239.405
21
-105.875
0
LINE
8
Black
10
239.405
20
-105.875
11
242.151
21
-105.875
0
LINE
8
Black
10
242.151
20
-105.875
11
242.151
21
-106.521
0
LINE
8
Black
10
190.651
20
-106.521
11
187.905
21
-106.521
0
LINE
8
Black
10
187.905
20
-106.521
11
187.905
21
-105.875
0
LINE
8
Black
10
187.905
20
-105.875
11
190.651
21
-105.875
0
LINE
8
Black
10
190.651
20
-105.875
11
190.651
21
-106.521
0
LINE
8
Black
10
270.151
20
-106.521
11
267.405
21
-106.521
0
LINE
8
Black
10
267.405
20
-106.521
11
267.405
21
-105.875
0
LINE
8
Black
10
267.405
20
-105.875
11
270.151
21
-105.875
0
LINE
8
Black
10
270.151
20
-105.875
11
270.151
21
-106.521
0
LINE
8
Black
10
218.651
20
-106.521
11
215.905
21
-106.521
0
LINE
8
Black
10
215.905
20
-106.521
11
215.905
21
-105.875
0
LINE
8
Black
10
215.905
20
-105.875
11
218.651
21
-105.875
0
LINE
8
Black
10
218.651
20
-105.875
11
218.651
21
-106.521
0
LINE
8
Black
10
162.651
20
-106.521
11
159.905
21
-106.521
0
LINE
8
Black
10
159.905
20
-106.521
11
159.905
21
-105.875
0
LINE
8
Black
10
159.905
20
-105.875
11
162.651
21
-105.875
0
LINE
8
Black
10
162.651
20
-105.875
11
162.651
21
-106.521
0
LINE
8
Black
10
134.651
20
-106.521
11
131.905
21
-106.521
0
LINE
8
Black
10
131.905
20
-106.521
11
131.905
21
-105.875
0
LINE
8
Black
10
131.905
20
-105.875
11
134.651
21
-105.875
0
LINE
8
Black
10
134.651
20
-105.875
11
134.651
21
-106.521
0
LINE
8
Black
10
298.151
20
-106.521
11
295.405
21
-106.521
0
LINE
8
Black
10
295.405
20
-106.521
11
295.405
21
-105.875
0
LINE
8
Black
10
295.405
20
-105.875
11
298.151
21
-105.875
0
LINE
8
Black
10
298.151
20
-105.875
11
298.151
21
-106.521
0
LINE
8
Black
10
246.651
20
-106.521
11
243.905
21
-106.521
0
LINE
8
Black
10
243.905
20
-106.521
11
243.905
21
-105.875
0
LINE
8
Black
10
243.905
20
-105.875
11
246.651
21
-105.875
0
LINE
8
Black
10
246.651
20
-105.875
11
246.651
21
-106.521
0
LINE
8
Black
10
106.651
20
-106.521
11
103.905
21
-106.521
0
LINE
8
Black
10
103.905
20
-106.521
11
103.905
21
-105.875
0
LINE
8
Black
10
103.905
20
-105.875
11
106.651
21
-105.875
0
LINE
8
Black
10
106.651
20
-105.875
11
106.651
21
-106.521
0
LINE
8
Black
10
312.937
20
-105.135
11
309.127
21
-105.135
0
LINE
8
Black
10
309.127
20
-105.135
11
309.127
21
-103.865
0
LINE
8
Black
10
309.127
20
-103.865
11
312.937
21
-103.865
0
LINE
8
Black
10
312.937
20
-103.865
11
312.937
21
-105.135
0
LINE
8
Black
10
92.873
20
-105.055
11
89.063
21
-105.055
0
LINE
8
Black
10
89.063
20
-105.055
11
89.063
21
-103.785
0
LINE
8
Black
10
89.063
20
-103.785
11
92.873
21
-103.785
0
LINE
8
Black
10
92.873
20
-103.785
11
92.873
21
-105.055
0
LINE
8
Black
10
134.651
20
-94.103
11
131.905
21
-94.103
0
LINE
8
Black
10
131.905
20
-94.103
11
131.905
21
-92.357
0
LINE
8
Black
10
131.905
20
-92.357
11
134.651
21
-92.357
0
LINE
8
Black
10
134.651
20
-92.357
11
134.651
21
-94.103
0
LINE
8
Black
10
102.151
20
-94.103
11
99.405
21
-94.103
0
LINE
8
Black
10
99.405
20
-94.103
11
99.405
21
-92.357
0
LINE
8
Black
10
99.405
20
-92.357
11
102.151
21
-92.357
0
LINE
8
Black
10
102.151
20
-92.357
11
102.151
21
-94.103
0
LINE
8
Black
10
130.151
20
-94.103
11
127.405
21
-94.103
0
LINE
8
Black
10
127.405
20
-94.103
11
127.405
21
-92.357
0
LINE
8
Black
10
127.405
20
-92.357
11
130.151
21
-92.357
0
LINE
8
Black
10
130.151
20
-92.357
11
130.151
21
-94.103
0
LINE
8
Black
10
162.651
20
-94.103
11
159.905
21
-94.103
0
LINE
8
Black
10
159.905
20
-94.103
11
159.905
21
-92.357
0
LINE
8
Black
10
159.905
20
-92.357
11
162.651
21
-92.357
0
LINE
8
Black
10
162.651
20
-92.357
11
162.651
21
-94.103
0
LINE
8
Black
10
158.151
20
-94.103
11
155.405
21
-94.103
0
LINE
8
Black
10
155.405
20
-94.103
11
155.405
21
-92.357
0
LINE
8
Black
10
155.405
20
-92.357
11
158.151
21
-92.357
0
LINE
8
Black
10
158.151
20
-92.357
11
158.151
21
-94.103
0
LINE
8
Black
10
298.151
20
-94.103
11
295.405
21
-94.103
0
LINE
8
Black
10
295.405
20
-94.103
11
295.405
21
-92.357
0
LINE
8
Black
10
295.405
20
-92.357
11
298.151
21
-92.357
0
LINE
8
Black
10
298.151
20
-92.357
11
298.151
21
-94.103
0
LINE
8
Black
10
190.651
20
-94.103
11
187.905
21
-94.103
0
LINE
8
Black
10
187.905
20
-94.103
11
187.905
21
-92.357
0
LINE
8
Black
10
187.905
20
-92.357
11
190.651
21
-92.357
0
LINE
8
Black
10
190.651
20
-92.357
11
190.651
21
-94.103
0
LINE
8
Black
10
186.151
20
-94.103
11
183.405
21
-94.103
0
LINE
8
Black
10
183.405
20
-94.103
11
183.405
21
-92.357
0
LINE
8
Black
10
183.405
20
-92.357
11
186.151
21
-92.357
0
LINE
8
Black
10
186.151
20
-92.357
11
186.151
21
-94.103
0
LINE
8
Black
10
274.651
20
-94.103
11
271.905
21
-94.103
0
LINE
8
Black
10
271.905
20
-94.103
11
271.905
21
-92.357
0
LINE
8
Black
10
271.905
20
-92.357
11
274.651
21
-92.357
0
LINE
8
Black
10
274.651
20
-92.357
11
274.651
21
-94.103
0
LINE
8
Black
10
218.651
20
-94.103
11
215.905
21
-94.103
0
LINE
8
Black
10
215.905
20
-94.103
11
215.905
21
-92.357
0
LINE
8
Black
10
215.905
20
-92.357
11
218.651
21
-92.357
0
LINE
8
Black
10
218.651
20
-92.357
11
218.651
21
-94.103
0
LINE
8
Black
10
106.651
20
-94.103
11
103.905
21
-94.103
0
LINE
8
Black
10
103.905
20
-94.103
11
103.905
21
-92.357
0
LINE
8
Black
10
103.905
20
-92.357
11
106.651
21
-92.357
0
LINE
8
Black
10
106.651
20
-92.357
11
106.651
21
-94.103
0
LINE
8
Black
10
302.651
20
-94.103
11
299.905
21
-94.103
0
LINE
8
Black
10
299.905
20
-94.103
11
299.905
21
-92.357
0
LINE
8
Black
10
299.905
20
-92.357
11
302.651
21
-92.357
0
LINE
8
Black
10
302.651
20
-92.357
11
302.651
21
-94.103
0
LINE
8
Black
10
246.651
20
-94.103
11
243.905
21
-94.103
0
LINE
8
Black
10
243.905
20
-94.103
11
243.905
21
-92.357
0
LINE
8
Black
10
243.905
20
-92.357
11
246.651
21
-92.357
0
LINE
8
Black
10
246.651
20
-92.357
11
246.651
21
-94.103
0
LINE
8
Black
10
270.151
20
-94.103
11
267.405
21
-94.103
0
LINE
8
Black
10
267.405
20
-94.103
11
267.405
21
-92.357
0
LINE
8
Black
10
267.405
20
-92.357
11
270.151
21
-92.357
0
LINE
8
Black
10
270.151
20
-92.357
11
270.151
21
-94.103
0
LINE
8
Black
10
242.151
20
-94.103
11
239.405
21
-94.103
0
LINE
8
Black
10
239.405
20
-94.103
11
239.405
21
-92.357
0
LINE
8
Black
10
239.405
20
-92.357
11
242.151
21
-92.357
0
LINE
8
Black
10
242.151
20
-92.357
11
242.151
21
-94.103
0
LINE
8
Black
10
214.151
20
-94.103
11
211.405
21
-94.103
0
LINE
8
Black
10
211.405
20
-94.103
11
211.405
21
-92.357
0
LINE
8
Black
10
211.405
20
-92.357
11
214.151
21
-92.357
0
LINE
8
Black
10
214.151
20
-92.357
11
214.151
21
-94.103
0
LINE
8
Black
10
134.651
20
-91.521
11
131.905
21
-91.521
0
LINE
8
Black
10
131.905
20
-91.521
11
131.905
21
-90.875
0
LINE
8
Black
10
131.905
20
-90.875
11
134.651
21
-90.875
0
LINE
8
Black
10
134.651
20
-90.875
11
134.651
21
-91.521
0
LINE
8
Black
10
106.651
20
-91.521
11
103.905
21
-91.521
0
LINE
8
Black
10
103.905
20
-91.521
11
103.905
21
-90.875
0
LINE
8
Black
10
103.905
20
-90.875
11
106.651
21
-90.875
0
LINE
8
Black
10
106.651
20
-90.875
11
106.651
21
-91.521
0
LINE
8
Black
10
274.651
20
-91.521
11
271.905
21
-91.521
0
LINE
8
Black
10
271.905
20
-91.521
11
271.905
21
-90.875
0
LINE
8
Black
10
271.905
20
-90.875
11
274.651
21
-90.875
0
LINE
8
Black
10
274.651
20
-90.875
11
274.651
21
-91.521
0
LINE
8
Black
10
186.151
20
-91.521
11
183.405
21
-91.521
0
LINE
8
Black
10
183.405
20
-91.521
11
183.405
21
-90.875
0
LINE
8
Black
10
183.405
20
-90.875
11
186.151
21
-90.875
0
LINE
8
Black
10
186.151
20
-90.875
11
186.151
21
-91.521
0
LINE
8
Black
10
246.651
20
-91.521
11
243.905
21
-91.521
0
LINE
8
Black
10
243.905
20
-91.521
11
243.905
21
-90.875
0
LINE
8
Black
10
243.905
20
-90.875
11
246.651
21
-90.875
0
LINE
8
Black
10
246.651
20
-90.875
11
246.651
21
-91.521
0
LINE
8
Black
10
242.151
20
-91.521
11
239.405
21
-91.521
0
LINE
8
Black
10
239.405
20
-91.521
11
239.405
21
-90.875
0
LINE
8
Black
10
239.405
20
-90.875
11
242.151
21
-90.875
0
LINE
8
Black
10
242.151
20
-90.875
11
242.151
21
-91.521
0
LINE
8
Black
10
190.651
20
-91.521
11
187.905
21
-91.521
0
LINE
8
Black
10
187.905
20
-91.521
11
187.905
21
-90.875
0
LINE
8
Black
10
187.905
20
-90.875
11
190.651
21
-90.875
0
LINE
8
Black
10
190.651
20
-90.875
11
190.651
21
-91.521
0
LINE
8
Black
10
302.651
20
-91.521
11
299.905
21
-91.521
0
LINE
8
Black
10
299.905
20
-91.521
11
299.905
21
-90.875
0
LINE
8
Black
10
299.905
20
-90.875
11
302.651
21
-90.875
0
LINE
8
Black
10
302.651
20
-90.875
11
302.651
21
-91.521
0
LINE
8
Black
10
102.151
20
-91.521
11
99.405
21
-91.521
0
LINE
8
Black
10
99.405
20
-91.521
11
99.405
21
-90.875
0
LINE
8
Black
10
99.405
20
-90.875
11
102.151
21
-90.875
0
LINE
8
Black
10
102.151
20
-90.875
11
102.151
21
-91.521
0
LINE
8
Black
10
218.651
20
-91.521
11
215.905
21
-91.521
0
LINE
8
Black
10
215.905
20
-91.521
11
215.905
21
-90.875
0
LINE
8
Black
10
215.905
20
-90.875
11
218.651
21
-90.875
0
LINE
8
Black
10
218.651
20
-90.875
11
218.651
21
-91.521
0
LINE
8
Black
10
298.151
20
-91.521
11
295.405
21
-91.521
0
LINE
8
Black
10
295.405
20
-91.521
11
295.405
21
-90.875
0
LINE
8
Black
10
295.405
20
-90.875
11
298.151
21
-90.875
0
LINE
8
Black
10
298.151
20
-90.875
11
298.151
21
-91.521
0
LINE
8
Black
10
214.151
20
-91.521
11
211.405
21
-91.521
0
LINE
8
Black
10
211.405
20
-91.521
11
211.405
21
-90.875
0
LINE
8
Black
10
211.405
20
-90.875
11
214.151
21
-90.875
0
LINE
8
Black
10
214.151
20
-90.875
11
214.151
21
-91.521
0
LINE
8
Black
10
130.151
20
-91.521
11
127.405
21
-91.521
0
LINE
8
Black
10
127.405
20
-91.521
11
127.405
21
-90.875
0
LINE
8
Black
10
127.405
20
-90.875
11
130.151
21
-90.875
0
LINE
8
Black
10
130.151
20
-90.875
11
130.151
21
-91.521
0
LINE
8
Black
10
158.151
20
-91.521
11
155.405
21
-91.521
0
LINE
8
Black
10
155.405
20
-91.521
11
155.405
21
-90.875
0
LINE
8
Black
10
155.405
20
-90.875
11
158.151
21
-90.875
0
LINE
8
Black
10
158.151
20
-90.875
11
158.151
21
-91.521
0
LINE
8
Black
10
162.651
20
-91.521
11
159.905
21
-91.521
0
LINE
8
Black
10
159.905
20
-91.521
11
159.905
21
-90.875
0
LINE
8
Black
10
159.905
20
-90.875
11
162.651
21
-90.875
0
LINE
8
Black
10
162.651
20
-90.875
11
162.651
21
-91.521
0
LINE
8
Black
10
270.151
20
-91.521
11
267.405
21
-91.521
0
LINE
8
Black
10
267.405
20
-91.521
11
267.405
21
-90.875
0
LINE
8
Black
10
267.405
20
-90.875
11
270.151
21
-90.875
0
LINE
8
Black
10
270.151
20
-90.875
11
270.151
21
-91.521
  0
ENDSEC
  0
EOF
