M48
;DRILL file {KiCad 4.0.1-stable} date Tuesday, February 02, 2016 'pmt' 10:50:34 pm
;FORMAT={-:-/ absolute / inch / decimal}
FMAT,2
INCH,TZ
T1C0.040
T2C0.050
T3C0.079
T4C0.130
%
G90
G05
M72
T1
X5.3Y-3.8
X5.3Y-3.9
X5.3Y-4.
X7.45Y-3.8
X7.45Y-3.9
X7.45Y-4.
T2
X7.55Y-3.5
T3
X6.15Y-3.25
X6.15Y-3.55
X6.15Y-4.3
X6.15Y-4.6
X6.6Y-3.25
X6.6Y-3.55
X6.6Y-4.3
X6.6Y-4.6
X7.05Y-3.25
X7.05Y-3.55
X7.05Y-4.3
X7.05Y-4.6
T4
X5.25Y-3.15
X5.25Y-4.7
X7.5Y-3.15
X7.5Y-4.7
T0
M30
