G04 #@! TF.FileFunction,Legend,Top*
%FSLAX46Y46*%
G04 Gerber Fmt 4.6, Leading zero omitted, Abs format (unit mm)*
G04 Created by KiCad (PCBNEW 4.0.1-stable) date Tuesday, February 02, 2016 'pmt' 10:50:14 pm*
%MOMM*%
G01*
G04 APERTURE LIST*
%ADD10C,0.100000*%
%ADD11C,0.150000*%
G04 APERTURE END LIST*
D10*
D11*
X135920000Y-103150000D02*
X135920000Y-101600000D01*
X134620000Y-103150000D02*
X135920000Y-103150000D01*
X130429000Y-101727000D02*
X124587000Y-101727000D01*
X124587000Y-101727000D02*
X124587000Y-101473000D01*
X124587000Y-101473000D02*
X130429000Y-101473000D01*
X130429000Y-101473000D02*
X130429000Y-101600000D01*
X130429000Y-101600000D02*
X124587000Y-101600000D01*
X133096000Y-101854000D02*
X133477000Y-101854000D01*
X133096000Y-101346000D02*
X133477000Y-101346000D01*
X133096000Y-99314000D02*
X133477000Y-99314000D01*
X133096000Y-98806000D02*
X133477000Y-98806000D01*
X133096000Y-96774000D02*
X133477000Y-96774000D01*
X133096000Y-96266000D02*
X133477000Y-96266000D01*
X130556000Y-100330000D02*
X130556000Y-102870000D01*
X124460000Y-101346000D02*
X130556000Y-101346000D01*
X124460000Y-101854000D02*
X124460000Y-101346000D01*
X130556000Y-101854000D02*
X124460000Y-101854000D01*
X133096000Y-100330000D02*
X130556000Y-100330000D01*
X133096000Y-102870000D02*
X133096000Y-100330000D01*
X133096000Y-102870000D02*
X130556000Y-102870000D01*
X133096000Y-97790000D02*
X130556000Y-97790000D01*
X133096000Y-97790000D02*
X133096000Y-95250000D01*
X130556000Y-96774000D02*
X124460000Y-96774000D01*
X124460000Y-96774000D02*
X124460000Y-96266000D01*
X124460000Y-96266000D02*
X130556000Y-96266000D01*
X130556000Y-95250000D02*
X130556000Y-97790000D01*
X130556000Y-97790000D02*
X130556000Y-100330000D01*
X124460000Y-98806000D02*
X130556000Y-98806000D01*
X124460000Y-99314000D02*
X124460000Y-98806000D01*
X130556000Y-99314000D02*
X124460000Y-99314000D01*
X133096000Y-97790000D02*
X130556000Y-97790000D01*
X133096000Y-100330000D02*
X133096000Y-97790000D01*
X133096000Y-100330000D02*
X130556000Y-100330000D01*
X133096000Y-95250000D02*
X130556000Y-95250000D01*
X187930000Y-94970000D02*
X187930000Y-96520000D01*
X189230000Y-94970000D02*
X187930000Y-94970000D01*
X193421000Y-96393000D02*
X199263000Y-96393000D01*
X199263000Y-96393000D02*
X199263000Y-96647000D01*
X199263000Y-96647000D02*
X193421000Y-96647000D01*
X193421000Y-96647000D02*
X193421000Y-96520000D01*
X193421000Y-96520000D02*
X199263000Y-96520000D01*
X190754000Y-96266000D02*
X190373000Y-96266000D01*
X190754000Y-96774000D02*
X190373000Y-96774000D01*
X190754000Y-98806000D02*
X190373000Y-98806000D01*
X190754000Y-99314000D02*
X190373000Y-99314000D01*
X190754000Y-101346000D02*
X190373000Y-101346000D01*
X190754000Y-101854000D02*
X190373000Y-101854000D01*
X193294000Y-97790000D02*
X193294000Y-95250000D01*
X199390000Y-96774000D02*
X193294000Y-96774000D01*
X199390000Y-96266000D02*
X199390000Y-96774000D01*
X193294000Y-96266000D02*
X199390000Y-96266000D01*
X190754000Y-97790000D02*
X193294000Y-97790000D01*
X190754000Y-95250000D02*
X190754000Y-97790000D01*
X190754000Y-95250000D02*
X193294000Y-95250000D01*
X190754000Y-100330000D02*
X193294000Y-100330000D01*
X190754000Y-100330000D02*
X190754000Y-102870000D01*
X193294000Y-101346000D02*
X199390000Y-101346000D01*
X199390000Y-101346000D02*
X199390000Y-101854000D01*
X199390000Y-101854000D02*
X193294000Y-101854000D01*
X193294000Y-102870000D02*
X193294000Y-100330000D01*
X193294000Y-100330000D02*
X193294000Y-97790000D01*
X199390000Y-99314000D02*
X193294000Y-99314000D01*
X199390000Y-98806000D02*
X199390000Y-99314000D01*
X193294000Y-98806000D02*
X199390000Y-98806000D01*
X190754000Y-100330000D02*
X193294000Y-100330000D01*
X190754000Y-97790000D02*
X190754000Y-100330000D01*
X190754000Y-97790000D02*
X193294000Y-97790000D01*
X190754000Y-102870000D02*
X193294000Y-102870000D01*
X147380000Y-84375000D02*
X142180000Y-84375000D01*
X142180000Y-80725000D02*
X147380000Y-80725000D01*
X147380000Y-111045000D02*
X142180000Y-111045000D01*
X142180000Y-107395000D02*
X147380000Y-107395000D01*
X147380000Y-91995000D02*
X142180000Y-91995000D01*
X142180000Y-88345000D02*
X147380000Y-88345000D01*
X147380000Y-118665000D02*
X142180000Y-118665000D01*
X142180000Y-115015000D02*
X147380000Y-115015000D01*
X158750000Y-110490000D02*
X157480000Y-111760000D01*
X158710000Y-106720000D02*
X153710000Y-106720000D01*
X153710000Y-106720000D02*
X153710000Y-111720000D01*
X153710000Y-111720000D02*
X158710000Y-111720000D01*
X158710000Y-111720000D02*
X158710000Y-106720000D01*
X158750000Y-118110000D02*
X157480000Y-119380000D01*
X158710000Y-114340000D02*
X153710000Y-114340000D01*
X153710000Y-114340000D02*
X153710000Y-119340000D01*
X153710000Y-119340000D02*
X158710000Y-119340000D01*
X158710000Y-119340000D02*
X158710000Y-114340000D01*
X170180000Y-118110000D02*
X168910000Y-119380000D01*
X170140000Y-114340000D02*
X165140000Y-114340000D01*
X165140000Y-114340000D02*
X165140000Y-119340000D01*
X165140000Y-119340000D02*
X170140000Y-119340000D01*
X170140000Y-119340000D02*
X170140000Y-114340000D01*
X170180000Y-110490000D02*
X168910000Y-111760000D01*
X170140000Y-106720000D02*
X165140000Y-106720000D01*
X165140000Y-106720000D02*
X165140000Y-111720000D01*
X165140000Y-111720000D02*
X170140000Y-111720000D01*
X170140000Y-111720000D02*
X170140000Y-106720000D01*
X181610000Y-110490000D02*
X180340000Y-111760000D01*
X181570000Y-106720000D02*
X176570000Y-106720000D01*
X176570000Y-106720000D02*
X176570000Y-111720000D01*
X176570000Y-111720000D02*
X181570000Y-111720000D01*
X181570000Y-111720000D02*
X181570000Y-106720000D01*
X181610000Y-118110000D02*
X180340000Y-119380000D01*
X181570000Y-114340000D02*
X176570000Y-114340000D01*
X176570000Y-114340000D02*
X176570000Y-119340000D01*
X176570000Y-119340000D02*
X181570000Y-119340000D01*
X181570000Y-119340000D02*
X181570000Y-114340000D01*
X181610000Y-83820000D02*
X180340000Y-85090000D01*
X181570000Y-80050000D02*
X176570000Y-80050000D01*
X176570000Y-80050000D02*
X176570000Y-85050000D01*
X176570000Y-85050000D02*
X181570000Y-85050000D01*
X181570000Y-85050000D02*
X181570000Y-80050000D01*
X181610000Y-91440000D02*
X180340000Y-92710000D01*
X181570000Y-87670000D02*
X176570000Y-87670000D01*
X176570000Y-87670000D02*
X176570000Y-92670000D01*
X176570000Y-92670000D02*
X181570000Y-92670000D01*
X181570000Y-92670000D02*
X181570000Y-87670000D01*
X170180000Y-91440000D02*
X168910000Y-92710000D01*
X170140000Y-87670000D02*
X165140000Y-87670000D01*
X165140000Y-87670000D02*
X165140000Y-92670000D01*
X165140000Y-92670000D02*
X170140000Y-92670000D01*
X170140000Y-92670000D02*
X170140000Y-87670000D01*
X170180000Y-83820000D02*
X168910000Y-85090000D01*
X170140000Y-80050000D02*
X165140000Y-80050000D01*
X165140000Y-80050000D02*
X165140000Y-85050000D01*
X165140000Y-85050000D02*
X170140000Y-85050000D01*
X170140000Y-85050000D02*
X170140000Y-80050000D01*
X158750000Y-83820000D02*
X157480000Y-85090000D01*
X158710000Y-80050000D02*
X153710000Y-80050000D01*
X153710000Y-80050000D02*
X153710000Y-85050000D01*
X153710000Y-85050000D02*
X158710000Y-85050000D01*
X158710000Y-85050000D02*
X158710000Y-80050000D01*
X158750000Y-91440000D02*
X157480000Y-92710000D01*
X158710000Y-87670000D02*
X153710000Y-87670000D01*
X153710000Y-87670000D02*
X153710000Y-92670000D01*
X153710000Y-92670000D02*
X158710000Y-92670000D01*
X158710000Y-92670000D02*
X158710000Y-87670000D01*
X133881905Y-107152381D02*
X133881905Y-106152381D01*
X134262858Y-106152381D01*
X134358096Y-106200000D01*
X134405715Y-106247619D01*
X134453334Y-106342857D01*
X134453334Y-106485714D01*
X134405715Y-106580952D01*
X134358096Y-106628571D01*
X134262858Y-106676190D01*
X133881905Y-106676190D01*
X135405715Y-107152381D02*
X134834286Y-107152381D01*
X135120000Y-107152381D02*
X135120000Y-106152381D01*
X135024762Y-106295238D01*
X134929524Y-106390476D01*
X134834286Y-106438095D01*
X188491905Y-91872381D02*
X188491905Y-90872381D01*
X188872858Y-90872381D01*
X188968096Y-90920000D01*
X189015715Y-90967619D01*
X189063334Y-91062857D01*
X189063334Y-91205714D01*
X189015715Y-91300952D01*
X188968096Y-91348571D01*
X188872858Y-91396190D01*
X188491905Y-91396190D01*
X189444286Y-90967619D02*
X189491905Y-90920000D01*
X189587143Y-90872381D01*
X189825239Y-90872381D01*
X189920477Y-90920000D01*
X189968096Y-90967619D01*
X190015715Y-91062857D01*
X190015715Y-91158095D01*
X189968096Y-91300952D01*
X189396667Y-91872381D01*
X190015715Y-91872381D01*
X144613334Y-79902381D02*
X144280000Y-79426190D01*
X144041905Y-79902381D02*
X144041905Y-78902381D01*
X144422858Y-78902381D01*
X144518096Y-78950000D01*
X144565715Y-78997619D01*
X144613334Y-79092857D01*
X144613334Y-79235714D01*
X144565715Y-79330952D01*
X144518096Y-79378571D01*
X144422858Y-79426190D01*
X144041905Y-79426190D01*
X145565715Y-79902381D02*
X144994286Y-79902381D01*
X145280000Y-79902381D02*
X145280000Y-78902381D01*
X145184762Y-79045238D01*
X145089524Y-79140476D01*
X144994286Y-79188095D01*
X144613334Y-106572381D02*
X144280000Y-106096190D01*
X144041905Y-106572381D02*
X144041905Y-105572381D01*
X144422858Y-105572381D01*
X144518096Y-105620000D01*
X144565715Y-105667619D01*
X144613334Y-105762857D01*
X144613334Y-105905714D01*
X144565715Y-106000952D01*
X144518096Y-106048571D01*
X144422858Y-106096190D01*
X144041905Y-106096190D01*
X144994286Y-105667619D02*
X145041905Y-105620000D01*
X145137143Y-105572381D01*
X145375239Y-105572381D01*
X145470477Y-105620000D01*
X145518096Y-105667619D01*
X145565715Y-105762857D01*
X145565715Y-105858095D01*
X145518096Y-106000952D01*
X144946667Y-106572381D01*
X145565715Y-106572381D01*
X144613334Y-87522381D02*
X144280000Y-87046190D01*
X144041905Y-87522381D02*
X144041905Y-86522381D01*
X144422858Y-86522381D01*
X144518096Y-86570000D01*
X144565715Y-86617619D01*
X144613334Y-86712857D01*
X144613334Y-86855714D01*
X144565715Y-86950952D01*
X144518096Y-86998571D01*
X144422858Y-87046190D01*
X144041905Y-87046190D01*
X144946667Y-86522381D02*
X145565715Y-86522381D01*
X145232381Y-86903333D01*
X145375239Y-86903333D01*
X145470477Y-86950952D01*
X145518096Y-86998571D01*
X145565715Y-87093810D01*
X145565715Y-87331905D01*
X145518096Y-87427143D01*
X145470477Y-87474762D01*
X145375239Y-87522381D01*
X145089524Y-87522381D01*
X144994286Y-87474762D01*
X144946667Y-87427143D01*
X144613334Y-114192381D02*
X144280000Y-113716190D01*
X144041905Y-114192381D02*
X144041905Y-113192381D01*
X144422858Y-113192381D01*
X144518096Y-113240000D01*
X144565715Y-113287619D01*
X144613334Y-113382857D01*
X144613334Y-113525714D01*
X144565715Y-113620952D01*
X144518096Y-113668571D01*
X144422858Y-113716190D01*
X144041905Y-113716190D01*
X145470477Y-113525714D02*
X145470477Y-114192381D01*
X145232381Y-113144762D02*
X144994286Y-113859048D01*
X145613334Y-113859048D01*
X155471905Y-113482381D02*
X155471905Y-112482381D01*
X155710000Y-112482381D01*
X155852858Y-112530000D01*
X155948096Y-112625238D01*
X155995715Y-112720476D01*
X156043334Y-112910952D01*
X156043334Y-113053810D01*
X155995715Y-113244286D01*
X155948096Y-113339524D01*
X155852858Y-113434762D01*
X155710000Y-113482381D01*
X155471905Y-113482381D01*
X156900477Y-112815714D02*
X156900477Y-113482381D01*
X156662381Y-112434762D02*
X156424286Y-113149048D01*
X157043334Y-113149048D01*
X154995714Y-121102381D02*
X154995714Y-120102381D01*
X155233809Y-120102381D01*
X155376667Y-120150000D01*
X155471905Y-120245238D01*
X155519524Y-120340476D01*
X155567143Y-120530952D01*
X155567143Y-120673810D01*
X155519524Y-120864286D01*
X155471905Y-120959524D01*
X155376667Y-121054762D01*
X155233809Y-121102381D01*
X154995714Y-121102381D01*
X156519524Y-121102381D02*
X155948095Y-121102381D01*
X156233809Y-121102381D02*
X156233809Y-120102381D01*
X156138571Y-120245238D01*
X156043333Y-120340476D01*
X155948095Y-120388095D01*
X157138571Y-120102381D02*
X157233810Y-120102381D01*
X157329048Y-120150000D01*
X157376667Y-120197619D01*
X157424286Y-120292857D01*
X157471905Y-120483333D01*
X157471905Y-120721429D01*
X157424286Y-120911905D01*
X157376667Y-121007143D01*
X157329048Y-121054762D01*
X157233810Y-121102381D01*
X157138571Y-121102381D01*
X157043333Y-121054762D01*
X156995714Y-121007143D01*
X156948095Y-120911905D01*
X156900476Y-120721429D01*
X156900476Y-120483333D01*
X156948095Y-120292857D01*
X156995714Y-120197619D01*
X157043333Y-120150000D01*
X157138571Y-120102381D01*
X166425714Y-121102381D02*
X166425714Y-120102381D01*
X166663809Y-120102381D01*
X166806667Y-120150000D01*
X166901905Y-120245238D01*
X166949524Y-120340476D01*
X166997143Y-120530952D01*
X166997143Y-120673810D01*
X166949524Y-120864286D01*
X166901905Y-120959524D01*
X166806667Y-121054762D01*
X166663809Y-121102381D01*
X166425714Y-121102381D01*
X167949524Y-121102381D02*
X167378095Y-121102381D01*
X167663809Y-121102381D02*
X167663809Y-120102381D01*
X167568571Y-120245238D01*
X167473333Y-120340476D01*
X167378095Y-120388095D01*
X168901905Y-121102381D02*
X168330476Y-121102381D01*
X168616190Y-121102381D02*
X168616190Y-120102381D01*
X168520952Y-120245238D01*
X168425714Y-120340476D01*
X168330476Y-120388095D01*
X166901905Y-113482381D02*
X166901905Y-112482381D01*
X167140000Y-112482381D01*
X167282858Y-112530000D01*
X167378096Y-112625238D01*
X167425715Y-112720476D01*
X167473334Y-112910952D01*
X167473334Y-113053810D01*
X167425715Y-113244286D01*
X167378096Y-113339524D01*
X167282858Y-113434762D01*
X167140000Y-113482381D01*
X166901905Y-113482381D01*
X168378096Y-112482381D02*
X167901905Y-112482381D01*
X167854286Y-112958571D01*
X167901905Y-112910952D01*
X167997143Y-112863333D01*
X168235239Y-112863333D01*
X168330477Y-112910952D01*
X168378096Y-112958571D01*
X168425715Y-113053810D01*
X168425715Y-113291905D01*
X168378096Y-113387143D01*
X168330477Y-113434762D01*
X168235239Y-113482381D01*
X167997143Y-113482381D01*
X167901905Y-113434762D01*
X167854286Y-113387143D01*
X178331905Y-113482381D02*
X178331905Y-112482381D01*
X178570000Y-112482381D01*
X178712858Y-112530000D01*
X178808096Y-112625238D01*
X178855715Y-112720476D01*
X178903334Y-112910952D01*
X178903334Y-113053810D01*
X178855715Y-113244286D01*
X178808096Y-113339524D01*
X178712858Y-113434762D01*
X178570000Y-113482381D01*
X178331905Y-113482381D01*
X179760477Y-112482381D02*
X179570000Y-112482381D01*
X179474762Y-112530000D01*
X179427143Y-112577619D01*
X179331905Y-112720476D01*
X179284286Y-112910952D01*
X179284286Y-113291905D01*
X179331905Y-113387143D01*
X179379524Y-113434762D01*
X179474762Y-113482381D01*
X179665239Y-113482381D01*
X179760477Y-113434762D01*
X179808096Y-113387143D01*
X179855715Y-113291905D01*
X179855715Y-113053810D01*
X179808096Y-112958571D01*
X179760477Y-112910952D01*
X179665239Y-112863333D01*
X179474762Y-112863333D01*
X179379524Y-112910952D01*
X179331905Y-112958571D01*
X179284286Y-113053810D01*
X177855714Y-121102381D02*
X177855714Y-120102381D01*
X178093809Y-120102381D01*
X178236667Y-120150000D01*
X178331905Y-120245238D01*
X178379524Y-120340476D01*
X178427143Y-120530952D01*
X178427143Y-120673810D01*
X178379524Y-120864286D01*
X178331905Y-120959524D01*
X178236667Y-121054762D01*
X178093809Y-121102381D01*
X177855714Y-121102381D01*
X179379524Y-121102381D02*
X178808095Y-121102381D01*
X179093809Y-121102381D02*
X179093809Y-120102381D01*
X178998571Y-120245238D01*
X178903333Y-120340476D01*
X178808095Y-120388095D01*
X179760476Y-120197619D02*
X179808095Y-120150000D01*
X179903333Y-120102381D01*
X180141429Y-120102381D01*
X180236667Y-120150000D01*
X180284286Y-120197619D01*
X180331905Y-120292857D01*
X180331905Y-120388095D01*
X180284286Y-120530952D01*
X179712857Y-121102381D01*
X180331905Y-121102381D01*
X178331905Y-86812381D02*
X178331905Y-85812381D01*
X178570000Y-85812381D01*
X178712858Y-85860000D01*
X178808096Y-85955238D01*
X178855715Y-86050476D01*
X178903334Y-86240952D01*
X178903334Y-86383810D01*
X178855715Y-86574286D01*
X178808096Y-86669524D01*
X178712858Y-86764762D01*
X178570000Y-86812381D01*
X178331905Y-86812381D01*
X179236667Y-85812381D02*
X179855715Y-85812381D01*
X179522381Y-86193333D01*
X179665239Y-86193333D01*
X179760477Y-86240952D01*
X179808096Y-86288571D01*
X179855715Y-86383810D01*
X179855715Y-86621905D01*
X179808096Y-86717143D01*
X179760477Y-86764762D01*
X179665239Y-86812381D01*
X179379524Y-86812381D01*
X179284286Y-86764762D01*
X179236667Y-86717143D01*
X178331905Y-94432381D02*
X178331905Y-93432381D01*
X178570000Y-93432381D01*
X178712858Y-93480000D01*
X178808096Y-93575238D01*
X178855715Y-93670476D01*
X178903334Y-93860952D01*
X178903334Y-94003810D01*
X178855715Y-94194286D01*
X178808096Y-94289524D01*
X178712858Y-94384762D01*
X178570000Y-94432381D01*
X178331905Y-94432381D01*
X179379524Y-94432381D02*
X179570000Y-94432381D01*
X179665239Y-94384762D01*
X179712858Y-94337143D01*
X179808096Y-94194286D01*
X179855715Y-94003810D01*
X179855715Y-93622857D01*
X179808096Y-93527619D01*
X179760477Y-93480000D01*
X179665239Y-93432381D01*
X179474762Y-93432381D01*
X179379524Y-93480000D01*
X179331905Y-93527619D01*
X179284286Y-93622857D01*
X179284286Y-93860952D01*
X179331905Y-93956190D01*
X179379524Y-94003810D01*
X179474762Y-94051429D01*
X179665239Y-94051429D01*
X179760477Y-94003810D01*
X179808096Y-93956190D01*
X179855715Y-93860952D01*
X166901905Y-94432381D02*
X166901905Y-93432381D01*
X167140000Y-93432381D01*
X167282858Y-93480000D01*
X167378096Y-93575238D01*
X167425715Y-93670476D01*
X167473334Y-93860952D01*
X167473334Y-94003810D01*
X167425715Y-94194286D01*
X167378096Y-94289524D01*
X167282858Y-94384762D01*
X167140000Y-94432381D01*
X166901905Y-94432381D01*
X168044762Y-93860952D02*
X167949524Y-93813333D01*
X167901905Y-93765714D01*
X167854286Y-93670476D01*
X167854286Y-93622857D01*
X167901905Y-93527619D01*
X167949524Y-93480000D01*
X168044762Y-93432381D01*
X168235239Y-93432381D01*
X168330477Y-93480000D01*
X168378096Y-93527619D01*
X168425715Y-93622857D01*
X168425715Y-93670476D01*
X168378096Y-93765714D01*
X168330477Y-93813333D01*
X168235239Y-93860952D01*
X168044762Y-93860952D01*
X167949524Y-93908571D01*
X167901905Y-93956190D01*
X167854286Y-94051429D01*
X167854286Y-94241905D01*
X167901905Y-94337143D01*
X167949524Y-94384762D01*
X168044762Y-94432381D01*
X168235239Y-94432381D01*
X168330477Y-94384762D01*
X168378096Y-94337143D01*
X168425715Y-94241905D01*
X168425715Y-94051429D01*
X168378096Y-93956190D01*
X168330477Y-93908571D01*
X168235239Y-93860952D01*
X166901905Y-86812381D02*
X166901905Y-85812381D01*
X167140000Y-85812381D01*
X167282858Y-85860000D01*
X167378096Y-85955238D01*
X167425715Y-86050476D01*
X167473334Y-86240952D01*
X167473334Y-86383810D01*
X167425715Y-86574286D01*
X167378096Y-86669524D01*
X167282858Y-86764762D01*
X167140000Y-86812381D01*
X166901905Y-86812381D01*
X167854286Y-85907619D02*
X167901905Y-85860000D01*
X167997143Y-85812381D01*
X168235239Y-85812381D01*
X168330477Y-85860000D01*
X168378096Y-85907619D01*
X168425715Y-86002857D01*
X168425715Y-86098095D01*
X168378096Y-86240952D01*
X167806667Y-86812381D01*
X168425715Y-86812381D01*
X155471905Y-86812381D02*
X155471905Y-85812381D01*
X155710000Y-85812381D01*
X155852858Y-85860000D01*
X155948096Y-85955238D01*
X155995715Y-86050476D01*
X156043334Y-86240952D01*
X156043334Y-86383810D01*
X155995715Y-86574286D01*
X155948096Y-86669524D01*
X155852858Y-86764762D01*
X155710000Y-86812381D01*
X155471905Y-86812381D01*
X156995715Y-86812381D02*
X156424286Y-86812381D01*
X156710000Y-86812381D02*
X156710000Y-85812381D01*
X156614762Y-85955238D01*
X156519524Y-86050476D01*
X156424286Y-86098095D01*
X155471905Y-94432381D02*
X155471905Y-93432381D01*
X155710000Y-93432381D01*
X155852858Y-93480000D01*
X155948096Y-93575238D01*
X155995715Y-93670476D01*
X156043334Y-93860952D01*
X156043334Y-94003810D01*
X155995715Y-94194286D01*
X155948096Y-94289524D01*
X155852858Y-94384762D01*
X155710000Y-94432381D01*
X155471905Y-94432381D01*
X156376667Y-93432381D02*
X157043334Y-93432381D01*
X156614762Y-94432381D01*
X136421905Y-118562381D02*
X136421905Y-117562381D01*
X136802858Y-117562381D01*
X136898096Y-117610000D01*
X136945715Y-117657619D01*
X136993334Y-117752857D01*
X136993334Y-117895714D01*
X136945715Y-117990952D01*
X136898096Y-118038571D01*
X136802858Y-118086190D01*
X136421905Y-118086190D01*
X137326667Y-117562381D02*
X137945715Y-117562381D01*
X137612381Y-117943333D01*
X137755239Y-117943333D01*
X137850477Y-117990952D01*
X137898096Y-118038571D01*
X137945715Y-118133810D01*
X137945715Y-118371905D01*
X137898096Y-118467143D01*
X137850477Y-118514762D01*
X137755239Y-118562381D01*
X137469524Y-118562381D01*
X137374286Y-118514762D01*
X137326667Y-118467143D01*
X193571905Y-118562381D02*
X193571905Y-117562381D01*
X193952858Y-117562381D01*
X194048096Y-117610000D01*
X194095715Y-117657619D01*
X194143334Y-117752857D01*
X194143334Y-117895714D01*
X194095715Y-117990952D01*
X194048096Y-118038571D01*
X193952858Y-118086190D01*
X193571905Y-118086190D01*
X195000477Y-117895714D02*
X195000477Y-118562381D01*
X194762381Y-117514762D02*
X194524286Y-118229048D01*
X195143334Y-118229048D01*
X136421905Y-79192381D02*
X136421905Y-78192381D01*
X136802858Y-78192381D01*
X136898096Y-78240000D01*
X136945715Y-78287619D01*
X136993334Y-78382857D01*
X136993334Y-78525714D01*
X136945715Y-78620952D01*
X136898096Y-78668571D01*
X136802858Y-78716190D01*
X136421905Y-78716190D01*
X137898096Y-78192381D02*
X137421905Y-78192381D01*
X137374286Y-78668571D01*
X137421905Y-78620952D01*
X137517143Y-78573333D01*
X137755239Y-78573333D01*
X137850477Y-78620952D01*
X137898096Y-78668571D01*
X137945715Y-78763810D01*
X137945715Y-79001905D01*
X137898096Y-79097143D01*
X137850477Y-79144762D01*
X137755239Y-79192381D01*
X137517143Y-79192381D01*
X137421905Y-79144762D01*
X137374286Y-79097143D01*
X193571905Y-79192381D02*
X193571905Y-78192381D01*
X193952858Y-78192381D01*
X194048096Y-78240000D01*
X194095715Y-78287619D01*
X194143334Y-78382857D01*
X194143334Y-78525714D01*
X194095715Y-78620952D01*
X194048096Y-78668571D01*
X193952858Y-78716190D01*
X193571905Y-78716190D01*
X195000477Y-78192381D02*
X194810000Y-78192381D01*
X194714762Y-78240000D01*
X194667143Y-78287619D01*
X194571905Y-78430476D01*
X194524286Y-78620952D01*
X194524286Y-79001905D01*
X194571905Y-79097143D01*
X194619524Y-79144762D01*
X194714762Y-79192381D01*
X194905239Y-79192381D01*
X195000477Y-79144762D01*
X195048096Y-79097143D01*
X195095715Y-79001905D01*
X195095715Y-78763810D01*
X195048096Y-78668571D01*
X195000477Y-78620952D01*
X194905239Y-78573333D01*
X194714762Y-78573333D01*
X194619524Y-78620952D01*
X194571905Y-78668571D01*
X194524286Y-78763810D01*
M02*
