G04 #@! TF.FileFunction,Copper,L2,Bot,Signal*
%FSLAX46Y46*%
G04 Gerber Fmt 4.6, Leading zero omitted, Abs format (unit mm)*
G04 Created by KiCad (PCBNEW 4.0.6+dfsg1-1) date Mon Oct 16 00:40:44 2017*
%MOMM*%
%LPD*%
G01*
G04 APERTURE LIST*
%ADD10C,0.100000*%
%ADD11C,0.150000*%
%ADD12O,1.727200X2.032000*%
%ADD13C,4.064000*%
%ADD14R,1.600000X1.600000*%
%ADD15C,1.600000*%
%ADD16C,5.000000*%
%ADD17C,4.500000*%
%ADD18R,1.700000X1.700000*%
%ADD19O,1.700000X1.700000*%
%ADD20C,1.000000*%
%ADD21C,0.600000*%
%ADD22C,2.540000*%
%ADD23C,2.540000*%
%ADD24C,0.635000*%
%ADD25C,0.254000*%
G04 APERTURE END LIST*
D10*
D11*
X177038000Y-74549000D02*
X175514000Y-73025000D01*
X177038000Y-85979000D02*
X177038000Y-74549000D01*
X179578000Y-88519000D02*
X177038000Y-85979000D01*
X179578000Y-121285000D02*
X179578000Y-88519000D01*
X177038000Y-123825000D02*
X179578000Y-121285000D01*
X177038000Y-126365000D02*
X177038000Y-123825000D01*
X110998000Y-126365000D02*
X177038000Y-126365000D01*
X110998000Y-73025000D02*
X110998000Y-126365000D01*
X175514000Y-73025000D02*
X110998000Y-73025000D01*
D12*
X138938000Y-123825000D03*
X141478000Y-123825000D03*
X144018000Y-123825000D03*
X146558000Y-123825000D03*
X149098000Y-123825000D03*
X151638000Y-123825000D03*
X154178000Y-123825000D03*
X156718000Y-123825000D03*
X161798000Y-123825000D03*
X164338000Y-123825000D03*
X166878000Y-123825000D03*
X169418000Y-123825000D03*
X171958000Y-123825000D03*
X174498000Y-123825000D03*
X129794000Y-75565000D03*
X132334000Y-75565000D03*
X134874000Y-75565000D03*
X137414000Y-75565000D03*
X139954000Y-75565000D03*
X142494000Y-75565000D03*
X145034000Y-75565000D03*
X147574000Y-75565000D03*
X150114000Y-75565000D03*
X152654000Y-75565000D03*
X156718000Y-75565000D03*
X159258000Y-75565000D03*
X161798000Y-75565000D03*
X164338000Y-75565000D03*
X166878000Y-75565000D03*
X169418000Y-75565000D03*
X171958000Y-75565000D03*
X174498000Y-75565000D03*
D13*
X124968000Y-123825000D03*
X177038000Y-118745000D03*
X126238000Y-75565000D03*
X177038000Y-90805000D03*
D14*
X128778000Y-112395000D03*
D15*
X128778000Y-116195000D03*
D16*
X124698000Y-102235000D03*
D17*
X121748000Y-97335000D03*
X118698000Y-102235000D03*
D18*
X173863000Y-83185000D03*
D19*
X171323000Y-83185000D03*
X168783000Y-83185000D03*
D20*
X173228000Y-114300000D03*
X171978000Y-114300000D03*
X170728000Y-114300000D03*
X169478000Y-114300000D03*
X168228000Y-114300000D03*
X166978000Y-114300000D03*
D21*
X134493000Y-90170000D03*
D22*
X151638000Y-106045000D03*
X165608000Y-106045000D03*
X153543000Y-117475000D03*
X148463000Y-114935000D03*
D21*
X137033000Y-100330000D03*
X133858000Y-96520000D03*
D23*
X118698000Y-102235000D02*
X118698000Y-106165000D01*
X118698000Y-106165000D02*
X118498000Y-106365000D01*
X121748000Y-97335000D02*
X126968000Y-97335000D01*
X126968000Y-97335000D02*
X126998000Y-97365000D01*
X148463000Y-114935000D02*
X151003000Y-114935000D01*
X151003000Y-114935000D02*
X153543000Y-117475000D01*
X148463000Y-114935000D02*
X149098000Y-114935000D01*
X173863000Y-87630000D02*
X173863000Y-83185000D01*
X172593000Y-88900000D02*
X173863000Y-87630000D01*
X172593000Y-109855000D02*
X172593000Y-88900000D01*
X171323000Y-111125000D02*
X172593000Y-109855000D01*
X152908000Y-111125000D02*
X171323000Y-111125000D01*
X149098000Y-114935000D02*
X152908000Y-111125000D01*
D24*
X137033000Y-99695000D02*
X137033000Y-100330000D01*
X133858000Y-96520000D02*
X137033000Y-99695000D01*
D25*
G36*
X123978345Y-74052293D02*
X123571464Y-75032173D01*
X123570538Y-76093172D01*
X123975709Y-77073761D01*
X124725293Y-77824655D01*
X125705173Y-78231536D01*
X126766172Y-78232462D01*
X127746761Y-77827291D01*
X128497655Y-77077707D01*
X128657071Y-76693789D01*
X128734330Y-76809415D01*
X129220511Y-77134271D01*
X129794000Y-77248345D01*
X130367489Y-77134271D01*
X130853670Y-76809415D01*
X131064000Y-76494634D01*
X131274330Y-76809415D01*
X131760511Y-77134271D01*
X132334000Y-77248345D01*
X132907489Y-77134271D01*
X133393670Y-76809415D01*
X133604000Y-76494634D01*
X133814330Y-76809415D01*
X134300511Y-77134271D01*
X134874000Y-77248345D01*
X135447489Y-77134271D01*
X135933670Y-76809415D01*
X136140461Y-76499931D01*
X136511964Y-76915732D01*
X137039209Y-77169709D01*
X137054974Y-77172358D01*
X137287000Y-77051217D01*
X137287000Y-75692000D01*
X137267000Y-75692000D01*
X137267000Y-75438000D01*
X137287000Y-75438000D01*
X137287000Y-74078783D01*
X137541000Y-74078783D01*
X137541000Y-75438000D01*
X137561000Y-75438000D01*
X137561000Y-75692000D01*
X137541000Y-75692000D01*
X137541000Y-77051217D01*
X137773026Y-77172358D01*
X137788791Y-77169709D01*
X138316036Y-76915732D01*
X138687539Y-76499931D01*
X138894330Y-76809415D01*
X139380511Y-77134271D01*
X139954000Y-77248345D01*
X140527489Y-77134271D01*
X141013670Y-76809415D01*
X141224000Y-76494634D01*
X141434330Y-76809415D01*
X141920511Y-77134271D01*
X142494000Y-77248345D01*
X143067489Y-77134271D01*
X143553670Y-76809415D01*
X143764000Y-76494634D01*
X143974330Y-76809415D01*
X144460511Y-77134271D01*
X145034000Y-77248345D01*
X145607489Y-77134271D01*
X146093670Y-76809415D01*
X146304000Y-76494634D01*
X146514330Y-76809415D01*
X147000511Y-77134271D01*
X147574000Y-77248345D01*
X148147489Y-77134271D01*
X148633670Y-76809415D01*
X148844000Y-76494634D01*
X149054330Y-76809415D01*
X149540511Y-77134271D01*
X150114000Y-77248345D01*
X150687489Y-77134271D01*
X151173670Y-76809415D01*
X151384000Y-76494634D01*
X151594330Y-76809415D01*
X152080511Y-77134271D01*
X152654000Y-77248345D01*
X153227489Y-77134271D01*
X153713670Y-76809415D01*
X154038526Y-76323234D01*
X154152600Y-75749745D01*
X154152600Y-75380255D01*
X155219400Y-75380255D01*
X155219400Y-75749745D01*
X155333474Y-76323234D01*
X155658330Y-76809415D01*
X156144511Y-77134271D01*
X156718000Y-77248345D01*
X157291489Y-77134271D01*
X157777670Y-76809415D01*
X157988000Y-76494634D01*
X158198330Y-76809415D01*
X158684511Y-77134271D01*
X159258000Y-77248345D01*
X159831489Y-77134271D01*
X160317670Y-76809415D01*
X160528000Y-76494634D01*
X160738330Y-76809415D01*
X161224511Y-77134271D01*
X161798000Y-77248345D01*
X162371489Y-77134271D01*
X162857670Y-76809415D01*
X163068000Y-76494634D01*
X163278330Y-76809415D01*
X163764511Y-77134271D01*
X164338000Y-77248345D01*
X164911489Y-77134271D01*
X165397670Y-76809415D01*
X165608000Y-76494634D01*
X165818330Y-76809415D01*
X166304511Y-77134271D01*
X166878000Y-77248345D01*
X167451489Y-77134271D01*
X167937670Y-76809415D01*
X168148000Y-76494634D01*
X168358330Y-76809415D01*
X168844511Y-77134271D01*
X169418000Y-77248345D01*
X169991489Y-77134271D01*
X170477670Y-76809415D01*
X170688000Y-76494634D01*
X170898330Y-76809415D01*
X171384511Y-77134271D01*
X171958000Y-77248345D01*
X172531489Y-77134271D01*
X173017670Y-76809415D01*
X173228000Y-76494634D01*
X173438330Y-76809415D01*
X173924511Y-77134271D01*
X174498000Y-77248345D01*
X175071489Y-77134271D01*
X175557670Y-76809415D01*
X175882526Y-76323234D01*
X175996600Y-75749745D01*
X175996600Y-75380255D01*
X175882526Y-74806766D01*
X175557670Y-74320585D01*
X175071489Y-73995729D01*
X174498000Y-73881655D01*
X173924511Y-73995729D01*
X173438330Y-74320585D01*
X173228000Y-74635366D01*
X173017670Y-74320585D01*
X172531489Y-73995729D01*
X171958000Y-73881655D01*
X171384511Y-73995729D01*
X170898330Y-74320585D01*
X170688000Y-74635366D01*
X170477670Y-74320585D01*
X169991489Y-73995729D01*
X169418000Y-73881655D01*
X168844511Y-73995729D01*
X168358330Y-74320585D01*
X168148000Y-74635366D01*
X167937670Y-74320585D01*
X167451489Y-73995729D01*
X166878000Y-73881655D01*
X166304511Y-73995729D01*
X165818330Y-74320585D01*
X165608000Y-74635366D01*
X165397670Y-74320585D01*
X164911489Y-73995729D01*
X164338000Y-73881655D01*
X163764511Y-73995729D01*
X163278330Y-74320585D01*
X163068000Y-74635366D01*
X162857670Y-74320585D01*
X162371489Y-73995729D01*
X161798000Y-73881655D01*
X161224511Y-73995729D01*
X160738330Y-74320585D01*
X160528000Y-74635366D01*
X160317670Y-74320585D01*
X159831489Y-73995729D01*
X159258000Y-73881655D01*
X158684511Y-73995729D01*
X158198330Y-74320585D01*
X157988000Y-74635366D01*
X157777670Y-74320585D01*
X157291489Y-73995729D01*
X156718000Y-73881655D01*
X156144511Y-73995729D01*
X155658330Y-74320585D01*
X155333474Y-74806766D01*
X155219400Y-75380255D01*
X154152600Y-75380255D01*
X154038526Y-74806766D01*
X153713670Y-74320585D01*
X153227489Y-73995729D01*
X152654000Y-73881655D01*
X152080511Y-73995729D01*
X151594330Y-74320585D01*
X151384000Y-74635366D01*
X151173670Y-74320585D01*
X150687489Y-73995729D01*
X150114000Y-73881655D01*
X149540511Y-73995729D01*
X149054330Y-74320585D01*
X148844000Y-74635366D01*
X148633670Y-74320585D01*
X148147489Y-73995729D01*
X147574000Y-73881655D01*
X147000511Y-73995729D01*
X146514330Y-74320585D01*
X146304000Y-74635366D01*
X146093670Y-74320585D01*
X145607489Y-73995729D01*
X145034000Y-73881655D01*
X144460511Y-73995729D01*
X143974330Y-74320585D01*
X143764000Y-74635366D01*
X143553670Y-74320585D01*
X143067489Y-73995729D01*
X142494000Y-73881655D01*
X141920511Y-73995729D01*
X141434330Y-74320585D01*
X141224000Y-74635366D01*
X141013670Y-74320585D01*
X140527489Y-73995729D01*
X139954000Y-73881655D01*
X139380511Y-73995729D01*
X138894330Y-74320585D01*
X138687539Y-74630069D01*
X138316036Y-74214268D01*
X137788791Y-73960291D01*
X137773026Y-73957642D01*
X137541000Y-74078783D01*
X137287000Y-74078783D01*
X137054974Y-73957642D01*
X137039209Y-73960291D01*
X136511964Y-74214268D01*
X136140461Y-74630069D01*
X135933670Y-74320585D01*
X135447489Y-73995729D01*
X134874000Y-73881655D01*
X134300511Y-73995729D01*
X133814330Y-74320585D01*
X133604000Y-74635366D01*
X133393670Y-74320585D01*
X132907489Y-73995729D01*
X132334000Y-73881655D01*
X131760511Y-73995729D01*
X131274330Y-74320585D01*
X131064000Y-74635366D01*
X130853670Y-74320585D01*
X130367489Y-73995729D01*
X129794000Y-73881655D01*
X129220511Y-73995729D01*
X128734330Y-74320585D01*
X128657208Y-74436007D01*
X128500291Y-74056239D01*
X128231521Y-73787000D01*
X175080394Y-73787000D01*
X176276000Y-74982606D01*
X176276000Y-86360000D01*
X176286006Y-86409410D01*
X176313197Y-86449803D01*
X178307929Y-88444535D01*
X177570827Y-88138464D01*
X176509828Y-88137538D01*
X175529239Y-88542709D01*
X175442177Y-88629620D01*
X175622991Y-88359012D01*
X175660391Y-88170988D01*
X175768000Y-87630000D01*
X175768000Y-83185000D01*
X175622991Y-82455988D01*
X175210038Y-81837962D01*
X174592012Y-81425009D01*
X173863000Y-81280000D01*
X173133988Y-81425009D01*
X172515962Y-81837962D01*
X172348102Y-82089181D01*
X171891285Y-81783946D01*
X171323000Y-81670907D01*
X170754715Y-81783946D01*
X170272946Y-82105853D01*
X170053000Y-82435026D01*
X169833054Y-82105853D01*
X169351285Y-81783946D01*
X168783000Y-81670907D01*
X168214715Y-81783946D01*
X167732946Y-82105853D01*
X167411039Y-82587622D01*
X167298000Y-83155907D01*
X167298000Y-83214093D01*
X167411039Y-83782378D01*
X167732946Y-84264147D01*
X168214715Y-84586054D01*
X168783000Y-84699093D01*
X169351285Y-84586054D01*
X169833054Y-84264147D01*
X170053000Y-83934974D01*
X170272946Y-84264147D01*
X170754715Y-84586054D01*
X171323000Y-84699093D01*
X171891285Y-84586054D01*
X171958000Y-84541477D01*
X171958000Y-86840923D01*
X171245962Y-87552962D01*
X170833009Y-88170988D01*
X170688000Y-88900000D01*
X170688000Y-109065923D01*
X170533924Y-109220000D01*
X152908000Y-109220000D01*
X152178988Y-109365009D01*
X151560962Y-109777961D01*
X148309059Y-113029865D01*
X148085735Y-113029670D01*
X147385314Y-113319078D01*
X146848961Y-113854495D01*
X146558332Y-114554410D01*
X146557670Y-115312265D01*
X146847078Y-116012686D01*
X147382495Y-116549039D01*
X148082410Y-116839668D01*
X148840265Y-116840330D01*
X148841064Y-116840000D01*
X150213924Y-116840000D01*
X152195358Y-118821435D01*
X152462495Y-119089039D01*
X152813986Y-119234990D01*
X152813987Y-119234991D01*
X152813988Y-119234991D01*
X153162410Y-119379668D01*
X153920265Y-119380330D01*
X154620686Y-119090922D01*
X155157039Y-118555505D01*
X155447668Y-117855590D01*
X155448330Y-117097735D01*
X155158922Y-116397314D01*
X154623505Y-115860961D01*
X154622706Y-115860629D01*
X153286852Y-114524775D01*
X165842803Y-114524775D01*
X166015233Y-114942086D01*
X166334235Y-115261645D01*
X166751244Y-115434803D01*
X167202775Y-115435197D01*
X167603471Y-115269632D01*
X168001244Y-115434803D01*
X168452775Y-115435197D01*
X168853471Y-115269632D01*
X169251244Y-115434803D01*
X169702775Y-115435197D01*
X170103471Y-115269632D01*
X170501244Y-115434803D01*
X170952775Y-115435197D01*
X171353471Y-115269632D01*
X171751244Y-115434803D01*
X172202775Y-115435197D01*
X172620086Y-115262767D01*
X172643313Y-115239580D01*
X172654648Y-115305217D01*
X173082972Y-115448112D01*
X173533375Y-115416217D01*
X173801352Y-115305217D01*
X173838499Y-115090104D01*
X173228000Y-114479605D01*
X173213858Y-114493748D01*
X173112920Y-114392810D01*
X173113000Y-114300000D01*
X173407605Y-114300000D01*
X174018104Y-114910499D01*
X174233217Y-114873352D01*
X174376112Y-114445028D01*
X174344217Y-113994625D01*
X174233217Y-113726648D01*
X174018104Y-113689501D01*
X173407605Y-114300000D01*
X173113000Y-114300000D01*
X173113082Y-114207028D01*
X173213858Y-114106253D01*
X173228000Y-114120395D01*
X173838499Y-113509896D01*
X173801352Y-113294783D01*
X173373028Y-113151888D01*
X172922625Y-113183783D01*
X172654648Y-113294783D01*
X172643384Y-113360012D01*
X172621765Y-113338355D01*
X172204756Y-113165197D01*
X171753225Y-113164803D01*
X171352529Y-113330368D01*
X170954756Y-113165197D01*
X170503225Y-113164803D01*
X170102529Y-113330368D01*
X169704756Y-113165197D01*
X169253225Y-113164803D01*
X168852529Y-113330368D01*
X168454756Y-113165197D01*
X168003225Y-113164803D01*
X167602529Y-113330368D01*
X167204756Y-113165197D01*
X166753225Y-113164803D01*
X166335914Y-113337233D01*
X166016355Y-113656235D01*
X165843197Y-114073244D01*
X165842803Y-114524775D01*
X153286852Y-114524775D01*
X152744576Y-113982500D01*
X153697077Y-113030000D01*
X171323000Y-113030000D01*
X172052012Y-112884991D01*
X172670038Y-112472038D01*
X173940038Y-111202039D01*
X174352991Y-110584012D01*
X174390391Y-110395988D01*
X174498000Y-109855000D01*
X174498000Y-91641654D01*
X174775709Y-92313761D01*
X175525293Y-93064655D01*
X176505173Y-93471536D01*
X177566172Y-93472462D01*
X178546761Y-93067291D01*
X178816000Y-92798521D01*
X178816000Y-116751102D01*
X178550707Y-116485345D01*
X177570827Y-116078464D01*
X176509828Y-116077538D01*
X175529239Y-116482709D01*
X174778345Y-117232293D01*
X174371464Y-118212173D01*
X174370538Y-119273172D01*
X174775709Y-120253761D01*
X175525293Y-121004655D01*
X176505173Y-121411536D01*
X177566172Y-121412462D01*
X178307061Y-121106333D01*
X176313197Y-123100197D01*
X176285334Y-123142211D01*
X176276000Y-123190000D01*
X176276000Y-125603000D01*
X126961898Y-125603000D01*
X127227655Y-125337707D01*
X127634536Y-124357827D01*
X127635162Y-123640255D01*
X137439400Y-123640255D01*
X137439400Y-124009745D01*
X137553474Y-124583234D01*
X137878330Y-125069415D01*
X138364511Y-125394271D01*
X138938000Y-125508345D01*
X139511489Y-125394271D01*
X139997670Y-125069415D01*
X140208000Y-124754634D01*
X140418330Y-125069415D01*
X140904511Y-125394271D01*
X141478000Y-125508345D01*
X142051489Y-125394271D01*
X142537670Y-125069415D01*
X142748000Y-124754634D01*
X142958330Y-125069415D01*
X143444511Y-125394271D01*
X144018000Y-125508345D01*
X144591489Y-125394271D01*
X145077670Y-125069415D01*
X145288000Y-124754634D01*
X145498330Y-125069415D01*
X145984511Y-125394271D01*
X146558000Y-125508345D01*
X147131489Y-125394271D01*
X147617670Y-125069415D01*
X147828000Y-124754634D01*
X148038330Y-125069415D01*
X148524511Y-125394271D01*
X149098000Y-125508345D01*
X149671489Y-125394271D01*
X150157670Y-125069415D01*
X150364461Y-124759931D01*
X150735964Y-125175732D01*
X151263209Y-125429709D01*
X151278974Y-125432358D01*
X151511000Y-125311217D01*
X151511000Y-123952000D01*
X151765000Y-123952000D01*
X151765000Y-125311217D01*
X151997026Y-125432358D01*
X152012791Y-125429709D01*
X152540036Y-125175732D01*
X152908000Y-124763892D01*
X153275964Y-125175732D01*
X153803209Y-125429709D01*
X153818974Y-125432358D01*
X154051000Y-125311217D01*
X154051000Y-123952000D01*
X151765000Y-123952000D01*
X151511000Y-123952000D01*
X151491000Y-123952000D01*
X151491000Y-123698000D01*
X151511000Y-123698000D01*
X151511000Y-122338783D01*
X151765000Y-122338783D01*
X151765000Y-123698000D01*
X154051000Y-123698000D01*
X154051000Y-122338783D01*
X154305000Y-122338783D01*
X154305000Y-123698000D01*
X154325000Y-123698000D01*
X154325000Y-123952000D01*
X154305000Y-123952000D01*
X154305000Y-125311217D01*
X154537026Y-125432358D01*
X154552791Y-125429709D01*
X155080036Y-125175732D01*
X155451539Y-124759931D01*
X155658330Y-125069415D01*
X156144511Y-125394271D01*
X156718000Y-125508345D01*
X157291489Y-125394271D01*
X157777670Y-125069415D01*
X158102526Y-124583234D01*
X158216600Y-124009745D01*
X158216600Y-123640255D01*
X160299400Y-123640255D01*
X160299400Y-124009745D01*
X160413474Y-124583234D01*
X160738330Y-125069415D01*
X161224511Y-125394271D01*
X161798000Y-125508345D01*
X162371489Y-125394271D01*
X162857670Y-125069415D01*
X163068000Y-124754634D01*
X163278330Y-125069415D01*
X163764511Y-125394271D01*
X164338000Y-125508345D01*
X164911489Y-125394271D01*
X165397670Y-125069415D01*
X165608000Y-124754634D01*
X165818330Y-125069415D01*
X166304511Y-125394271D01*
X166878000Y-125508345D01*
X167451489Y-125394271D01*
X167937670Y-125069415D01*
X168148000Y-124754634D01*
X168358330Y-125069415D01*
X168844511Y-125394271D01*
X169418000Y-125508345D01*
X169991489Y-125394271D01*
X170477670Y-125069415D01*
X170688000Y-124754634D01*
X170898330Y-125069415D01*
X171384511Y-125394271D01*
X171958000Y-125508345D01*
X172531489Y-125394271D01*
X173017670Y-125069415D01*
X173228000Y-124754634D01*
X173438330Y-125069415D01*
X173924511Y-125394271D01*
X174498000Y-125508345D01*
X175071489Y-125394271D01*
X175557670Y-125069415D01*
X175882526Y-124583234D01*
X175996600Y-124009745D01*
X175996600Y-123640255D01*
X175882526Y-123066766D01*
X175557670Y-122580585D01*
X175071489Y-122255729D01*
X174498000Y-122141655D01*
X173924511Y-122255729D01*
X173438330Y-122580585D01*
X173228000Y-122895366D01*
X173017670Y-122580585D01*
X172531489Y-122255729D01*
X171958000Y-122141655D01*
X171384511Y-122255729D01*
X170898330Y-122580585D01*
X170688000Y-122895366D01*
X170477670Y-122580585D01*
X169991489Y-122255729D01*
X169418000Y-122141655D01*
X168844511Y-122255729D01*
X168358330Y-122580585D01*
X168148000Y-122895366D01*
X167937670Y-122580585D01*
X167451489Y-122255729D01*
X166878000Y-122141655D01*
X166304511Y-122255729D01*
X165818330Y-122580585D01*
X165608000Y-122895366D01*
X165397670Y-122580585D01*
X164911489Y-122255729D01*
X164338000Y-122141655D01*
X163764511Y-122255729D01*
X163278330Y-122580585D01*
X163068000Y-122895366D01*
X162857670Y-122580585D01*
X162371489Y-122255729D01*
X161798000Y-122141655D01*
X161224511Y-122255729D01*
X160738330Y-122580585D01*
X160413474Y-123066766D01*
X160299400Y-123640255D01*
X158216600Y-123640255D01*
X158102526Y-123066766D01*
X157777670Y-122580585D01*
X157291489Y-122255729D01*
X156718000Y-122141655D01*
X156144511Y-122255729D01*
X155658330Y-122580585D01*
X155451539Y-122890069D01*
X155080036Y-122474268D01*
X154552791Y-122220291D01*
X154537026Y-122217642D01*
X154305000Y-122338783D01*
X154051000Y-122338783D01*
X153818974Y-122217642D01*
X153803209Y-122220291D01*
X153275964Y-122474268D01*
X152908000Y-122886108D01*
X152540036Y-122474268D01*
X152012791Y-122220291D01*
X151997026Y-122217642D01*
X151765000Y-122338783D01*
X151511000Y-122338783D01*
X151278974Y-122217642D01*
X151263209Y-122220291D01*
X150735964Y-122474268D01*
X150364461Y-122890069D01*
X150157670Y-122580585D01*
X149671489Y-122255729D01*
X149098000Y-122141655D01*
X148524511Y-122255729D01*
X148038330Y-122580585D01*
X147828000Y-122895366D01*
X147617670Y-122580585D01*
X147131489Y-122255729D01*
X146558000Y-122141655D01*
X145984511Y-122255729D01*
X145498330Y-122580585D01*
X145288000Y-122895366D01*
X145077670Y-122580585D01*
X144591489Y-122255729D01*
X144018000Y-122141655D01*
X143444511Y-122255729D01*
X142958330Y-122580585D01*
X142748000Y-122895366D01*
X142537670Y-122580585D01*
X142051489Y-122255729D01*
X141478000Y-122141655D01*
X140904511Y-122255729D01*
X140418330Y-122580585D01*
X140208000Y-122895366D01*
X139997670Y-122580585D01*
X139511489Y-122255729D01*
X138938000Y-122141655D01*
X138364511Y-122255729D01*
X137878330Y-122580585D01*
X137553474Y-123066766D01*
X137439400Y-123640255D01*
X127635162Y-123640255D01*
X127635462Y-123296828D01*
X127230291Y-122316239D01*
X126480707Y-121565345D01*
X125500827Y-121158464D01*
X124439828Y-121157538D01*
X123459239Y-121562709D01*
X122708345Y-122312293D01*
X122301464Y-123292173D01*
X122300538Y-124353172D01*
X122705709Y-125333761D01*
X122974479Y-125603000D01*
X111760000Y-125603000D01*
X111760000Y-117202745D01*
X127949861Y-117202745D01*
X128023995Y-117448864D01*
X128561223Y-117641965D01*
X129131454Y-117614778D01*
X129532005Y-117448864D01*
X129606139Y-117202745D01*
X128778000Y-116374605D01*
X127949861Y-117202745D01*
X111760000Y-117202745D01*
X111760000Y-115978223D01*
X127331035Y-115978223D01*
X127358222Y-116548454D01*
X127524136Y-116949005D01*
X127770255Y-117023139D01*
X128598395Y-116195000D01*
X128957605Y-116195000D01*
X129785745Y-117023139D01*
X130031864Y-116949005D01*
X130224965Y-116411777D01*
X130197778Y-115841546D01*
X130031864Y-115440995D01*
X129785745Y-115366861D01*
X128957605Y-116195000D01*
X128598395Y-116195000D01*
X127770255Y-115366861D01*
X127524136Y-115440995D01*
X127331035Y-115978223D01*
X111760000Y-115978223D01*
X111760000Y-115187255D01*
X127949861Y-115187255D01*
X128778000Y-116015395D01*
X129606139Y-115187255D01*
X129532005Y-114941136D01*
X128994777Y-114748035D01*
X128424546Y-114775222D01*
X128023995Y-114941136D01*
X127949861Y-115187255D01*
X111760000Y-115187255D01*
X111760000Y-111595000D01*
X127330560Y-111595000D01*
X127330560Y-113195000D01*
X127374838Y-113430317D01*
X127513910Y-113646441D01*
X127726110Y-113791431D01*
X127978000Y-113842440D01*
X129578000Y-113842440D01*
X129813317Y-113798162D01*
X130029441Y-113659090D01*
X130174431Y-113446890D01*
X130225440Y-113195000D01*
X130225440Y-111595000D01*
X130181162Y-111359683D01*
X130042090Y-111143559D01*
X129829890Y-110998569D01*
X129578000Y-110947560D01*
X127978000Y-110947560D01*
X127742683Y-110991838D01*
X127526559Y-111130910D01*
X127381569Y-111343110D01*
X127330560Y-111595000D01*
X111760000Y-111595000D01*
X111760000Y-104290467D01*
X116822138Y-104290467D01*
X117073375Y-104687169D01*
X118135446Y-105122227D01*
X119283162Y-105117730D01*
X120322625Y-104687169D01*
X120573862Y-104290467D01*
X118698000Y-102414605D01*
X116822138Y-104290467D01*
X111760000Y-104290467D01*
X111760000Y-101672446D01*
X115810773Y-101672446D01*
X115815270Y-102820162D01*
X116245831Y-103859625D01*
X116642533Y-104110862D01*
X118518395Y-102235000D01*
X116642533Y-100359138D01*
X116245831Y-100610375D01*
X115810773Y-101672446D01*
X111760000Y-101672446D01*
X111760000Y-100179533D01*
X116822138Y-100179533D01*
X118698000Y-102055395D01*
X120573862Y-100179533D01*
X120396133Y-99898899D01*
X121185446Y-100222227D01*
X122281157Y-100217934D01*
X122041826Y-100456847D01*
X121563613Y-101608513D01*
X121150169Y-100610375D01*
X120753467Y-100359138D01*
X118877605Y-102235000D01*
X120753467Y-104110862D01*
X121150169Y-103859625D01*
X121562459Y-102853135D01*
X121562457Y-102855854D01*
X122038727Y-104008515D01*
X122919847Y-104891174D01*
X124071674Y-105369454D01*
X125318854Y-105370543D01*
X126471515Y-104894273D01*
X127354174Y-104013153D01*
X127832454Y-102861326D01*
X127833543Y-101614146D01*
X127357273Y-100461485D01*
X126476153Y-99578826D01*
X125324326Y-99100546D01*
X124077146Y-99099457D01*
X123804656Y-99212048D01*
X123803469Y-99210861D01*
X124200169Y-98959625D01*
X124635227Y-97897554D01*
X124630730Y-96749838D01*
X124535528Y-96520000D01*
X132905500Y-96520000D01*
X132922923Y-96607591D01*
X132922838Y-96705167D01*
X132960428Y-96796143D01*
X132978005Y-96884506D01*
X133027621Y-96958761D01*
X133064883Y-97048943D01*
X133134428Y-97118610D01*
X133184481Y-97193519D01*
X136080500Y-100089538D01*
X136080500Y-100330000D01*
X136097923Y-100417591D01*
X136097838Y-100515167D01*
X136135428Y-100606143D01*
X136153005Y-100694506D01*
X136202621Y-100768761D01*
X136239883Y-100858943D01*
X136309428Y-100928610D01*
X136359481Y-101003519D01*
X136433736Y-101053135D01*
X136502673Y-101122192D01*
X136593584Y-101159942D01*
X136668494Y-101209995D01*
X136756083Y-101227418D01*
X136846201Y-101264838D01*
X136944638Y-101264924D01*
X137033000Y-101282500D01*
X137120591Y-101265077D01*
X137218167Y-101265162D01*
X137309143Y-101227572D01*
X137397506Y-101209995D01*
X137471761Y-101160379D01*
X137561943Y-101123117D01*
X137631610Y-101053572D01*
X137706519Y-101003519D01*
X137756135Y-100929264D01*
X137825192Y-100860327D01*
X137862942Y-100769416D01*
X137912995Y-100694506D01*
X137930418Y-100606917D01*
X137967838Y-100516799D01*
X137967924Y-100418362D01*
X137985500Y-100330000D01*
X137985500Y-99695000D01*
X137912995Y-99330494D01*
X137706519Y-99021481D01*
X134531519Y-95846481D01*
X134457264Y-95796865D01*
X134388327Y-95727808D01*
X134297416Y-95690058D01*
X134222506Y-95640005D01*
X134134917Y-95622582D01*
X134044799Y-95585162D01*
X133946362Y-95585076D01*
X133858000Y-95567500D01*
X133770409Y-95584923D01*
X133672833Y-95584838D01*
X133581857Y-95622428D01*
X133493494Y-95640005D01*
X133419239Y-95689621D01*
X133329057Y-95726883D01*
X133259390Y-95796428D01*
X133184481Y-95846481D01*
X133134865Y-95920736D01*
X133065808Y-95989673D01*
X133028058Y-96080584D01*
X132978005Y-96155494D01*
X132960582Y-96243083D01*
X132923162Y-96333201D01*
X132923076Y-96431638D01*
X132905500Y-96520000D01*
X124535528Y-96520000D01*
X124200169Y-95710375D01*
X123803467Y-95459138D01*
X121927605Y-97335000D01*
X121941748Y-97349143D01*
X121762143Y-97528748D01*
X121748000Y-97514605D01*
X119872138Y-99390467D01*
X120049867Y-99671101D01*
X119260554Y-99347773D01*
X118112838Y-99352270D01*
X117073375Y-99782831D01*
X116822138Y-100179533D01*
X111760000Y-100179533D01*
X111760000Y-96772446D01*
X118860773Y-96772446D01*
X118865270Y-97920162D01*
X119295831Y-98959625D01*
X119692533Y-99210862D01*
X121568395Y-97335000D01*
X119692533Y-95459138D01*
X119295831Y-95710375D01*
X118860773Y-96772446D01*
X111760000Y-96772446D01*
X111760000Y-95279533D01*
X119872138Y-95279533D01*
X121748000Y-97155395D01*
X123623862Y-95279533D01*
X123372625Y-94882831D01*
X122310554Y-94447773D01*
X121162838Y-94452270D01*
X120123375Y-94882831D01*
X119872138Y-95279533D01*
X111760000Y-95279533D01*
X111760000Y-73787000D01*
X124244102Y-73787000D01*
X123978345Y-74052293D01*
X123978345Y-74052293D01*
G37*
X123978345Y-74052293D02*
X123571464Y-75032173D01*
X123570538Y-76093172D01*
X123975709Y-77073761D01*
X124725293Y-77824655D01*
X125705173Y-78231536D01*
X126766172Y-78232462D01*
X127746761Y-77827291D01*
X128497655Y-77077707D01*
X128657071Y-76693789D01*
X128734330Y-76809415D01*
X129220511Y-77134271D01*
X129794000Y-77248345D01*
X130367489Y-77134271D01*
X130853670Y-76809415D01*
X131064000Y-76494634D01*
X131274330Y-76809415D01*
X131760511Y-77134271D01*
X132334000Y-77248345D01*
X132907489Y-77134271D01*
X133393670Y-76809415D01*
X133604000Y-76494634D01*
X133814330Y-76809415D01*
X134300511Y-77134271D01*
X134874000Y-77248345D01*
X135447489Y-77134271D01*
X135933670Y-76809415D01*
X136140461Y-76499931D01*
X136511964Y-76915732D01*
X137039209Y-77169709D01*
X137054974Y-77172358D01*
X137287000Y-77051217D01*
X137287000Y-75692000D01*
X137267000Y-75692000D01*
X137267000Y-75438000D01*
X137287000Y-75438000D01*
X137287000Y-74078783D01*
X137541000Y-74078783D01*
X137541000Y-75438000D01*
X137561000Y-75438000D01*
X137561000Y-75692000D01*
X137541000Y-75692000D01*
X137541000Y-77051217D01*
X137773026Y-77172358D01*
X137788791Y-77169709D01*
X138316036Y-76915732D01*
X138687539Y-76499931D01*
X138894330Y-76809415D01*
X139380511Y-77134271D01*
X139954000Y-77248345D01*
X140527489Y-77134271D01*
X141013670Y-76809415D01*
X141224000Y-76494634D01*
X141434330Y-76809415D01*
X141920511Y-77134271D01*
X142494000Y-77248345D01*
X143067489Y-77134271D01*
X143553670Y-76809415D01*
X143764000Y-76494634D01*
X143974330Y-76809415D01*
X144460511Y-77134271D01*
X145034000Y-77248345D01*
X145607489Y-77134271D01*
X146093670Y-76809415D01*
X146304000Y-76494634D01*
X146514330Y-76809415D01*
X147000511Y-77134271D01*
X147574000Y-77248345D01*
X148147489Y-77134271D01*
X148633670Y-76809415D01*
X148844000Y-76494634D01*
X149054330Y-76809415D01*
X149540511Y-77134271D01*
X150114000Y-77248345D01*
X150687489Y-77134271D01*
X151173670Y-76809415D01*
X151384000Y-76494634D01*
X151594330Y-76809415D01*
X152080511Y-77134271D01*
X152654000Y-77248345D01*
X153227489Y-77134271D01*
X153713670Y-76809415D01*
X154038526Y-76323234D01*
X154152600Y-75749745D01*
X154152600Y-75380255D01*
X155219400Y-75380255D01*
X155219400Y-75749745D01*
X155333474Y-76323234D01*
X155658330Y-76809415D01*
X156144511Y-77134271D01*
X156718000Y-77248345D01*
X157291489Y-77134271D01*
X157777670Y-76809415D01*
X157988000Y-76494634D01*
X158198330Y-76809415D01*
X158684511Y-77134271D01*
X159258000Y-77248345D01*
X159831489Y-77134271D01*
X160317670Y-76809415D01*
X160528000Y-76494634D01*
X160738330Y-76809415D01*
X161224511Y-77134271D01*
X161798000Y-77248345D01*
X162371489Y-77134271D01*
X162857670Y-76809415D01*
X163068000Y-76494634D01*
X163278330Y-76809415D01*
X163764511Y-77134271D01*
X164338000Y-77248345D01*
X164911489Y-77134271D01*
X165397670Y-76809415D01*
X165608000Y-76494634D01*
X165818330Y-76809415D01*
X166304511Y-77134271D01*
X166878000Y-77248345D01*
X167451489Y-77134271D01*
X167937670Y-76809415D01*
X168148000Y-76494634D01*
X168358330Y-76809415D01*
X168844511Y-77134271D01*
X169418000Y-77248345D01*
X169991489Y-77134271D01*
X170477670Y-76809415D01*
X170688000Y-76494634D01*
X170898330Y-76809415D01*
X171384511Y-77134271D01*
X171958000Y-77248345D01*
X172531489Y-77134271D01*
X173017670Y-76809415D01*
X173228000Y-76494634D01*
X173438330Y-76809415D01*
X173924511Y-77134271D01*
X174498000Y-77248345D01*
X175071489Y-77134271D01*
X175557670Y-76809415D01*
X175882526Y-76323234D01*
X175996600Y-75749745D01*
X175996600Y-75380255D01*
X175882526Y-74806766D01*
X175557670Y-74320585D01*
X175071489Y-73995729D01*
X174498000Y-73881655D01*
X173924511Y-73995729D01*
X173438330Y-74320585D01*
X173228000Y-74635366D01*
X173017670Y-74320585D01*
X172531489Y-73995729D01*
X171958000Y-73881655D01*
X171384511Y-73995729D01*
X170898330Y-74320585D01*
X170688000Y-74635366D01*
X170477670Y-74320585D01*
X169991489Y-73995729D01*
X169418000Y-73881655D01*
X168844511Y-73995729D01*
X168358330Y-74320585D01*
X168148000Y-74635366D01*
X167937670Y-74320585D01*
X167451489Y-73995729D01*
X166878000Y-73881655D01*
X166304511Y-73995729D01*
X165818330Y-74320585D01*
X165608000Y-74635366D01*
X165397670Y-74320585D01*
X164911489Y-73995729D01*
X164338000Y-73881655D01*
X163764511Y-73995729D01*
X163278330Y-74320585D01*
X163068000Y-74635366D01*
X162857670Y-74320585D01*
X162371489Y-73995729D01*
X161798000Y-73881655D01*
X161224511Y-73995729D01*
X160738330Y-74320585D01*
X160528000Y-74635366D01*
X160317670Y-74320585D01*
X159831489Y-73995729D01*
X159258000Y-73881655D01*
X158684511Y-73995729D01*
X158198330Y-74320585D01*
X157988000Y-74635366D01*
X157777670Y-74320585D01*
X157291489Y-73995729D01*
X156718000Y-73881655D01*
X156144511Y-73995729D01*
X155658330Y-74320585D01*
X155333474Y-74806766D01*
X155219400Y-75380255D01*
X154152600Y-75380255D01*
X154038526Y-74806766D01*
X153713670Y-74320585D01*
X153227489Y-73995729D01*
X152654000Y-73881655D01*
X152080511Y-73995729D01*
X151594330Y-74320585D01*
X151384000Y-74635366D01*
X151173670Y-74320585D01*
X150687489Y-73995729D01*
X150114000Y-73881655D01*
X149540511Y-73995729D01*
X149054330Y-74320585D01*
X148844000Y-74635366D01*
X148633670Y-74320585D01*
X148147489Y-73995729D01*
X147574000Y-73881655D01*
X147000511Y-73995729D01*
X146514330Y-74320585D01*
X146304000Y-74635366D01*
X146093670Y-74320585D01*
X145607489Y-73995729D01*
X145034000Y-73881655D01*
X144460511Y-73995729D01*
X143974330Y-74320585D01*
X143764000Y-74635366D01*
X143553670Y-74320585D01*
X143067489Y-73995729D01*
X142494000Y-73881655D01*
X141920511Y-73995729D01*
X141434330Y-74320585D01*
X141224000Y-74635366D01*
X141013670Y-74320585D01*
X140527489Y-73995729D01*
X139954000Y-73881655D01*
X139380511Y-73995729D01*
X138894330Y-74320585D01*
X138687539Y-74630069D01*
X138316036Y-74214268D01*
X137788791Y-73960291D01*
X137773026Y-73957642D01*
X137541000Y-74078783D01*
X137287000Y-74078783D01*
X137054974Y-73957642D01*
X137039209Y-73960291D01*
X136511964Y-74214268D01*
X136140461Y-74630069D01*
X135933670Y-74320585D01*
X135447489Y-73995729D01*
X134874000Y-73881655D01*
X134300511Y-73995729D01*
X133814330Y-74320585D01*
X133604000Y-74635366D01*
X133393670Y-74320585D01*
X132907489Y-73995729D01*
X132334000Y-73881655D01*
X131760511Y-73995729D01*
X131274330Y-74320585D01*
X131064000Y-74635366D01*
X130853670Y-74320585D01*
X130367489Y-73995729D01*
X129794000Y-73881655D01*
X129220511Y-73995729D01*
X128734330Y-74320585D01*
X128657208Y-74436007D01*
X128500291Y-74056239D01*
X128231521Y-73787000D01*
X175080394Y-73787000D01*
X176276000Y-74982606D01*
X176276000Y-86360000D01*
X176286006Y-86409410D01*
X176313197Y-86449803D01*
X178307929Y-88444535D01*
X177570827Y-88138464D01*
X176509828Y-88137538D01*
X175529239Y-88542709D01*
X175442177Y-88629620D01*
X175622991Y-88359012D01*
X175660391Y-88170988D01*
X175768000Y-87630000D01*
X175768000Y-83185000D01*
X175622991Y-82455988D01*
X175210038Y-81837962D01*
X174592012Y-81425009D01*
X173863000Y-81280000D01*
X173133988Y-81425009D01*
X172515962Y-81837962D01*
X172348102Y-82089181D01*
X171891285Y-81783946D01*
X171323000Y-81670907D01*
X170754715Y-81783946D01*
X170272946Y-82105853D01*
X170053000Y-82435026D01*
X169833054Y-82105853D01*
X169351285Y-81783946D01*
X168783000Y-81670907D01*
X168214715Y-81783946D01*
X167732946Y-82105853D01*
X167411039Y-82587622D01*
X167298000Y-83155907D01*
X167298000Y-83214093D01*
X167411039Y-83782378D01*
X167732946Y-84264147D01*
X168214715Y-84586054D01*
X168783000Y-84699093D01*
X169351285Y-84586054D01*
X169833054Y-84264147D01*
X170053000Y-83934974D01*
X170272946Y-84264147D01*
X170754715Y-84586054D01*
X171323000Y-84699093D01*
X171891285Y-84586054D01*
X171958000Y-84541477D01*
X171958000Y-86840923D01*
X171245962Y-87552962D01*
X170833009Y-88170988D01*
X170688000Y-88900000D01*
X170688000Y-109065923D01*
X170533924Y-109220000D01*
X152908000Y-109220000D01*
X152178988Y-109365009D01*
X151560962Y-109777961D01*
X148309059Y-113029865D01*
X148085735Y-113029670D01*
X147385314Y-113319078D01*
X146848961Y-113854495D01*
X146558332Y-114554410D01*
X146557670Y-115312265D01*
X146847078Y-116012686D01*
X147382495Y-116549039D01*
X148082410Y-116839668D01*
X148840265Y-116840330D01*
X148841064Y-116840000D01*
X150213924Y-116840000D01*
X152195358Y-118821435D01*
X152462495Y-119089039D01*
X152813986Y-119234990D01*
X152813987Y-119234991D01*
X152813988Y-119234991D01*
X153162410Y-119379668D01*
X153920265Y-119380330D01*
X154620686Y-119090922D01*
X155157039Y-118555505D01*
X155447668Y-117855590D01*
X155448330Y-117097735D01*
X155158922Y-116397314D01*
X154623505Y-115860961D01*
X154622706Y-115860629D01*
X153286852Y-114524775D01*
X165842803Y-114524775D01*
X166015233Y-114942086D01*
X166334235Y-115261645D01*
X166751244Y-115434803D01*
X167202775Y-115435197D01*
X167603471Y-115269632D01*
X168001244Y-115434803D01*
X168452775Y-115435197D01*
X168853471Y-115269632D01*
X169251244Y-115434803D01*
X169702775Y-115435197D01*
X170103471Y-115269632D01*
X170501244Y-115434803D01*
X170952775Y-115435197D01*
X171353471Y-115269632D01*
X171751244Y-115434803D01*
X172202775Y-115435197D01*
X172620086Y-115262767D01*
X172643313Y-115239580D01*
X172654648Y-115305217D01*
X173082972Y-115448112D01*
X173533375Y-115416217D01*
X173801352Y-115305217D01*
X173838499Y-115090104D01*
X173228000Y-114479605D01*
X173213858Y-114493748D01*
X173112920Y-114392810D01*
X173113000Y-114300000D01*
X173407605Y-114300000D01*
X174018104Y-114910499D01*
X174233217Y-114873352D01*
X174376112Y-114445028D01*
X174344217Y-113994625D01*
X174233217Y-113726648D01*
X174018104Y-113689501D01*
X173407605Y-114300000D01*
X173113000Y-114300000D01*
X173113082Y-114207028D01*
X173213858Y-114106253D01*
X173228000Y-114120395D01*
X173838499Y-113509896D01*
X173801352Y-113294783D01*
X173373028Y-113151888D01*
X172922625Y-113183783D01*
X172654648Y-113294783D01*
X172643384Y-113360012D01*
X172621765Y-113338355D01*
X172204756Y-113165197D01*
X171753225Y-113164803D01*
X171352529Y-113330368D01*
X170954756Y-113165197D01*
X170503225Y-113164803D01*
X170102529Y-113330368D01*
X169704756Y-113165197D01*
X169253225Y-113164803D01*
X168852529Y-113330368D01*
X168454756Y-113165197D01*
X168003225Y-113164803D01*
X167602529Y-113330368D01*
X167204756Y-113165197D01*
X166753225Y-113164803D01*
X166335914Y-113337233D01*
X166016355Y-113656235D01*
X165843197Y-114073244D01*
X165842803Y-114524775D01*
X153286852Y-114524775D01*
X152744576Y-113982500D01*
X153697077Y-113030000D01*
X171323000Y-113030000D01*
X172052012Y-112884991D01*
X172670038Y-112472038D01*
X173940038Y-111202039D01*
X174352991Y-110584012D01*
X174390391Y-110395988D01*
X174498000Y-109855000D01*
X174498000Y-91641654D01*
X174775709Y-92313761D01*
X175525293Y-93064655D01*
X176505173Y-93471536D01*
X177566172Y-93472462D01*
X178546761Y-93067291D01*
X178816000Y-92798521D01*
X178816000Y-116751102D01*
X178550707Y-116485345D01*
X177570827Y-116078464D01*
X176509828Y-116077538D01*
X175529239Y-116482709D01*
X174778345Y-117232293D01*
X174371464Y-118212173D01*
X174370538Y-119273172D01*
X174775709Y-120253761D01*
X175525293Y-121004655D01*
X176505173Y-121411536D01*
X177566172Y-121412462D01*
X178307061Y-121106333D01*
X176313197Y-123100197D01*
X176285334Y-123142211D01*
X176276000Y-123190000D01*
X176276000Y-125603000D01*
X126961898Y-125603000D01*
X127227655Y-125337707D01*
X127634536Y-124357827D01*
X127635162Y-123640255D01*
X137439400Y-123640255D01*
X137439400Y-124009745D01*
X137553474Y-124583234D01*
X137878330Y-125069415D01*
X138364511Y-125394271D01*
X138938000Y-125508345D01*
X139511489Y-125394271D01*
X139997670Y-125069415D01*
X140208000Y-124754634D01*
X140418330Y-125069415D01*
X140904511Y-125394271D01*
X141478000Y-125508345D01*
X142051489Y-125394271D01*
X142537670Y-125069415D01*
X142748000Y-124754634D01*
X142958330Y-125069415D01*
X143444511Y-125394271D01*
X144018000Y-125508345D01*
X144591489Y-125394271D01*
X145077670Y-125069415D01*
X145288000Y-124754634D01*
X145498330Y-125069415D01*
X145984511Y-125394271D01*
X146558000Y-125508345D01*
X147131489Y-125394271D01*
X147617670Y-125069415D01*
X147828000Y-124754634D01*
X148038330Y-125069415D01*
X148524511Y-125394271D01*
X149098000Y-125508345D01*
X149671489Y-125394271D01*
X150157670Y-125069415D01*
X150364461Y-124759931D01*
X150735964Y-125175732D01*
X151263209Y-125429709D01*
X151278974Y-125432358D01*
X151511000Y-125311217D01*
X151511000Y-123952000D01*
X151765000Y-123952000D01*
X151765000Y-125311217D01*
X151997026Y-125432358D01*
X152012791Y-125429709D01*
X152540036Y-125175732D01*
X152908000Y-124763892D01*
X153275964Y-125175732D01*
X153803209Y-125429709D01*
X153818974Y-125432358D01*
X154051000Y-125311217D01*
X154051000Y-123952000D01*
X151765000Y-123952000D01*
X151511000Y-123952000D01*
X151491000Y-123952000D01*
X151491000Y-123698000D01*
X151511000Y-123698000D01*
X151511000Y-122338783D01*
X151765000Y-122338783D01*
X151765000Y-123698000D01*
X154051000Y-123698000D01*
X154051000Y-122338783D01*
X154305000Y-122338783D01*
X154305000Y-123698000D01*
X154325000Y-123698000D01*
X154325000Y-123952000D01*
X154305000Y-123952000D01*
X154305000Y-125311217D01*
X154537026Y-125432358D01*
X154552791Y-125429709D01*
X155080036Y-125175732D01*
X155451539Y-124759931D01*
X155658330Y-125069415D01*
X156144511Y-125394271D01*
X156718000Y-125508345D01*
X157291489Y-125394271D01*
X157777670Y-125069415D01*
X158102526Y-124583234D01*
X158216600Y-124009745D01*
X158216600Y-123640255D01*
X160299400Y-123640255D01*
X160299400Y-124009745D01*
X160413474Y-124583234D01*
X160738330Y-125069415D01*
X161224511Y-125394271D01*
X161798000Y-125508345D01*
X162371489Y-125394271D01*
X162857670Y-125069415D01*
X163068000Y-124754634D01*
X163278330Y-125069415D01*
X163764511Y-125394271D01*
X164338000Y-125508345D01*
X164911489Y-125394271D01*
X165397670Y-125069415D01*
X165608000Y-124754634D01*
X165818330Y-125069415D01*
X166304511Y-125394271D01*
X166878000Y-125508345D01*
X167451489Y-125394271D01*
X167937670Y-125069415D01*
X168148000Y-124754634D01*
X168358330Y-125069415D01*
X168844511Y-125394271D01*
X169418000Y-125508345D01*
X169991489Y-125394271D01*
X170477670Y-125069415D01*
X170688000Y-124754634D01*
X170898330Y-125069415D01*
X171384511Y-125394271D01*
X171958000Y-125508345D01*
X172531489Y-125394271D01*
X173017670Y-125069415D01*
X173228000Y-124754634D01*
X173438330Y-125069415D01*
X173924511Y-125394271D01*
X174498000Y-125508345D01*
X175071489Y-125394271D01*
X175557670Y-125069415D01*
X175882526Y-124583234D01*
X175996600Y-124009745D01*
X175996600Y-123640255D01*
X175882526Y-123066766D01*
X175557670Y-122580585D01*
X175071489Y-122255729D01*
X174498000Y-122141655D01*
X173924511Y-122255729D01*
X173438330Y-122580585D01*
X173228000Y-122895366D01*
X173017670Y-122580585D01*
X172531489Y-122255729D01*
X171958000Y-122141655D01*
X171384511Y-122255729D01*
X170898330Y-122580585D01*
X170688000Y-122895366D01*
X170477670Y-122580585D01*
X169991489Y-122255729D01*
X169418000Y-122141655D01*
X168844511Y-122255729D01*
X168358330Y-122580585D01*
X168148000Y-122895366D01*
X167937670Y-122580585D01*
X167451489Y-122255729D01*
X166878000Y-122141655D01*
X166304511Y-122255729D01*
X165818330Y-122580585D01*
X165608000Y-122895366D01*
X165397670Y-122580585D01*
X164911489Y-122255729D01*
X164338000Y-122141655D01*
X163764511Y-122255729D01*
X163278330Y-122580585D01*
X163068000Y-122895366D01*
X162857670Y-122580585D01*
X162371489Y-122255729D01*
X161798000Y-122141655D01*
X161224511Y-122255729D01*
X160738330Y-122580585D01*
X160413474Y-123066766D01*
X160299400Y-123640255D01*
X158216600Y-123640255D01*
X158102526Y-123066766D01*
X157777670Y-122580585D01*
X157291489Y-122255729D01*
X156718000Y-122141655D01*
X156144511Y-122255729D01*
X155658330Y-122580585D01*
X155451539Y-122890069D01*
X155080036Y-122474268D01*
X154552791Y-122220291D01*
X154537026Y-122217642D01*
X154305000Y-122338783D01*
X154051000Y-122338783D01*
X153818974Y-122217642D01*
X153803209Y-122220291D01*
X153275964Y-122474268D01*
X152908000Y-122886108D01*
X152540036Y-122474268D01*
X152012791Y-122220291D01*
X151997026Y-122217642D01*
X151765000Y-122338783D01*
X151511000Y-122338783D01*
X151278974Y-122217642D01*
X151263209Y-122220291D01*
X150735964Y-122474268D01*
X150364461Y-122890069D01*
X150157670Y-122580585D01*
X149671489Y-122255729D01*
X149098000Y-122141655D01*
X148524511Y-122255729D01*
X148038330Y-122580585D01*
X147828000Y-122895366D01*
X147617670Y-122580585D01*
X147131489Y-122255729D01*
X146558000Y-122141655D01*
X145984511Y-122255729D01*
X145498330Y-122580585D01*
X145288000Y-122895366D01*
X145077670Y-122580585D01*
X144591489Y-122255729D01*
X144018000Y-122141655D01*
X143444511Y-122255729D01*
X142958330Y-122580585D01*
X142748000Y-122895366D01*
X142537670Y-122580585D01*
X142051489Y-122255729D01*
X141478000Y-122141655D01*
X140904511Y-122255729D01*
X140418330Y-122580585D01*
X140208000Y-122895366D01*
X139997670Y-122580585D01*
X139511489Y-122255729D01*
X138938000Y-122141655D01*
X138364511Y-122255729D01*
X137878330Y-122580585D01*
X137553474Y-123066766D01*
X137439400Y-123640255D01*
X127635162Y-123640255D01*
X127635462Y-123296828D01*
X127230291Y-122316239D01*
X126480707Y-121565345D01*
X125500827Y-121158464D01*
X124439828Y-121157538D01*
X123459239Y-121562709D01*
X122708345Y-122312293D01*
X122301464Y-123292173D01*
X122300538Y-124353172D01*
X122705709Y-125333761D01*
X122974479Y-125603000D01*
X111760000Y-125603000D01*
X111760000Y-117202745D01*
X127949861Y-117202745D01*
X128023995Y-117448864D01*
X128561223Y-117641965D01*
X129131454Y-117614778D01*
X129532005Y-117448864D01*
X129606139Y-117202745D01*
X128778000Y-116374605D01*
X127949861Y-117202745D01*
X111760000Y-117202745D01*
X111760000Y-115978223D01*
X127331035Y-115978223D01*
X127358222Y-116548454D01*
X127524136Y-116949005D01*
X127770255Y-117023139D01*
X128598395Y-116195000D01*
X128957605Y-116195000D01*
X129785745Y-117023139D01*
X130031864Y-116949005D01*
X130224965Y-116411777D01*
X130197778Y-115841546D01*
X130031864Y-115440995D01*
X129785745Y-115366861D01*
X128957605Y-116195000D01*
X128598395Y-116195000D01*
X127770255Y-115366861D01*
X127524136Y-115440995D01*
X127331035Y-115978223D01*
X111760000Y-115978223D01*
X111760000Y-115187255D01*
X127949861Y-115187255D01*
X128778000Y-116015395D01*
X129606139Y-115187255D01*
X129532005Y-114941136D01*
X128994777Y-114748035D01*
X128424546Y-114775222D01*
X128023995Y-114941136D01*
X127949861Y-115187255D01*
X111760000Y-115187255D01*
X111760000Y-111595000D01*
X127330560Y-111595000D01*
X127330560Y-113195000D01*
X127374838Y-113430317D01*
X127513910Y-113646441D01*
X127726110Y-113791431D01*
X127978000Y-113842440D01*
X129578000Y-113842440D01*
X129813317Y-113798162D01*
X130029441Y-113659090D01*
X130174431Y-113446890D01*
X130225440Y-113195000D01*
X130225440Y-111595000D01*
X130181162Y-111359683D01*
X130042090Y-111143559D01*
X129829890Y-110998569D01*
X129578000Y-110947560D01*
X127978000Y-110947560D01*
X127742683Y-110991838D01*
X127526559Y-111130910D01*
X127381569Y-111343110D01*
X127330560Y-111595000D01*
X111760000Y-111595000D01*
X111760000Y-104290467D01*
X116822138Y-104290467D01*
X117073375Y-104687169D01*
X118135446Y-105122227D01*
X119283162Y-105117730D01*
X120322625Y-104687169D01*
X120573862Y-104290467D01*
X118698000Y-102414605D01*
X116822138Y-104290467D01*
X111760000Y-104290467D01*
X111760000Y-101672446D01*
X115810773Y-101672446D01*
X115815270Y-102820162D01*
X116245831Y-103859625D01*
X116642533Y-104110862D01*
X118518395Y-102235000D01*
X116642533Y-100359138D01*
X116245831Y-100610375D01*
X115810773Y-101672446D01*
X111760000Y-101672446D01*
X111760000Y-100179533D01*
X116822138Y-100179533D01*
X118698000Y-102055395D01*
X120573862Y-100179533D01*
X120396133Y-99898899D01*
X121185446Y-100222227D01*
X122281157Y-100217934D01*
X122041826Y-100456847D01*
X121563613Y-101608513D01*
X121150169Y-100610375D01*
X120753467Y-100359138D01*
X118877605Y-102235000D01*
X120753467Y-104110862D01*
X121150169Y-103859625D01*
X121562459Y-102853135D01*
X121562457Y-102855854D01*
X122038727Y-104008515D01*
X122919847Y-104891174D01*
X124071674Y-105369454D01*
X125318854Y-105370543D01*
X126471515Y-104894273D01*
X127354174Y-104013153D01*
X127832454Y-102861326D01*
X127833543Y-101614146D01*
X127357273Y-100461485D01*
X126476153Y-99578826D01*
X125324326Y-99100546D01*
X124077146Y-99099457D01*
X123804656Y-99212048D01*
X123803469Y-99210861D01*
X124200169Y-98959625D01*
X124635227Y-97897554D01*
X124630730Y-96749838D01*
X124535528Y-96520000D01*
X132905500Y-96520000D01*
X132922923Y-96607591D01*
X132922838Y-96705167D01*
X132960428Y-96796143D01*
X132978005Y-96884506D01*
X133027621Y-96958761D01*
X133064883Y-97048943D01*
X133134428Y-97118610D01*
X133184481Y-97193519D01*
X136080500Y-100089538D01*
X136080500Y-100330000D01*
X136097923Y-100417591D01*
X136097838Y-100515167D01*
X136135428Y-100606143D01*
X136153005Y-100694506D01*
X136202621Y-100768761D01*
X136239883Y-100858943D01*
X136309428Y-100928610D01*
X136359481Y-101003519D01*
X136433736Y-101053135D01*
X136502673Y-101122192D01*
X136593584Y-101159942D01*
X136668494Y-101209995D01*
X136756083Y-101227418D01*
X136846201Y-101264838D01*
X136944638Y-101264924D01*
X137033000Y-101282500D01*
X137120591Y-101265077D01*
X137218167Y-101265162D01*
X137309143Y-101227572D01*
X137397506Y-101209995D01*
X137471761Y-101160379D01*
X137561943Y-101123117D01*
X137631610Y-101053572D01*
X137706519Y-101003519D01*
X137756135Y-100929264D01*
X137825192Y-100860327D01*
X137862942Y-100769416D01*
X137912995Y-100694506D01*
X137930418Y-100606917D01*
X137967838Y-100516799D01*
X137967924Y-100418362D01*
X137985500Y-100330000D01*
X137985500Y-99695000D01*
X137912995Y-99330494D01*
X137706519Y-99021481D01*
X134531519Y-95846481D01*
X134457264Y-95796865D01*
X134388327Y-95727808D01*
X134297416Y-95690058D01*
X134222506Y-95640005D01*
X134134917Y-95622582D01*
X134044799Y-95585162D01*
X133946362Y-95585076D01*
X133858000Y-95567500D01*
X133770409Y-95584923D01*
X133672833Y-95584838D01*
X133581857Y-95622428D01*
X133493494Y-95640005D01*
X133419239Y-95689621D01*
X133329057Y-95726883D01*
X133259390Y-95796428D01*
X133184481Y-95846481D01*
X133134865Y-95920736D01*
X133065808Y-95989673D01*
X133028058Y-96080584D01*
X132978005Y-96155494D01*
X132960582Y-96243083D01*
X132923162Y-96333201D01*
X132923076Y-96431638D01*
X132905500Y-96520000D01*
X124535528Y-96520000D01*
X124200169Y-95710375D01*
X123803467Y-95459138D01*
X121927605Y-97335000D01*
X121941748Y-97349143D01*
X121762143Y-97528748D01*
X121748000Y-97514605D01*
X119872138Y-99390467D01*
X120049867Y-99671101D01*
X119260554Y-99347773D01*
X118112838Y-99352270D01*
X117073375Y-99782831D01*
X116822138Y-100179533D01*
X111760000Y-100179533D01*
X111760000Y-96772446D01*
X118860773Y-96772446D01*
X118865270Y-97920162D01*
X119295831Y-98959625D01*
X119692533Y-99210862D01*
X121568395Y-97335000D01*
X119692533Y-95459138D01*
X119295831Y-95710375D01*
X118860773Y-96772446D01*
X111760000Y-96772446D01*
X111760000Y-95279533D01*
X119872138Y-95279533D01*
X121748000Y-97155395D01*
X123623862Y-95279533D01*
X123372625Y-94882831D01*
X122310554Y-94447773D01*
X121162838Y-94452270D01*
X120123375Y-94882831D01*
X119872138Y-95279533D01*
X111760000Y-95279533D01*
X111760000Y-73787000D01*
X124244102Y-73787000D01*
X123978345Y-74052293D01*
M02*
