G04 #@! TF.FileFunction,Soldermask,Bot*
%FSLAX46Y46*%
G04 Gerber Fmt 4.6, Leading zero omitted, Abs format (unit mm)*
G04 Created by KiCad (PCBNEW 4.0.6+dfsg1-1) date Mon Oct 16 00:40:44 2017*
%MOMM*%
%LPD*%
G01*
G04 APERTURE LIST*
%ADD10C,0.100000*%
%ADD11C,0.150000*%
%ADD12O,1.930400X2.235200*%
%ADD13C,4.267200*%
%ADD14R,1.803200X1.803200*%
%ADD15C,1.803200*%
%ADD16C,5.203200*%
%ADD17C,4.703200*%
%ADD18R,1.903200X1.903200*%
%ADD19O,1.903200X1.903200*%
%ADD20C,1.203200*%
G04 APERTURE END LIST*
D10*
D11*
X177038000Y-74549000D02*
X175514000Y-73025000D01*
X177038000Y-85979000D02*
X177038000Y-74549000D01*
X179578000Y-88519000D02*
X177038000Y-85979000D01*
X179578000Y-121285000D02*
X179578000Y-88519000D01*
X177038000Y-123825000D02*
X179578000Y-121285000D01*
X177038000Y-126365000D02*
X177038000Y-123825000D01*
X110998000Y-126365000D02*
X177038000Y-126365000D01*
X110998000Y-73025000D02*
X110998000Y-126365000D01*
X175514000Y-73025000D02*
X110998000Y-73025000D01*
D12*
X138938000Y-123825000D03*
X141478000Y-123825000D03*
X144018000Y-123825000D03*
X146558000Y-123825000D03*
X149098000Y-123825000D03*
X151638000Y-123825000D03*
X154178000Y-123825000D03*
X156718000Y-123825000D03*
X161798000Y-123825000D03*
X164338000Y-123825000D03*
X166878000Y-123825000D03*
X169418000Y-123825000D03*
X171958000Y-123825000D03*
X174498000Y-123825000D03*
X129794000Y-75565000D03*
X132334000Y-75565000D03*
X134874000Y-75565000D03*
X137414000Y-75565000D03*
X139954000Y-75565000D03*
X142494000Y-75565000D03*
X145034000Y-75565000D03*
X147574000Y-75565000D03*
X150114000Y-75565000D03*
X152654000Y-75565000D03*
X156718000Y-75565000D03*
X159258000Y-75565000D03*
X161798000Y-75565000D03*
X164338000Y-75565000D03*
X166878000Y-75565000D03*
X169418000Y-75565000D03*
X171958000Y-75565000D03*
X174498000Y-75565000D03*
D13*
X124968000Y-123825000D03*
X177038000Y-118745000D03*
X126238000Y-75565000D03*
X177038000Y-90805000D03*
D14*
X128778000Y-112395000D03*
D15*
X128778000Y-116195000D03*
D16*
X124698000Y-102235000D03*
D17*
X121748000Y-97335000D03*
X118698000Y-102235000D03*
D18*
X173863000Y-83185000D03*
D19*
X171323000Y-83185000D03*
X168783000Y-83185000D03*
D20*
X173228000Y-114300000D03*
X171978000Y-114300000D03*
X170728000Y-114300000D03*
X169478000Y-114300000D03*
X168228000Y-114300000D03*
X166978000Y-114300000D03*
M02*
