G04 #@! TF.FileFunction,Legend,Bot*
%FSLAX46Y46*%
G04 Gerber Fmt 4.6, Leading zero omitted, Abs format (unit mm)*
G04 Created by KiCad (PCBNEW 4.0.6+dfsg1-1) date Mon Oct 16 00:40:44 2017*
%MOMM*%
%LPD*%
G01*
G04 APERTURE LIST*
%ADD10C,0.100000*%
%ADD11C,0.150000*%
G04 APERTURE END LIST*
D10*
D11*
X177038000Y-74549000D02*
X175514000Y-73025000D01*
X177038000Y-85979000D02*
X177038000Y-74549000D01*
X179578000Y-88519000D02*
X177038000Y-85979000D01*
X179578000Y-121285000D02*
X179578000Y-88519000D01*
X177038000Y-123825000D02*
X179578000Y-121285000D01*
X177038000Y-126365000D02*
X177038000Y-123825000D01*
X110998000Y-126365000D02*
X177038000Y-126365000D01*
X110998000Y-73025000D02*
X110998000Y-126365000D01*
X175514000Y-73025000D02*
X110998000Y-73025000D01*
X110998000Y-102235000D02*
X110998000Y-107235000D01*
X110998000Y-107235000D02*
X124998000Y-107235000D01*
X124998000Y-107235000D02*
X124998000Y-104985000D01*
X124248000Y-97235000D02*
X124998000Y-97235000D01*
X124998000Y-97235000D02*
X124998000Y-99485000D01*
X110998000Y-102235000D02*
X110998000Y-97235000D01*
X110998000Y-97235000D02*
X119248000Y-97235000D01*
X113581333Y-107437381D02*
X113581333Y-108151667D01*
X113628953Y-108294524D01*
X113724191Y-108389762D01*
X113867048Y-108437381D01*
X113962286Y-108437381D01*
X112581333Y-108437381D02*
X113152762Y-108437381D01*
X112867048Y-108437381D02*
X112867048Y-107437381D01*
X112962286Y-107580238D01*
X113057524Y-107675476D01*
X113152762Y-107723095D01*
M02*
