G04 #@! TF.FileFunction,Copper,L1,Top,Signal*
%FSLAX46Y46*%
G04 Gerber Fmt 4.6, Leading zero omitted, Abs format (unit mm)*
G04 Created by KiCad (PCBNEW 4.0.6+dfsg1-1) date Mon Oct 16 00:40:44 2017*
%MOMM*%
%LPD*%
G01*
G04 APERTURE LIST*
%ADD10C,0.100000*%
%ADD11C,0.150000*%
%ADD12O,1.727200X2.032000*%
%ADD13C,4.064000*%
%ADD14R,1.250000X1.000000*%
%ADD15R,1.600000X1.600000*%
%ADD16C,1.600000*%
%ADD17R,2.030000X2.650000*%
%ADD18C,5.000000*%
%ADD19C,4.500000*%
%ADD20R,1.700000X1.700000*%
%ADD21O,1.700000X1.700000*%
%ADD22C,1.000000*%
%ADD23R,1.100000X4.600000*%
%ADD24R,10.800000X9.400000*%
%ADD25R,5.250000X4.550000*%
%ADD26R,0.700000X1.300000*%
%ADD27R,0.508000X1.143000*%
%ADD28C,0.600000*%
%ADD29C,2.540000*%
%ADD30C,0.635000*%
%ADD31C,1.270000*%
%ADD32C,2.540000*%
%ADD33C,1.905000*%
G04 APERTURE END LIST*
D10*
D11*
X177038000Y-74549000D02*
X175514000Y-73025000D01*
X177038000Y-85979000D02*
X177038000Y-74549000D01*
X179578000Y-88519000D02*
X177038000Y-85979000D01*
X179578000Y-121285000D02*
X179578000Y-88519000D01*
X177038000Y-123825000D02*
X179578000Y-121285000D01*
X177038000Y-126365000D02*
X177038000Y-123825000D01*
X110998000Y-126365000D02*
X177038000Y-126365000D01*
X110998000Y-73025000D02*
X110998000Y-126365000D01*
X175514000Y-73025000D02*
X110998000Y-73025000D01*
D12*
X138938000Y-123825000D03*
X141478000Y-123825000D03*
X144018000Y-123825000D03*
X146558000Y-123825000D03*
X149098000Y-123825000D03*
X151638000Y-123825000D03*
X154178000Y-123825000D03*
X156718000Y-123825000D03*
X161798000Y-123825000D03*
X164338000Y-123825000D03*
X166878000Y-123825000D03*
X169418000Y-123825000D03*
X171958000Y-123825000D03*
X174498000Y-123825000D03*
X129794000Y-75565000D03*
X132334000Y-75565000D03*
X134874000Y-75565000D03*
X137414000Y-75565000D03*
X139954000Y-75565000D03*
X142494000Y-75565000D03*
X145034000Y-75565000D03*
X147574000Y-75565000D03*
X150114000Y-75565000D03*
X152654000Y-75565000D03*
X156718000Y-75565000D03*
X159258000Y-75565000D03*
X161798000Y-75565000D03*
X164338000Y-75565000D03*
X166878000Y-75565000D03*
X169418000Y-75565000D03*
X171958000Y-75565000D03*
X174498000Y-75565000D03*
D13*
X124968000Y-123825000D03*
X177038000Y-118745000D03*
X126238000Y-75565000D03*
X177038000Y-90805000D03*
D14*
X131953000Y-92440000D03*
X131953000Y-90440000D03*
X128778000Y-92440000D03*
X128778000Y-90440000D03*
D15*
X128778000Y-112395000D03*
D16*
X128778000Y-116195000D03*
D17*
X131318000Y-105595000D03*
X131318000Y-101415000D03*
D18*
X124698000Y-102235000D03*
D19*
X121748000Y-97335000D03*
X118698000Y-102235000D03*
D20*
X173863000Y-83185000D03*
D21*
X171323000Y-83185000D03*
X168783000Y-83185000D03*
D22*
X173228000Y-114300000D03*
X171978000Y-114300000D03*
X170728000Y-114300000D03*
X169478000Y-114300000D03*
X168228000Y-114300000D03*
X166978000Y-114300000D03*
D23*
X146558000Y-101660000D03*
X149098000Y-101660000D03*
X151638000Y-101660000D03*
D24*
X149098000Y-92510000D03*
D25*
X151873000Y-90085000D03*
X146323000Y-94935000D03*
X146323000Y-90085000D03*
X151873000Y-94935000D03*
D23*
X160528000Y-101660000D03*
X163068000Y-101660000D03*
X165608000Y-101660000D03*
D24*
X163068000Y-92510000D03*
D25*
X165843000Y-90085000D03*
X160293000Y-94935000D03*
X160293000Y-90085000D03*
X165843000Y-94935000D03*
D26*
X139253000Y-84455000D03*
X137353000Y-84455000D03*
X135443000Y-84455000D03*
X133543000Y-84455000D03*
D27*
X139573000Y-94615000D03*
X138303000Y-94615000D03*
X137033000Y-94615000D03*
X135763000Y-94615000D03*
X135763000Y-88265000D03*
X137033000Y-88265000D03*
X138303000Y-88265000D03*
X139573000Y-88265000D03*
D28*
X134493000Y-90170000D03*
D29*
X151638000Y-106045000D03*
X165608000Y-106045000D03*
X153543000Y-117475000D03*
X148463000Y-114935000D03*
D28*
X137033000Y-100330000D03*
X133858000Y-96520000D03*
D30*
X149098000Y-123825000D02*
X149098000Y-118110000D01*
X152908000Y-114300000D02*
X166978000Y-114300000D01*
X149098000Y-118110000D02*
X152908000Y-114300000D01*
X133543000Y-84455000D02*
X133543000Y-89220000D01*
X133543000Y-89220000D02*
X134493000Y-90170000D01*
X137033000Y-88265000D02*
X137033000Y-84775000D01*
X137033000Y-84775000D02*
X137353000Y-84455000D01*
D31*
X134493000Y-90170000D02*
X136398000Y-90170000D01*
X134223000Y-90440000D02*
X134493000Y-90170000D01*
X131953000Y-90440000D02*
X134223000Y-90440000D01*
X137033000Y-89535000D02*
X137033000Y-88265000D01*
X136398000Y-90170000D02*
X137033000Y-89535000D01*
X128778000Y-90440000D02*
X131953000Y-90440000D01*
X151638000Y-101660000D02*
X151638000Y-106045000D01*
X165608000Y-101660000D02*
X165608000Y-106045000D01*
D30*
X168228000Y-114300000D02*
X168228000Y-116125000D01*
X161798000Y-122555000D02*
X161798000Y-123825000D01*
X168228000Y-116125000D02*
X161798000Y-122555000D01*
X169478000Y-114300000D02*
X169478000Y-117415000D01*
X164338000Y-122555000D02*
X164338000Y-123825000D01*
X169478000Y-117415000D02*
X164338000Y-122555000D01*
X170728000Y-114300000D02*
X170728000Y-118070000D01*
X166878000Y-121920000D02*
X166878000Y-123825000D01*
X170728000Y-118070000D02*
X166878000Y-121920000D01*
X171978000Y-114300000D02*
X171978000Y-118885000D01*
X169418000Y-121445000D02*
X169418000Y-123825000D01*
X171978000Y-118885000D02*
X169418000Y-121445000D01*
X138303000Y-88265000D02*
X138303000Y-86995000D01*
X139253000Y-86045000D02*
X139253000Y-84455000D01*
X138303000Y-86995000D02*
X139253000Y-86045000D01*
X139253000Y-84455000D02*
X144018000Y-84455000D01*
X150114000Y-78359000D02*
X150114000Y-75565000D01*
X144018000Y-84455000D02*
X150114000Y-78359000D01*
X147574000Y-75565000D02*
X147574000Y-79289000D01*
X135443000Y-83420000D02*
X135443000Y-84455000D01*
X135998000Y-82865000D02*
X135443000Y-83420000D01*
X143998000Y-82865000D02*
X135998000Y-82865000D01*
X147574000Y-79289000D02*
X143998000Y-82865000D01*
X135763000Y-88265000D02*
X135763000Y-84775000D01*
X135763000Y-84775000D02*
X135443000Y-84455000D01*
D32*
X156718000Y-120650000D02*
X156718000Y-123825000D01*
X153543000Y-117475000D02*
X156718000Y-120650000D01*
D31*
X131953000Y-92440000D02*
X128778000Y-92440000D01*
X137033000Y-94615000D02*
X137033000Y-92710000D01*
X136763000Y-92440000D02*
X131953000Y-92440000D01*
X137033000Y-92710000D02*
X136763000Y-92440000D01*
X131318000Y-105595000D02*
X133038000Y-105595000D01*
X137033000Y-96520000D02*
X137033000Y-94615000D01*
X134493000Y-99060000D02*
X137033000Y-96520000D01*
X134493000Y-104140000D02*
X134493000Y-99060000D01*
X133038000Y-105595000D02*
X134493000Y-104140000D01*
D32*
X128778000Y-112395000D02*
X145923000Y-112395000D01*
X145923000Y-112395000D02*
X148463000Y-114935000D01*
X131318000Y-105595000D02*
X131318000Y-109855000D01*
X131318000Y-109855000D02*
X128778000Y-112395000D01*
D31*
X128778000Y-112395000D02*
X128778000Y-111760000D01*
D32*
X131318000Y-101415000D02*
X125518000Y-101415000D01*
X125518000Y-101415000D02*
X124698000Y-102235000D01*
D31*
X125518000Y-101415000D02*
X124698000Y-102235000D01*
D33*
X171323000Y-83185000D02*
X171323000Y-86040000D01*
X171323000Y-86040000D02*
X164853000Y-92510000D01*
X164853000Y-92510000D02*
X163068000Y-92510000D01*
D32*
X164353000Y-92510000D02*
X163068000Y-92510000D01*
D33*
X163068000Y-101660000D02*
X163068000Y-92510000D01*
X168783000Y-83185000D02*
X158423000Y-83185000D01*
X158423000Y-83185000D02*
X149098000Y-92510000D01*
X149098000Y-101660000D02*
X149098000Y-92510000D01*
X149098000Y-88900000D02*
X149098000Y-92510000D01*
D30*
X138303000Y-94615000D02*
X138303000Y-98425000D01*
X146558000Y-104140000D02*
X146558000Y-101660000D01*
X145923000Y-104775000D02*
X146558000Y-104140000D01*
X144653000Y-104775000D02*
X145923000Y-104775000D01*
X138303000Y-98425000D02*
X144653000Y-104775000D01*
X135763000Y-94615000D02*
X133858000Y-96520000D01*
X160528000Y-106045000D02*
X160528000Y-101660000D01*
X157988000Y-108585000D02*
X160528000Y-106045000D01*
X145288000Y-108585000D02*
X157988000Y-108585000D01*
X137033000Y-100330000D02*
X145288000Y-108585000D01*
M02*
