999
dxfrw 0.5.10
0
SECTION
2
HEADER
9
$ACADVER
1
AC1021
9
$HANDSEED
5
20000
9
$DWGCODEPAGE
3
ANSI_1252
9
$INSBASE
10
0
20
0
30
0
9
$EXTMIN
10
110.923
20
-126.44
30
0
9
$EXTMAX
10
179.653
20
-72.95
30
0
9
$LIMMIN
10
0
20
0
9
$LIMMAX
10
420
20
297
9
$ORTHOMODE
70
0
9
$LTSCALE
40
1
9
$TEXTSTYLE
7
STANDARD
9
$CLAYER
8
0
9
$DIMASZ
40
2.5
9
$DIMLFAC
40
1
9
$DIMSCALE
40
1
9
$DIMEXO
40
0.625
9
$DIMEXE
40
1.25
9
$DIMTXT
40
2.5
9
$DIMTSZ
40
0
9
$DIMAUNIT
70
0
9
$DIMADEC
70
0
9
$DIMLUNIT
70
2
9
$DIMSTYLE
2
Standard
9
$DIMGAP
40
0.625
9
$DIMTIH
70
0
9
$LUNITS
70
2
9
$LUPREC
70
4
9
$AUNITS
70
0
9
$AUPREC
70
2
9
$SPLINESEGS
70
8
9
$SNAPSTYLE
70
0
9
$PINSBASE
10
0
20
0
30
0
9
$PLIMMIN
10
0
20
0
9
$PLIMMAX
10
210
20
297
9
$INSUNITS
70
4
9
$PSVPSCALE
40
1
0
ENDSEC
0
SECTION
2
CLASSES
0
ENDSEC
0
SECTION
2
TABLES
0
TABLE
2
VPORT
5
8
330
0
100
AcDbSymbolTable
70
1
0
VPORT
5
31
330
2
100
AcDbSymbolTableRecord
100
AcDbViewportTableRecord
2
*ACTIVE
70
0
10
0
20
0
11
1
21
1
12
82.41152
22
-30.834688
13
0
23
0
14
10
24
10
15
10
25
10
16
0
26
0
36
1
17
0
27
0
37
0
40
54.329344
41
0.896260554885
42
50
43
0
44
0
50
0
51
0
71
0
72
100
73
1
74
3
75
0
76
1
77
0
78
0
281
0
65
1
110
0
120
0
130
0
111
1
121
0
131
0
112
0
122
1
132
0
79
0
146
0
348
10020
60
7
61
5
292
1
282
1
141
0
142
0
63
250
421
3358443
0
ENDTAB
0
TABLE
2
LTYPE
5
5
330
0
100
AcDbSymbolTable
70
4
0
LTYPE
5
14
330
5
100
AcDbSymbolTableRecord
100
AcDbLinetypeTableRecord
2
ByBlock
70
0
3

72
65
73
0
40
0
0
LTYPE
5
15
330
5
100
AcDbSymbolTableRecord
100
AcDbLinetypeTableRecord
2
ByLayer
70
0
3

72
65
73
0
40
0
0
LTYPE
5
16
330
5
100
AcDbSymbolTableRecord
100
AcDbLinetypeTableRecord
2
Continuous
70
0
3
Solid line
72
65
73
0
40
0
0
LTYPE
5
32
330
5
100
AcDbSymbolTableRecord
100
AcDbLinetypeTableRecord
2
DOT
70
0
3
Dot . . . . . . . . . . . . . . . . . . . . . .
72
65
73
2
40
6.35
49
0
74
0
49
-6.35
74
0
0
LTYPE
5
33
330
5
100
AcDbSymbolTableRecord
100
AcDbLinetypeTableRecord
2
DOT2
70
0
3
Dot (.5x) .....................................
72
65
73
2
40
3.175
49
0
74
0
49
-3.175
74
0
0
LTYPE
5
34
330
5
100
AcDbSymbolTableRecord
100
AcDbLinetypeTableRecord
2
DOTX2
70
0
3
Dot (2x) .  .  .  .  .  .  .  .  .  .  .  .  .
72
65
73
2
40
12.7
49
0
74
0
49
-12.7
74
0
0
LTYPE
5
35
330
5
100
AcDbSymbolTableRecord
100
AcDbLinetypeTableRecord
2
DASHED
70
0
3
Dot . . . . . . . . . . . . . . . . . . . . . .
72
65
73
2
40
19.05
49
12.7
74
0
49
-6.35
74
0
0
LTYPE
5
36
330
5
100
AcDbSymbolTableRecord
100
AcDbLinetypeTableRecord
2
DASHED2
70
0
3
Dashed (.5x) _ _ _ _ _ _ _ _ _ _ _ _ _ _ _ _ _
72
65
73
2
40
9.525
49
6.35
74
0
49
-3.175
74
0
0
LTYPE
5
37
330
5
100
AcDbSymbolTableRecord
100
AcDbLinetypeTableRecord
2
DASHEDX2
70
0
3
Dashed (2x) ____  ____  ____  ____  ____  ___
72
65
73
2
40
38.1
49
25.4
74
0
49
-12.7
74
0
0
LTYPE
5
38
330
5
100
AcDbSymbolTableRecord
100
AcDbLinetypeTableRecord
2
DASHDOT
70
0
3
Dash dot __ . __ . __ . __ . __ . __ . __ . __
72
65
73
4
40
25.4
49
12.7
74
0
49
-6.35
74
0
49
0
74
0
49
-6.35
74
0
0
LTYPE
5
39
330
5
100
AcDbSymbolTableRecord
100
AcDbLinetypeTableRecord
2
DASHDOT2
70
0
3
Dash dot (.5x) _._._._._._._._._._._._._._._.
72
65
73
4
40
12.7
49
6.35
74
0
49
-3.175
74
0
49
0
74
0
49
-3.175
74
0
0
LTYPE
5
3A
330
5
100
AcDbSymbolTableRecord
100
AcDbLinetypeTableRecord
2
DASHDOTX2
70
0
3
Dash dot (2x) ____  .  ____  .  ____  .  ___
72
65
73
4
40
50.8
49
25.4
74
0
49
-12.7
74
0
49
0
74
0
49
-12.7
74
0
0
LTYPE
5
3B
330
5
100
AcDbSymbolTableRecord
100
AcDbLinetypeTableRecord
2
DIVIDE
70
0
3
Divide ____ . . ____ . . ____ . . ____ . . ____
72
65
73
6
40
31.75
49
12.7
74
0
49
-6.35
74
0
49
0
74
0
49
-6.35
74
0
49
0
74
0
49
-6.35
74
0
0
LTYPE
5
3C
330
5
100
AcDbSymbolTableRecord
100
AcDbLinetypeTableRecord
2
DIVIDE2
70
0
3
Divide (.5x) __..__..__..__..__..__..__..__.._
72
65
73
6
40
15.875
49
6.35
74
0
49
-3.175
74
0
49
0
74
0
49
-3.175
74
0
49
0
74
0
49
-3.175
74
0
0
LTYPE
5
3D
330
5
100
AcDbSymbolTableRecord
100
AcDbLinetypeTableRecord
2
DIVIDEX2
70
0
3
Divide (2x) ________  .  .  ________  .  .  _
72
65
73
6
40
63.5
49
25.4
74
0
49
-12.7
74
0
49
0
74
0
49
-12.7
74
0
49
0
74
0
49
-12.7
74
0
0
LTYPE
5
3E
330
5
100
AcDbSymbolTableRecord
100
AcDbLinetypeTableRecord
2
BORDER
70
0
3
Border __ __ . __ __ . __ __ . __ __ . __ __ .
72
65
73
6
40
44.45
49
12.7
74
0
49
-6.35
74
0
49
12.7
74
0
49
-6.35
74
0
49
0
74
0
49
-6.35
74
0
0
LTYPE
5
3F
330
5
100
AcDbSymbolTableRecord
100
AcDbLinetypeTableRecord
2
BORDER2
70
0
3
Border (.5x) __.__.__.__.__.__.__.__.__.__.__.
72
65
73
6
40
22.225
49
6.35
74
0
49
-3.175
74
0
49
6.35
74
0
49
-3.175
74
0
49
0
74
0
49
-3.175
74
0
0
LTYPE
5
40
330
5
100
AcDbSymbolTableRecord
100
AcDbLinetypeTableRecord
2
BORDERX2
70
0
3
Border (2x) ____  ____  .  ____  ____  .  ___
72
65
73
6
40
88.9
49
25.4
74
0
49
-12.7
74
0
49
25.4
74
0
49
-12.7
74
0
49
0
74
0
49
-12.7
74
0
0
LTYPE
5
41
330
5
100
AcDbSymbolTableRecord
100
AcDbLinetypeTableRecord
2
CENTER
70
0
3
Center ____ _ ____ _ ____ _ ____ _ ____ _ ____
72
65
73
4
40
50.8
49
31.75
74
0
49
-6.35
74
0
49
6.35
74
0
49
-6.35
74
0
0
LTYPE
5
42
330
5
100
AcDbSymbolTableRecord
100
AcDbLinetypeTableRecord
2
CENTER2
70
0
3
Center (.5x) ___ _ ___ _ ___ _ ___ _ ___ _ ___
72
65
73
4
40
28.575
49
19.05
74
0
49
-3.175
74
0
49
3.175
74
0
49
-3.175
74
0
0
LTYPE
5
43
330
5
100
AcDbSymbolTableRecord
100
AcDbLinetypeTableRecord
2
CENTERX2
70
0
3
Center (2x) ________  __  ________  __  _____
72
65
73
4
40
101.6
49
63.5
74
0
49
-12.7
74
0
49
12.7
74
0
49
-12.7
74
0
0
ENDTAB
0
TABLE
2
LAYER
5
2
330
0
100
AcDbSymbolTable
70
1
0
LAYER
5
10
330
2
100
AcDbSymbolTableRecord
100
AcDbLayerTableRecord
2
0
70
0
62
7
6
CONTINUOUS
370
0
390
F
0
LAYER
5
44
330
2
100
AcDbSymbolTableRecord
100
AcDbLayerTableRecord
2
BLACK
70
0
62
7
6
CONTINUOUS
370
-3
390
F
0
LAYER
5
45
330
2
100
AcDbSymbolTableRecord
100
AcDbLayerTableRecord
2
GRAY1
70
0
62
251
6
CONTINUOUS
370
-3
390
F
0
LAYER
5
46
330
2
100
AcDbSymbolTableRecord
100
AcDbLayerTableRecord
2
GRAY2
70
0
62
8
6
CONTINUOUS
370
-3
390
F
0
LAYER
5
47
330
2
100
AcDbSymbolTableRecord
100
AcDbLayerTableRecord
2
GRAY3
70
0
62
9
6
CONTINUOUS
370
-3
390
F
0
LAYER
5
48
330
2
100
AcDbSymbolTableRecord
100
AcDbLayerTableRecord
2
WHITE
70
0
62
7
6
CONTINUOUS
370
-3
390
F
0
LAYER
5
49
330
2
100
AcDbSymbolTableRecord
100
AcDbLayerTableRecord
2
LYELLOW
70
0
62
51
6
CONTINUOUS
370
-3
390
F
0
LAYER
5
4A
330
2
100
AcDbSymbolTableRecord
100
AcDbLayerTableRecord
2
BLUE1
70
0
62
178
6
CONTINUOUS
370
-3
390
F
0
LAYER
5
4B
330
2
100
AcDbSymbolTableRecord
100
AcDbLayerTableRecord
2
GREEN1
70
0
62
98
6
CONTINUOUS
370
-3
390
F
0
LAYER
5
4C
330
2
100
AcDbSymbolTableRecord
100
AcDbLayerTableRecord
2
CYAN1
70
0
62
138
6
CONTINUOUS
370
-3
390
F
0
LAYER
5
4D
330
2
100
AcDbSymbolTableRecord
100
AcDbLayerTableRecord
2
RED1
70
0
62
18
6
CONTINUOUS
370
-3
390
F
0
LAYER
5
4E
330
2
100
AcDbSymbolTableRecord
100
AcDbLayerTableRecord
2
MAGENTA1
70
0
62
228
6
CONTINUOUS
370
-3
390
F
0
LAYER
5
4F
330
2
100
AcDbSymbolTableRecord
100
AcDbLayerTableRecord
2
BROWN1
70
0
62
58
6
CONTINUOUS
370
-3
390
F
0
LAYER
5
50
330
2
100
AcDbSymbolTableRecord
100
AcDbLayerTableRecord
2
BLUE2
70
0
62
5
6
CONTINUOUS
370
-3
390
F
0
LAYER
5
51
330
2
100
AcDbSymbolTableRecord
100
AcDbLayerTableRecord
2
GREEN2
70
0
62
3
6
CONTINUOUS
370
-3
390
F
0
LAYER
5
52
330
2
100
AcDbSymbolTableRecord
100
AcDbLayerTableRecord
2
CYAN2
70
0
62
4
6
CONTINUOUS
370
-3
390
F
0
LAYER
5
53
330
2
100
AcDbSymbolTableRecord
100
AcDbLayerTableRecord
2
RED2
70
0
62
1
6
CONTINUOUS
370
-3
390
F
0
LAYER
5
54
330
2
100
AcDbSymbolTableRecord
100
AcDbLayerTableRecord
2
MAGENTA2
70
0
62
6
6
CONTINUOUS
370
-3
390
F
0
LAYER
5
55
330
2
100
AcDbSymbolTableRecord
100
AcDbLayerTableRecord
2
BROWN2
70
0
62
54
6
CONTINUOUS
370
-3
390
F
0
LAYER
5
56
330
2
100
AcDbSymbolTableRecord
100
AcDbLayerTableRecord
2
BLUE3
70
0
62
171
6
CONTINUOUS
370
-3
390
F
0
LAYER
5
57
330
2
100
AcDbSymbolTableRecord
100
AcDbLayerTableRecord
2
GREEN3
70
0
62
91
6
CONTINUOUS
370
-3
390
F
0
LAYER
5
58
330
2
100
AcDbSymbolTableRecord
100
AcDbLayerTableRecord
2
CYAN3
70
0
62
131
6
CONTINUOUS
370
-3
390
F
0
LAYER
5
59
330
2
100
AcDbSymbolTableRecord
100
AcDbLayerTableRecord
2
RED3
70
0
62
11
6
CONTINUOUS
370
-3
390
F
0
LAYER
5
5A
330
2
100
AcDbSymbolTableRecord
100
AcDbLayerTableRecord
2
MAGENTA3
70
0
62
221
6
CONTINUOUS
370
-3
390
F
0
LAYER
5
5B
330
2
100
AcDbSymbolTableRecord
100
AcDbLayerTableRecord
2
YELLOW3
70
0
62
2
6
CONTINUOUS
370
-3
390
F
0
LAYER
5
5C
330
2
100
AcDbSymbolTableRecord
100
AcDbLayerTableRecord
2
BLUE4
70
0
62
5
6
CONTINUOUS
370
-3
390
F
0
LAYER
5
5D
330
2
100
AcDbSymbolTableRecord
100
AcDbLayerTableRecord
2
GREEN4
70
0
62
3
6
CONTINUOUS
370
-3
390
F
0
LAYER
5
5E
330
2
100
AcDbSymbolTableRecord
100
AcDbLayerTableRecord
2
CYAN4
70
0
62
4
6
CONTINUOUS
370
-3
390
F
0
LAYER
5
5F
330
2
100
AcDbSymbolTableRecord
100
AcDbLayerTableRecord
2
RED4
70
0
62
1
6
CONTINUOUS
370
-3
390
F
0
LAYER
5
60
330
2
100
AcDbSymbolTableRecord
100
AcDbLayerTableRecord
2
MAGENTA4
70
0
62
6
6
CONTINUOUS
370
-3
390
F
0
LAYER
5
61
330
2
100
AcDbSymbolTableRecord
100
AcDbLayerTableRecord
2
YELLOW4
70
0
62
2
6
CONTINUOUS
370
-3
390
F
0
LAYER
5
62
330
2
100
AcDbSymbolTableRecord
100
AcDbLayerTableRecord
2
Black
70
0
62
7
6
CONTINUOUS
370
-3
390
F
0
ENDTAB
0
TABLE
2
STYLE
5
3
330
0
100
AcDbSymbolTable
70
3
0
STYLE
5
63
330
2
100
AcDbSymbolTableRecord
100
AcDbTextStyleTableRecord
2
Standard
70
0
40
0
41
1
50
0
71
0
42
1
3
txt
4

0
ENDTAB
0
TABLE
2
VIEW
5
6
330
0
100
AcDbSymbolTable
70
0
0
ENDTAB
0
TABLE
2
UCS
5
7
330
0
100
AcDbSymbolTable
70
0
0
ENDTAB
0
TABLE
2
APPID
5
9
330
0
100
AcDbSymbolTable
70
1
0
APPID
5
12
330
9
100
AcDbSymbolTableRecord
100
AcDbRegAppTableRecord
2
ACAD
70
0
0
ENDTAB
0
TABLE
2
DIMSTYLE
5
A
330
0
100
AcDbSymbolTable
70
1
100
AcDbDimStyleTable
71
1
0
DIMSTYLE
105
64
330
A
100
AcDbSymbolTableRecord
100
AcDbDimStyleTableRecord
2
Standard
70
0
40
1
41
2.5
42
0.625
43
0.38
44
1.25
45
0
46
0
47
0
48
0
140
2.5
141
0.09
142
0
143
25.4
144
1
145
0
146
1
147
0.625
148
0
71
0
72
0
73
0
74
1
75
0
76
0
77
0
78
0
79
0
170
0
171
2
172
0
173
0
174
0
175
0
176
0
177
0
178
0
179
0
271
4
272
4
273
2
274
2
275
0
276
0
277
2
278
46
279
0
280
0
281
0
282
0
283
1
284
0
285
0
286
0
288
0
289
3
340
Standard
341

371
-2
372
-2
0
ENDTAB
0
TABLE
2
BLOCK_RECORD
5
1
330
0
100
AcDbSymbolTable
70
2
0
BLOCK_RECORD
5
1F
330
1
100
AcDbSymbolTableRecord
100
AcDbBlockTableRecord
2
*Model_Space
70
0
280
1
281
0
0
BLOCK_RECORD
5
1E
330
1
100
AcDbSymbolTableRecord
100
AcDbBlockTableRecord
2
*Paper_Space
70
0
280
1
281
0
0
ENDTAB
0
ENDSEC
0
SECTION
2
BLOCKS
0
BLOCK
5
20
330
1F
100
AcDbEntity
8
0
100
AcDbBlockBegin
2
*Model_Space
70
0
10
0
20
0
30
0
3
*Model_Space
1

0
ENDBLK
5
21
330
1F
100
AcDbEntity
8
0
100
AcDbBlockEnd
0
BLOCK
5
1C
330
1B
100
AcDbEntity
8
0
100
AcDbBlockBegin
2
*Paper_Space
70
0
10
0
20
0
30
0
3
*Paper_Space
1

0
ENDBLK
5
1D
330
1F
100
AcDbEntity
8
0
100
AcDbBlockEnd
0
ENDSEC
0
SECTION
2
ENTITIES
0
LINE
5
65
100
AcDbEntity
8
Black
6
ByLayer
62
256
370
-1
100
AcDbLine
10
132.206
20
-106.793
11
130.43
21
-106.793
0
LINE
5
66
100
AcDbEntity
8
Black
6
ByLayer
62
256
370
-1
100
AcDbLine
10
130.43
20
-106.793
11
130.43
21
-104.397
0
LINE
5
67
100
AcDbEntity
8
Black
6
ByLayer
62
256
370
-1
100
AcDbLine
10
130.43
20
-104.397
11
132.206
21
-104.397
0
LINE
5
68
100
AcDbEntity
8
Black
6
ByLayer
62
256
370
-1
100
AcDbLine
10
132.206
20
-104.397
11
132.206
21
-106.793
0
LINE
5
69
100
AcDbEntity
8
Black
6
ByLayer
62
256
370
-1
100
AcDbLine
10
166.031
20
-103.833
11
165.185
21
-103.833
0
LINE
5
6A
100
AcDbEntity
8
Black
6
ByLayer
62
256
370
-1
100
AcDbLine
10
165.185
20
-103.833
11
165.185
21
-99.487
0
LINE
5
6B
100
AcDbEntity
8
Black
6
ByLayer
62
256
370
-1
100
AcDbLine
10
165.185
20
-99.487
11
166.031
21
-99.487
0
LINE
5
6C
100
AcDbEntity
8
Black
6
ByLayer
62
256
370
-1
100
AcDbLine
10
166.031
20
-99.487
11
166.031
21
-103.833
0
LINE
5
6D
100
AcDbEntity
8
Black
6
ByLayer
62
256
370
-1
100
AcDbLine
10
163.491
20
-103.833
11
162.645
21
-103.833
0
LINE
5
6E
100
AcDbEntity
8
Black
6
ByLayer
62
256
370
-1
100
AcDbLine
10
162.645
20
-103.833
11
162.645
21
-99.487
0
LINE
5
6F
100
AcDbEntity
8
Black
6
ByLayer
62
256
370
-1
100
AcDbLine
10
162.645
20
-99.487
11
163.491
21
-99.487
0
LINE
5
70
100
AcDbEntity
8
Black
6
ByLayer
62
256
370
-1
100
AcDbLine
10
163.491
20
-99.487
11
163.491
21
-103.833
0
LINE
5
71
100
AcDbEntity
8
Black
6
ByLayer
62
256
370
-1
100
AcDbLine
10
160.951
20
-103.833
11
160.105
21
-103.833
0
LINE
5
72
100
AcDbEntity
8
Black
6
ByLayer
62
256
370
-1
100
AcDbLine
10
160.105
20
-103.833
11
160.105
21
-99.487
0
LINE
5
73
100
AcDbEntity
8
Black
6
ByLayer
62
256
370
-1
100
AcDbLine
10
160.105
20
-99.487
11
160.951
21
-99.487
0
LINE
5
74
100
AcDbEntity
8
Black
6
ByLayer
62
256
370
-1
100
AcDbLine
10
160.951
20
-99.487
11
160.951
21
-103.833
0
LINE
5
75
100
AcDbEntity
8
Black
6
ByLayer
62
256
370
-1
100
AcDbLine
10
146.981
20
-103.833
11
146.135
21
-103.833
0
LINE
5
76
100
AcDbEntity
8
Black
6
ByLayer
62
256
370
-1
100
AcDbLine
10
146.135
20
-103.833
11
146.135
21
-99.487
0
LINE
5
77
100
AcDbEntity
8
Black
6
ByLayer
62
256
370
-1
100
AcDbLine
10
146.135
20
-99.487
11
146.981
21
-99.487
0
LINE
5
78
100
AcDbEntity
8
Black
6
ByLayer
62
256
370
-1
100
AcDbLine
10
146.981
20
-99.487
11
146.981
21
-103.833
0
LINE
5
79
100
AcDbEntity
8
Black
6
ByLayer
62
256
370
-1
100
AcDbLine
10
149.521
20
-103.833
11
148.675
21
-103.833
0
LINE
5
7A
100
AcDbEntity
8
Black
6
ByLayer
62
256
370
-1
100
AcDbLine
10
148.675
20
-103.833
11
148.675
21
-99.487
0
LINE
5
7B
100
AcDbEntity
8
Black
6
ByLayer
62
256
370
-1
100
AcDbLine
10
148.675
20
-99.487
11
149.521
21
-99.487
0
LINE
5
7C
100
AcDbEntity
8
Black
6
ByLayer
62
256
370
-1
100
AcDbLine
10
149.521
20
-99.487
11
149.521
21
-103.833
0
LINE
5
7D
100
AcDbEntity
8
Black
6
ByLayer
62
256
370
-1
100
AcDbLine
10
152.061
20
-103.833
11
151.215
21
-103.833
0
LINE
5
7E
100
AcDbEntity
8
Black
6
ByLayer
62
256
370
-1
100
AcDbLine
10
151.215
20
-103.833
11
151.215
21
-99.487
0
LINE
5
7F
100
AcDbEntity
8
Black
6
ByLayer
62
256
370
-1
100
AcDbLine
10
151.215
20
-99.487
11
152.061
21
-99.487
0
LINE
5
80
100
AcDbEntity
8
Black
6
ByLayer
62
256
370
-1
100
AcDbLine
10
152.061
20
-99.487
11
152.061
21
-103.833
0
LINE
5
81
100
AcDbEntity
8
Black
6
ByLayer
62
256
370
-1
100
AcDbLine
10
132.206
20
-102.613
11
130.43
21
-102.613
0
LINE
5
82
100
AcDbEntity
8
Black
6
ByLayer
62
256
370
-1
100
AcDbLine
10
130.43
20
-102.613
11
130.43
21
-100.217
0
LINE
5
83
100
AcDbEntity
8
Black
6
ByLayer
62
256
370
-1
100
AcDbLine
10
130.43
20
-100.217
11
132.206
21
-100.217
0
LINE
5
84
100
AcDbEntity
8
Black
6
ByLayer
62
256
370
-1
100
AcDbLine
10
132.206
20
-100.217
11
132.206
21
-102.613
0
LINE
5
85
100
AcDbEntity
8
Black
6
ByLayer
62
256
370
-1
100
AcDbLine
10
162.791
20
-97.083
11
157.795
21
-97.083
0
LINE
5
86
100
AcDbEntity
8
Black
6
ByLayer
62
256
370
-1
100
AcDbLine
10
157.795
20
-97.083
11
157.795
21
-92.787
0
LINE
5
87
100
AcDbEntity
8
Black
6
ByLayer
62
256
370
-1
100
AcDbLine
10
157.795
20
-92.787
11
162.791
21
-92.787
0
LINE
5
88
100
AcDbEntity
8
Black
6
ByLayer
62
256
370
-1
100
AcDbLine
10
162.791
20
-92.787
11
162.791
21
-97.083
0
LINE
5
89
100
AcDbEntity
8
Black
6
ByLayer
62
256
370
-1
100
AcDbLine
10
154.371
20
-97.083
11
149.375
21
-97.083
0
LINE
5
8A
100
AcDbEntity
8
Black
6
ByLayer
62
256
370
-1
100
AcDbLine
10
149.375
20
-97.083
11
149.375
21
-92.787
0
LINE
5
8B
100
AcDbEntity
8
Black
6
ByLayer
62
256
370
-1
100
AcDbLine
10
149.375
20
-92.787
11
154.371
21
-92.787
0
LINE
5
8C
100
AcDbEntity
8
Black
6
ByLayer
62
256
370
-1
100
AcDbLine
10
154.371
20
-92.787
11
154.371
21
-97.083
0
LINE
5
8D
100
AcDbEntity
8
Black
6
ByLayer
62
256
370
-1
100
AcDbLine
10
168.341
20
-97.083
11
163.345
21
-97.083
0
LINE
5
8E
100
AcDbEntity
8
Black
6
ByLayer
62
256
370
-1
100
AcDbLine
10
163.345
20
-97.083
11
163.345
21
-92.787
0
LINE
5
8F
100
AcDbEntity
8
Black
6
ByLayer
62
256
370
-1
100
AcDbLine
10
163.345
20
-92.787
11
168.341
21
-92.787
0
LINE
5
90
100
AcDbEntity
8
Black
6
ByLayer
62
256
370
-1
100
AcDbLine
10
168.341
20
-92.787
11
168.341
21
-97.083
0
LINE
5
91
100
AcDbEntity
8
Black
6
ByLayer
62
256
370
-1
100
AcDbLine
10
148.821
20
-97.083
11
143.825
21
-97.083
0
LINE
5
92
100
AcDbEntity
8
Black
6
ByLayer
62
256
370
-1
100
AcDbLine
10
143.825
20
-97.083
11
143.825
21
-92.787
0
LINE
5
93
100
AcDbEntity
8
Black
6
ByLayer
62
256
370
-1
100
AcDbLine
10
143.825
20
-92.787
11
148.821
21
-92.787
0
LINE
5
94
100
AcDbEntity
8
Black
6
ByLayer
62
256
370
-1
100
AcDbLine
10
148.821
20
-92.787
11
148.821
21
-97.083
0
LINE
5
95
100
AcDbEntity
8
Black
6
ByLayer
62
256
370
-1
100
AcDbLine
10
137.16
20
-95.0595
11
136.906
21
-95.0595
0
LINE
5
96
100
AcDbEntity
8
Black
6
ByLayer
62
256
370
-1
100
AcDbLine
10
136.906
20
-95.0595
11
136.906
21
-94.1705
0
LINE
5
97
100
AcDbEntity
8
Black
6
ByLayer
62
256
370
-1
100
AcDbLine
10
136.906
20
-94.1705
11
137.16
21
-94.1705
0
LINE
5
98
100
AcDbEntity
8
Black
6
ByLayer
62
256
370
-1
100
AcDbLine
10
137.16
20
-94.1705
11
137.16
21
-95.0595
0
LINE
5
99
100
AcDbEntity
8
Black
6
ByLayer
62
256
370
-1
100
AcDbLine
10
135.89
20
-95.0595
11
135.636
21
-95.0595
0
LINE
5
9A
100
AcDbEntity
8
Black
6
ByLayer
62
256
370
-1
100
AcDbLine
10
135.636
20
-95.0595
11
135.636
21
-94.1705
0
LINE
5
9B
100
AcDbEntity
8
Black
6
ByLayer
62
256
370
-1
100
AcDbLine
10
135.636
20
-94.1705
11
135.89
21
-94.1705
0
LINE
5
9C
100
AcDbEntity
8
Black
6
ByLayer
62
256
370
-1
100
AcDbLine
10
135.89
20
-94.1705
11
135.89
21
-95.0595
0
LINE
5
9D
100
AcDbEntity
8
Black
6
ByLayer
62
256
370
-1
100
AcDbLine
10
138.43
20
-95.0595
11
138.176
21
-95.0595
0
LINE
5
9E
100
AcDbEntity
8
Black
6
ByLayer
62
256
370
-1
100
AcDbLine
10
138.176
20
-95.0595
11
138.176
21
-94.1705
0
LINE
5
9F
100
AcDbEntity
8
Black
6
ByLayer
62
256
370
-1
100
AcDbLine
10
138.176
20
-94.1705
11
138.43
21
-94.1705
0
LINE
5
A0
100
AcDbEntity
8
Black
6
ByLayer
62
256
370
-1
100
AcDbLine
10
138.43
20
-94.1705
11
138.43
21
-95.0595
0
LINE
5
A1
100
AcDbEntity
8
Black
6
ByLayer
62
256
370
-1
100
AcDbLine
10
139.7
20
-95.0595
11
139.446
21
-95.0595
0
LINE
5
A2
100
AcDbEntity
8
Black
6
ByLayer
62
256
370
-1
100
AcDbLine
10
139.446
20
-95.0595
11
139.446
21
-94.1705
0
LINE
5
A3
100
AcDbEntity
8
Black
6
ByLayer
62
256
370
-1
100
AcDbLine
10
139.446
20
-94.1705
11
139.7
21
-94.1705
0
LINE
5
A4
100
AcDbEntity
8
Black
6
ByLayer
62
256
370
-1
100
AcDbLine
10
139.7
20
-94.1705
11
139.7
21
-95.0595
0
LINE
5
A5
100
AcDbEntity
8
Black
6
ByLayer
62
256
370
-1
100
AcDbLine
10
132.451
20
-92.813
11
131.455
21
-92.813
0
LINE
5
A6
100
AcDbEntity
8
Black
6
ByLayer
62
256
370
-1
100
AcDbLine
10
131.455
20
-92.813
11
131.455
21
-92.067
0
LINE
5
A7
100
AcDbEntity
8
Black
6
ByLayer
62
256
370
-1
100
AcDbLine
10
131.455
20
-92.067
11
132.451
21
-92.067
0
LINE
5
A8
100
AcDbEntity
8
Black
6
ByLayer
62
256
370
-1
100
AcDbLine
10
132.451
20
-92.067
11
132.451
21
-92.813
0
LINE
5
A9
100
AcDbEntity
8
Black
6
ByLayer
62
256
370
-1
100
AcDbLine
10
129.276
20
-92.813
11
128.28
21
-92.813
0
LINE
5
AA
100
AcDbEntity
8
Black
6
ByLayer
62
256
370
-1
100
AcDbLine
10
128.28
20
-92.813
11
128.28
21
-92.067
0
LINE
5
AB
100
AcDbEntity
8
Black
6
ByLayer
62
256
370
-1
100
AcDbLine
10
128.28
20
-92.067
11
129.276
21
-92.067
0
LINE
5
AC
100
AcDbEntity
8
Black
6
ByLayer
62
256
370
-1
100
AcDbLine
10
129.276
20
-92.067
11
129.276
21
-92.813
0
LINE
5
AD
100
AcDbEntity
8
Black
6
ByLayer
62
256
370
-1
100
AcDbLine
10
168.341
20
-92.233
11
163.345
21
-92.233
0
LINE
5
AE
100
AcDbEntity
8
Black
6
ByLayer
62
256
370
-1
100
AcDbLine
10
163.345
20
-92.233
11
163.345
21
-87.937
0
LINE
5
AF
100
AcDbEntity
8
Black
6
ByLayer
62
256
370
-1
100
AcDbLine
10
163.345
20
-87.937
11
168.341
21
-87.937
0
LINE
5
B0
100
AcDbEntity
8
Black
6
ByLayer
62
256
370
-1
100
AcDbLine
10
168.341
20
-87.937
11
168.341
21
-92.233
0
LINE
5
B1
100
AcDbEntity
8
Black
6
ByLayer
62
256
370
-1
100
AcDbLine
10
162.791
20
-92.233
11
157.795
21
-92.233
0
LINE
5
B2
100
AcDbEntity
8
Black
6
ByLayer
62
256
370
-1
100
AcDbLine
10
157.795
20
-92.233
11
157.795
21
-87.937
0
LINE
5
B3
100
AcDbEntity
8
Black
6
ByLayer
62
256
370
-1
100
AcDbLine
10
157.795
20
-87.937
11
162.791
21
-87.937
0
LINE
5
B4
100
AcDbEntity
8
Black
6
ByLayer
62
256
370
-1
100
AcDbLine
10
162.791
20
-87.937
11
162.791
21
-92.233
0
LINE
5
B5
100
AcDbEntity
8
Black
6
ByLayer
62
256
370
-1
100
AcDbLine
10
148.821
20
-92.233
11
143.825
21
-92.233
0
LINE
5
B6
100
AcDbEntity
8
Black
6
ByLayer
62
256
370
-1
100
AcDbLine
10
143.825
20
-92.233
11
143.825
21
-87.937
0
LINE
5
B7
100
AcDbEntity
8
Black
6
ByLayer
62
256
370
-1
100
AcDbLine
10
143.825
20
-87.937
11
148.821
21
-87.937
0
LINE
5
B8
100
AcDbEntity
8
Black
6
ByLayer
62
256
370
-1
100
AcDbLine
10
148.821
20
-87.937
11
148.821
21
-92.233
0
LINE
5
B9
100
AcDbEntity
8
Black
6
ByLayer
62
256
370
-1
100
AcDbLine
10
154.371
20
-92.233
11
149.375
21
-92.233
0
LINE
5
BA
100
AcDbEntity
8
Black
6
ByLayer
62
256
370
-1
100
AcDbLine
10
149.375
20
-92.233
11
149.375
21
-87.937
0
LINE
5
BB
100
AcDbEntity
8
Black
6
ByLayer
62
256
370
-1
100
AcDbLine
10
149.375
20
-87.937
11
154.371
21
-87.937
0
LINE
5
BC
100
AcDbEntity
8
Black
6
ByLayer
62
256
370
-1
100
AcDbLine
10
154.371
20
-87.937
11
154.371
21
-92.233
0
LINE
5
BD
100
AcDbEntity
8
Black
6
ByLayer
62
256
370
-1
100
AcDbLine
10
132.451
20
-90.813
11
131.455
21
-90.813
0
LINE
5
BE
100
AcDbEntity
8
Black
6
ByLayer
62
256
370
-1
100
AcDbLine
10
131.455
20
-90.813
11
131.455
21
-90.067
0
LINE
5
BF
100
AcDbEntity
8
Black
6
ByLayer
62
256
370
-1
100
AcDbLine
10
131.455
20
-90.067
11
132.451
21
-90.067
0
LINE
5
C0
100
AcDbEntity
8
Black
6
ByLayer
62
256
370
-1
100
AcDbLine
10
132.451
20
-90.067
11
132.451
21
-90.813
0
LINE
5
C1
100
AcDbEntity
8
Black
6
ByLayer
62
256
370
-1
100
AcDbLine
10
129.276
20
-90.813
11
128.28
21
-90.813
0
LINE
5
C2
100
AcDbEntity
8
Black
6
ByLayer
62
256
370
-1
100
AcDbLine
10
128.28
20
-90.813
11
128.28
21
-90.067
0
LINE
5
C3
100
AcDbEntity
8
Black
6
ByLayer
62
256
370
-1
100
AcDbLine
10
128.28
20
-90.067
11
129.276
21
-90.067
0
LINE
5
C4
100
AcDbEntity
8
Black
6
ByLayer
62
256
370
-1
100
AcDbLine
10
129.276
20
-90.067
11
129.276
21
-90.813
0
LINE
5
C5
100
AcDbEntity
8
Black
6
ByLayer
62
256
370
-1
100
AcDbLine
10
135.89
20
-88.7095
11
135.636
21
-88.7095
0
LINE
5
C6
100
AcDbEntity
8
Black
6
ByLayer
62
256
370
-1
100
AcDbLine
10
135.636
20
-88.7095
11
135.636
21
-87.8205
0
LINE
5
C7
100
AcDbEntity
8
Black
6
ByLayer
62
256
370
-1
100
AcDbLine
10
135.636
20
-87.8205
11
135.89
21
-87.8205
0
LINE
5
C8
100
AcDbEntity
8
Black
6
ByLayer
62
256
370
-1
100
AcDbLine
10
135.89
20
-87.8205
11
135.89
21
-88.7095
0
LINE
5
C9
100
AcDbEntity
8
Black
6
ByLayer
62
256
370
-1
100
AcDbLine
10
137.16
20
-88.7095
11
136.906
21
-88.7095
0
LINE
5
CA
100
AcDbEntity
8
Black
6
ByLayer
62
256
370
-1
100
AcDbLine
10
136.906
20
-88.7095
11
136.906
21
-87.8205
0
LINE
5
CB
100
AcDbEntity
8
Black
6
ByLayer
62
256
370
-1
100
AcDbLine
10
136.906
20
-87.8205
11
137.16
21
-87.8205
0
LINE
5
CC
100
AcDbEntity
8
Black
6
ByLayer
62
256
370
-1
100
AcDbLine
10
137.16
20
-87.8205
11
137.16
21
-88.7095
0
LINE
5
CD
100
AcDbEntity
8
Black
6
ByLayer
62
256
370
-1
100
AcDbLine
10
138.43
20
-88.7095
11
138.176
21
-88.7095
0
LINE
5
CE
100
AcDbEntity
8
Black
6
ByLayer
62
256
370
-1
100
AcDbLine
10
138.176
20
-88.7095
11
138.176
21
-87.8205
0
LINE
5
CF
100
AcDbEntity
8
Black
6
ByLayer
62
256
370
-1
100
AcDbLine
10
138.176
20
-87.8205
11
138.43
21
-87.8205
0
LINE
5
D0
100
AcDbEntity
8
Black
6
ByLayer
62
256
370
-1
100
AcDbLine
10
138.43
20
-87.8205
11
138.43
21
-88.7095
0
LINE
5
D1
100
AcDbEntity
8
Black
6
ByLayer
62
256
370
-1
100
AcDbLine
10
139.7
20
-88.7095
11
139.446
21
-88.7095
0
LINE
5
D2
100
AcDbEntity
8
Black
6
ByLayer
62
256
370
-1
100
AcDbLine
10
139.446
20
-88.7095
11
139.446
21
-87.8205
0
LINE
5
D3
100
AcDbEntity
8
Black
6
ByLayer
62
256
370
-1
100
AcDbLine
10
139.446
20
-87.8205
11
139.7
21
-87.8205
0
LINE
5
D4
100
AcDbEntity
8
Black
6
ByLayer
62
256
370
-1
100
AcDbLine
10
139.7
20
-87.8205
11
139.7
21
-88.7095
0
LINE
5
D5
100
AcDbEntity
8
Black
6
ByLayer
62
256
370
-1
100
AcDbLine
10
133.766
20
-84.978
11
133.32
21
-84.978
0
LINE
5
D6
100
AcDbEntity
8
Black
6
ByLayer
62
256
370
-1
100
AcDbLine
10
133.32
20
-84.978
11
133.32
21
-83.932
0
LINE
5
D7
100
AcDbEntity
8
Black
6
ByLayer
62
256
370
-1
100
AcDbLine
10
133.32
20
-83.932
11
133.766
21
-83.932
0
LINE
5
D8
100
AcDbEntity
8
Black
6
ByLayer
62
256
370
-1
100
AcDbLine
10
133.766
20
-83.932
11
133.766
21
-84.978
0
LINE
5
D9
100
AcDbEntity
8
Black
6
ByLayer
62
256
370
-1
100
AcDbLine
10
135.666
20
-84.978
11
135.22
21
-84.978
0
LINE
5
DA
100
AcDbEntity
8
Black
6
ByLayer
62
256
370
-1
100
AcDbLine
10
135.22
20
-84.978
11
135.22
21
-83.932
0
LINE
5
DB
100
AcDbEntity
8
Black
6
ByLayer
62
256
370
-1
100
AcDbLine
10
135.22
20
-83.932
11
135.666
21
-83.932
0
LINE
5
DC
100
AcDbEntity
8
Black
6
ByLayer
62
256
370
-1
100
AcDbLine
10
135.666
20
-83.932
11
135.666
21
-84.978
0
LINE
5
DD
100
AcDbEntity
8
Black
6
ByLayer
62
256
370
-1
100
AcDbLine
10
137.576
20
-84.978
11
137.13
21
-84.978
0
LINE
5
DE
100
AcDbEntity
8
Black
6
ByLayer
62
256
370
-1
100
AcDbLine
10
137.13
20
-84.978
11
137.13
21
-83.932
0
LINE
5
DF
100
AcDbEntity
8
Black
6
ByLayer
62
256
370
-1
100
AcDbLine
10
137.13
20
-83.932
11
137.576
21
-83.932
0
LINE
5
E0
100
AcDbEntity
8
Black
6
ByLayer
62
256
370
-1
100
AcDbLine
10
137.576
20
-83.932
11
137.576
21
-84.978
0
LINE
5
E1
100
AcDbEntity
8
Black
6
ByLayer
62
256
370
-1
100
AcDbLine
10
139.476
20
-84.978
11
139.03
21
-84.978
0
LINE
5
E2
100
AcDbEntity
8
Black
6
ByLayer
62
256
370
-1
100
AcDbLine
10
139.03
20
-84.978
11
139.03
21
-83.932
0
LINE
5
E3
100
AcDbEntity
8
Black
6
ByLayer
62
256
370
-1
100
AcDbLine
10
139.03
20
-83.932
11
139.476
21
-83.932
0
LINE
5
E4
100
AcDbEntity
8
Black
6
ByLayer
62
256
370
-1
100
AcDbLine
10
139.476
20
-83.932
11
139.476
21
-84.978
0
LINE
5
E5
100
AcDbEntity
8
Black
6
ByLayer
62
256
370
-1
100
AcDbLine
10
175.517
20
-72.9506
11
175.521
21
-72.9503
0
LINE
5
E6
100
AcDbEntity
8
Black
6
ByLayer
62
256
370
-1
100
AcDbLine
10
175.521
20
-72.9503
11
175.53
21
-72.9528
0
LINE
5
E7
100
AcDbEntity
8
Black
6
ByLayer
62
256
370
-1
100
AcDbLine
10
175.53
20
-72.9528
11
175.54
21
-72.9545
0
LINE
5
E8
100
AcDbEntity
8
Black
6
ByLayer
62
256
370
-1
100
AcDbLine
10
175.54
20
-72.9545
11
175.543
21
-72.9562
0
LINE
5
E9
100
AcDbEntity
8
Black
6
ByLayer
62
256
370
-1
100
AcDbLine
10
175.543
20
-72.9562
11
175.546
21
-72.957
0
LINE
5
EA
100
AcDbEntity
8
Black
6
ByLayer
62
256
370
-1
100
AcDbLine
10
175.546
20
-72.957
11
175.554
21
-72.9626
0
LINE
5
EB
100
AcDbEntity
8
Black
6
ByLayer
62
256
370
-1
100
AcDbLine
10
175.554
20
-72.9626
11
175.562
21
-72.9675
0
LINE
5
EC
100
AcDbEntity
8
Black
6
ByLayer
62
256
370
-1
100
AcDbLine
10
175.562
20
-72.9675
11
175.564
21
-72.9701
0
LINE
5
ED
100
AcDbEntity
8
Black
6
ByLayer
62
256
370
-1
100
AcDbLine
10
175.564
20
-72.9701
11
175.567
21
-72.972
0
LINE
5
EE
100
AcDbEntity
8
Black
6
ByLayer
62
256
370
-1
100
AcDbLine
10
175.567
20
-72.972
11
177.091
21
-74.496
0
LINE
5
EF
100
AcDbEntity
8
Black
6
ByLayer
62
256
370
-1
100
AcDbLine
10
177.091
20
-74.496
11
177.093
21
-74.4987
0
LINE
5
F0
100
AcDbEntity
8
Black
6
ByLayer
62
256
370
-1
100
AcDbLine
10
177.093
20
-74.4987
11
177.095
21
-74.5008
0
LINE
5
F1
100
AcDbEntity
8
Black
6
ByLayer
62
256
370
-1
100
AcDbLine
10
177.095
20
-74.5008
11
177.1
21
-74.5093
0
LINE
5
F2
100
AcDbEntity
8
Black
6
ByLayer
62
256
370
-1
100
AcDbLine
10
177.1
20
-74.5093
11
177.106
21
-74.5173
0
LINE
5
F3
100
AcDbEntity
8
Black
6
ByLayer
62
256
370
-1
100
AcDbLine
10
177.106
20
-74.5173
11
177.107
21
-74.5205
0
LINE
5
F4
100
AcDbEntity
8
Black
6
ByLayer
62
256
370
-1
100
AcDbLine
10
177.107
20
-74.5205
11
177.108
21
-74.5233
0
LINE
5
F5
100
AcDbEntity
8
Black
6
ByLayer
62
256
370
-1
100
AcDbLine
10
177.108
20
-74.5233
11
177.11
21
-74.533
0
LINE
5
F6
100
AcDbEntity
8
Black
6
ByLayer
62
256
370
-1
100
AcDbLine
10
177.11
20
-74.533
11
177.113
21
-74.5425
0
LINE
5
F7
100
AcDbEntity
8
Black
6
ByLayer
62
256
370
-1
100
AcDbLine
10
177.113
20
-74.5425
11
177.112
21
-74.5457
0
LINE
5
F8
100
AcDbEntity
8
Black
6
ByLayer
62
256
370
-1
100
AcDbLine
10
177.112
20
-74.5457
11
177.113
21
-74.549
0
LINE
5
F9
100
AcDbEntity
8
Black
6
ByLayer
62
256
370
-1
100
AcDbLine
10
177.113
20
-74.549
11
177.113
21
-85.9479
0
LINE
5
FA
100
AcDbEntity
8
Black
6
ByLayer
62
256
370
-1
100
AcDbLine
10
177.113
20
-85.9479
11
179.631
21
-88.466
0
LINE
5
FB
100
AcDbEntity
8
Black
6
ByLayer
62
256
370
-1
100
AcDbLine
10
179.631
20
-88.466
11
179.633
21
-88.4687
0
LINE
5
FC
100
AcDbEntity
8
Black
6
ByLayer
62
256
370
-1
100
AcDbLine
10
179.633
20
-88.4687
11
179.635
21
-88.4708
0
LINE
5
FD
100
AcDbEntity
8
Black
6
ByLayer
62
256
370
-1
100
AcDbLine
10
179.635
20
-88.4708
11
179.64
21
-88.4793
0
LINE
5
FE
100
AcDbEntity
8
Black
6
ByLayer
62
256
370
-1
100
AcDbLine
10
179.64
20
-88.4793
11
179.646
21
-88.4873
0
LINE
5
FF
100
AcDbEntity
8
Black
6
ByLayer
62
256
370
-1
100
AcDbLine
10
179.646
20
-88.4873
11
179.647
21
-88.4905
0
LINE
5
100
100
AcDbEntity
8
Black
6
ByLayer
62
256
370
-1
100
AcDbLine
10
179.647
20
-88.4905
11
179.648
21
-88.4933
0
LINE
5
101
100
AcDbEntity
8
Black
6
ByLayer
62
256
370
-1
100
AcDbLine
10
179.648
20
-88.4933
11
179.65
21
-88.503
0
LINE
5
102
100
AcDbEntity
8
Black
6
ByLayer
62
256
370
-1
100
AcDbLine
10
179.65
20
-88.503
11
179.653
21
-88.5125
0
LINE
5
103
100
AcDbEntity
8
Black
6
ByLayer
62
256
370
-1
100
AcDbLine
10
179.653
20
-88.5125
11
179.652
21
-88.5157
0
LINE
5
104
100
AcDbEntity
8
Black
6
ByLayer
62
256
370
-1
100
AcDbLine
10
179.652
20
-88.5157
11
179.653
21
-88.519
0
LINE
5
105
100
AcDbEntity
8
Black
6
ByLayer
62
256
370
-1
100
AcDbLine
10
179.653
20
-88.519
11
179.653
21
-121.285
0
LINE
5
106
100
AcDbEntity
8
Black
6
ByLayer
62
256
370
-1
100
AcDbLine
10
179.653
20
-121.285
11
179.652
21
-121.288
0
LINE
5
107
100
AcDbEntity
8
Black
6
ByLayer
62
256
370
-1
100
AcDbLine
10
179.652
20
-121.288
11
179.653
21
-121.292
0
LINE
5
108
100
AcDbEntity
8
Black
6
ByLayer
62
256
370
-1
100
AcDbLine
10
179.653
20
-121.292
11
179.65
21
-121.301
0
LINE
5
109
100
AcDbEntity
8
Black
6
ByLayer
62
256
370
-1
100
AcDbLine
10
179.65
20
-121.301
11
179.648
21
-121.311
0
LINE
5
10A
100
AcDbEntity
8
Black
6
ByLayer
62
256
370
-1
100
AcDbLine
10
179.648
20
-121.311
11
179.647
21
-121.314
0
LINE
5
10B
100
AcDbEntity
8
Black
6
ByLayer
62
256
370
-1
100
AcDbLine
10
179.647
20
-121.314
11
179.646
21
-121.317
0
LINE
5
10C
100
AcDbEntity
8
Black
6
ByLayer
62
256
370
-1
100
AcDbLine
10
179.646
20
-121.317
11
179.64
21
-121.325
0
LINE
5
10D
100
AcDbEntity
8
Black
6
ByLayer
62
256
370
-1
100
AcDbLine
10
179.64
20
-121.325
11
179.635
21
-121.333
0
LINE
5
10E
100
AcDbEntity
8
Black
6
ByLayer
62
256
370
-1
100
AcDbLine
10
179.635
20
-121.333
11
179.633
21
-121.335
0
LINE
5
10F
100
AcDbEntity
8
Black
6
ByLayer
62
256
370
-1
100
AcDbLine
10
179.633
20
-121.335
11
179.631
21
-121.338
0
LINE
5
110
100
AcDbEntity
8
Black
6
ByLayer
62
256
370
-1
100
AcDbLine
10
179.631
20
-121.338
11
177.113
21
-123.856
0
LINE
5
111
100
AcDbEntity
8
Black
6
ByLayer
62
256
370
-1
100
AcDbLine
10
177.113
20
-123.856
11
177.113
21
-126.365
0
LINE
5
112
100
AcDbEntity
8
Black
6
ByLayer
62
256
370
-1
100
AcDbLine
10
177.113
20
-126.365
11
177.112
21
-126.371
0
LINE
5
113
100
AcDbEntity
8
Black
6
ByLayer
62
256
370
-1
100
AcDbLine
10
177.112
20
-126.371
11
177.112
21
-126.378
0
LINE
5
114
100
AcDbEntity
8
Black
6
ByLayer
62
256
370
-1
100
AcDbLine
10
177.112
20
-126.378
11
177.11
21
-126.384
0
LINE
5
115
100
AcDbEntity
8
Black
6
ByLayer
62
256
370
-1
100
AcDbLine
10
177.11
20
-126.384
11
177.108
21
-126.391
0
LINE
5
116
100
AcDbEntity
8
Black
6
ByLayer
62
256
370
-1
100
AcDbLine
10
177.108
20
-126.391
11
177.105
21
-126.396
0
LINE
5
117
100
AcDbEntity
8
Black
6
ByLayer
62
256
370
-1
100
AcDbLine
10
177.105
20
-126.396
11
177.103
21
-126.402
0
LINE
5
118
100
AcDbEntity
8
Black
6
ByLayer
62
256
370
-1
100
AcDbLine
10
177.103
20
-126.402
11
177.099
21
-126.408
0
LINE
5
119
100
AcDbEntity
8
Black
6
ByLayer
62
256
370
-1
100
AcDbLine
10
177.099
20
-126.408
11
177.095
21
-126.413
0
LINE
5
11A
100
AcDbEntity
8
Black
6
ByLayer
62
256
370
-1
100
AcDbLine
10
177.095
20
-126.413
11
177.09
21
-126.417
0
LINE
5
11B
100
AcDbEntity
8
Black
6
ByLayer
62
256
370
-1
100
AcDbLine
10
177.09
20
-126.417
11
177.086
21
-126.422
0
LINE
5
11C
100
AcDbEntity
8
Black
6
ByLayer
62
256
370
-1
100
AcDbLine
10
177.086
20
-126.422
11
177.081
21
-126.426
0
LINE
5
11D
100
AcDbEntity
8
Black
6
ByLayer
62
256
370
-1
100
AcDbLine
10
177.081
20
-126.426
11
177.076
21
-126.43
0
LINE
5
11E
100
AcDbEntity
8
Black
6
ByLayer
62
256
370
-1
100
AcDbLine
10
177.076
20
-126.43
11
177.069
21
-126.432
0
LINE
5
11F
100
AcDbEntity
8
Black
6
ByLayer
62
256
370
-1
100
AcDbLine
10
177.069
20
-126.432
11
177.064
21
-126.435
0
LINE
5
120
100
AcDbEntity
8
Black
6
ByLayer
62
256
370
-1
100
AcDbLine
10
177.064
20
-126.435
11
177.057
21
-126.437
0
LINE
5
121
100
AcDbEntity
8
Black
6
ByLayer
62
256
370
-1
100
AcDbLine
10
177.057
20
-126.437
11
177.051
21
-126.439
0
LINE
5
122
100
AcDbEntity
8
Black
6
ByLayer
62
256
370
-1
100
AcDbLine
10
177.051
20
-126.439
11
177.044
21
-126.439
0
LINE
5
123
100
AcDbEntity
8
Black
6
ByLayer
62
256
370
-1
100
AcDbLine
10
177.044
20
-126.439
11
177.038
21
-126.44
0
LINE
5
124
100
AcDbEntity
8
Black
6
ByLayer
62
256
370
-1
100
AcDbLine
10
177.038
20
-126.44
11
110.998
21
-126.44
0
LINE
5
125
100
AcDbEntity
8
Black
6
ByLayer
62
256
370
-1
100
AcDbLine
10
110.998
20
-126.44
11
110.992
21
-126.439
0
LINE
5
126
100
AcDbEntity
8
Black
6
ByLayer
62
256
370
-1
100
AcDbLine
10
110.992
20
-126.439
11
110.985
21
-126.439
0
LINE
5
127
100
AcDbEntity
8
Black
6
ByLayer
62
256
370
-1
100
AcDbLine
10
110.985
20
-126.439
11
110.979
21
-126.437
0
LINE
5
128
100
AcDbEntity
8
Black
6
ByLayer
62
256
370
-1
100
AcDbLine
10
110.979
20
-126.437
11
110.972
21
-126.435
0
LINE
5
129
100
AcDbEntity
8
Black
6
ByLayer
62
256
370
-1
100
AcDbLine
10
110.972
20
-126.435
11
110.967
21
-126.432
0
LINE
5
12A
100
AcDbEntity
8
Black
6
ByLayer
62
256
370
-1
100
AcDbLine
10
110.967
20
-126.432
11
110.96
21
-126.43
0
LINE
5
12B
100
AcDbEntity
8
Black
6
ByLayer
62
256
370
-1
100
AcDbLine
10
110.96
20
-126.43
11
110.955
21
-126.426
0
LINE
5
12C
100
AcDbEntity
8
Black
6
ByLayer
62
256
370
-1
100
AcDbLine
10
110.955
20
-126.426
11
110.95
21
-126.422
0
LINE
5
12D
100
AcDbEntity
8
Black
6
ByLayer
62
256
370
-1
100
AcDbLine
10
110.95
20
-126.422
11
110.946
21
-126.417
0
LINE
5
12E
100
AcDbEntity
8
Black
6
ByLayer
62
256
370
-1
100
AcDbLine
10
110.946
20
-126.417
11
110.941
21
-126.413
0
LINE
5
12F
100
AcDbEntity
8
Black
6
ByLayer
62
256
370
-1
100
AcDbLine
10
110.941
20
-126.413
11
110.937
21
-126.408
0
LINE
5
130
100
AcDbEntity
8
Black
6
ByLayer
62
256
370
-1
100
AcDbLine
10
110.937
20
-126.408
11
110.933
21
-126.402
0
LINE
5
131
100
AcDbEntity
8
Black
6
ByLayer
62
256
370
-1
100
AcDbLine
10
110.933
20
-126.402
11
110.931
21
-126.396
0
LINE
5
132
100
AcDbEntity
8
Black
6
ByLayer
62
256
370
-1
100
AcDbLine
10
110.931
20
-126.396
11
110.928
21
-126.391
0
LINE
5
133
100
AcDbEntity
8
Black
6
ByLayer
62
256
370
-1
100
AcDbLine
10
110.928
20
-126.391
11
110.926
21
-126.384
0
LINE
5
134
100
AcDbEntity
8
Black
6
ByLayer
62
256
370
-1
100
AcDbLine
10
110.926
20
-126.384
11
110.924
21
-126.378
0
LINE
5
135
100
AcDbEntity
8
Black
6
ByLayer
62
256
370
-1
100
AcDbLine
10
110.924
20
-126.378
11
110.924
21
-126.371
0
LINE
5
136
100
AcDbEntity
8
Black
6
ByLayer
62
256
370
-1
100
AcDbLine
10
110.924
20
-126.371
11
110.923
21
-126.365
0
LINE
5
137
100
AcDbEntity
8
Black
6
ByLayer
62
256
370
-1
100
AcDbLine
10
110.923
20
-126.365
11
110.923
21
-73.025
0
LINE
5
138
100
AcDbEntity
8
Black
6
ByLayer
62
256
370
-1
100
AcDbLine
10
110.923
20
-73.025
11
110.924
21
-73.0185
0
LINE
5
139
100
AcDbEntity
8
Black
6
ByLayer
62
256
370
-1
100
AcDbLine
10
110.924
20
-73.0185
11
110.924
21
-73.012
0
LINE
5
13A
100
AcDbEntity
8
Black
6
ByLayer
62
256
370
-1
100
AcDbLine
10
110.924
20
-73.012
11
110.926
21
-73.0058
0
LINE
5
13B
100
AcDbEntity
8
Black
6
ByLayer
62
256
370
-1
100
AcDbLine
10
110.926
20
-73.0058
11
110.928
21
-72.9993
0
LINE
5
13C
100
AcDbEntity
8
Black
6
ByLayer
62
256
370
-1
100
AcDbLine
10
110.928
20
-72.9993
11
110.931
21
-72.9937
0
LINE
5
13D
100
AcDbEntity
8
Black
6
ByLayer
62
256
370
-1
100
AcDbLine
10
110.931
20
-72.9937
11
110.933
21
-72.9875
0
LINE
5
13E
100
AcDbEntity
8
Black
6
ByLayer
62
256
370
-1
100
AcDbLine
10
110.933
20
-72.9875
11
110.937
21
-72.9825
0
LINE
5
13F
100
AcDbEntity
8
Black
6
ByLayer
62
256
370
-1
100
AcDbLine
10
110.937
20
-72.9825
11
110.941
21
-72.9768
0
LINE
5
140
100
AcDbEntity
8
Black
6
ByLayer
62
256
370
-1
100
AcDbLine
10
110.941
20
-72.9768
11
110.946
21
-72.9726
0
LINE
5
141
100
AcDbEntity
8
Black
6
ByLayer
62
256
370
-1
100
AcDbLine
10
110.946
20
-72.9726
11
110.95
21
-72.9675
0
LINE
5
142
100
AcDbEntity
8
Black
6
ByLayer
62
256
370
-1
100
AcDbLine
10
110.95
20
-72.9675
11
110.955
21
-72.9643
0
LINE
5
143
100
AcDbEntity
8
Black
6
ByLayer
62
256
370
-1
100
AcDbLine
10
110.955
20
-72.9643
11
110.96
21
-72.96
0
LINE
5
144
100
AcDbEntity
8
Black
6
ByLayer
62
256
370
-1
100
AcDbLine
10
110.96
20
-72.96
11
110.967
21
-72.9578
0
LINE
5
145
100
AcDbEntity
8
Black
6
ByLayer
62
256
370
-1
100
AcDbLine
10
110.967
20
-72.9578
11
110.972
21
-72.9545
0
LINE
5
146
100
AcDbEntity
8
Black
6
ByLayer
62
256
370
-1
100
AcDbLine
10
110.972
20
-72.9545
11
110.979
21
-72.9534
0
LINE
5
147
100
AcDbEntity
8
Black
6
ByLayer
62
256
370
-1
100
AcDbLine
10
110.979
20
-72.9534
11
110.985
21
-72.9511
0
LINE
5
148
100
AcDbEntity
8
Black
6
ByLayer
62
256
370
-1
100
AcDbLine
10
110.985
20
-72.9511
11
110.992
21
-72.9511
0
LINE
5
149
100
AcDbEntity
8
Black
6
ByLayer
62
256
370
-1
100
AcDbLine
10
110.992
20
-72.9511
11
110.998
21
-72.95
0
LINE
5
14A
100
AcDbEntity
8
Black
6
ByLayer
62
256
370
-1
100
AcDbLine
10
110.998
20
-72.95
11
175.514
21
-72.95
0
LINE
5
14B
100
AcDbEntity
8
Black
6
ByLayer
62
256
370
-1
100
AcDbLine
10
175.514
20
-72.95
11
175.517
21
-72.9506
0
LINE
5
14C
100
AcDbEntity
8
Black
6
ByLayer
62
256
370
-1
100
AcDbLine
10
111.073
20
-73.1
11
111.073
21
-126.29
0
LINE
5
14D
100
AcDbEntity
8
Black
6
ByLayer
62
256
370
-1
100
AcDbLine
10
111.073
20
-126.29
11
176.963
21
-126.29
0
LINE
5
14E
100
AcDbEntity
8
Black
6
ByLayer
62
256
370
-1
100
AcDbLine
10
176.963
20
-126.29
11
176.963
21
-123.825
0
LINE
5
14F
100
AcDbEntity
8
Black
6
ByLayer
62
256
370
-1
100
AcDbLine
10
176.963
20
-123.825
11
176.964
21
-123.822
0
LINE
5
150
100
AcDbEntity
8
Black
6
ByLayer
62
256
370
-1
100
AcDbLine
10
176.964
20
-123.822
11
176.963
21
-123.818
0
LINE
5
151
100
AcDbEntity
8
Black
6
ByLayer
62
256
370
-1
100
AcDbLine
10
176.963
20
-123.818
11
176.966
21
-123.809
0
LINE
5
152
100
AcDbEntity
8
Black
6
ByLayer
62
256
370
-1
100
AcDbLine
10
176.966
20
-123.809
11
176.968
21
-123.799
0
LINE
5
153
100
AcDbEntity
8
Black
6
ByLayer
62
256
370
-1
100
AcDbLine
10
176.968
20
-123.799
11
176.969
21
-123.796
0
LINE
5
154
100
AcDbEntity
8
Black
6
ByLayer
62
256
370
-1
100
AcDbLine
10
176.969
20
-123.796
11
176.97
21
-123.793
0
LINE
5
155
100
AcDbEntity
8
Black
6
ByLayer
62
256
370
-1
100
AcDbLine
10
176.97
20
-123.793
11
176.976
21
-123.785
0
LINE
5
156
100
AcDbEntity
8
Black
6
ByLayer
62
256
370
-1
100
AcDbLine
10
176.976
20
-123.785
11
176.981
21
-123.777
0
LINE
5
157
100
AcDbEntity
8
Black
6
ByLayer
62
256
370
-1
100
AcDbLine
10
176.981
20
-123.777
11
176.983
21
-123.775
0
LINE
5
158
100
AcDbEntity
8
Black
6
ByLayer
62
256
370
-1
100
AcDbLine
10
176.983
20
-123.775
11
176.985
21
-123.772
0
LINE
5
159
100
AcDbEntity
8
Black
6
ByLayer
62
256
370
-1
100
AcDbLine
10
176.985
20
-123.772
11
179.503
21
-121.254
0
LINE
5
15A
100
AcDbEntity
8
Black
6
ByLayer
62
256
370
-1
100
AcDbLine
10
179.503
20
-121.254
11
179.503
21
-88.5501
0
LINE
5
15B
100
AcDbEntity
8
Black
6
ByLayer
62
256
370
-1
100
AcDbLine
10
179.503
20
-88.5501
11
176.985
21
-86.032
0
LINE
5
15C
100
AcDbEntity
8
Black
6
ByLayer
62
256
370
-1
100
AcDbLine
10
176.985
20
-86.032
11
176.983
21
-86.0293
0
LINE
5
15D
100
AcDbEntity
8
Black
6
ByLayer
62
256
370
-1
100
AcDbLine
10
176.983
20
-86.0293
11
176.981
21
-86.0272
0
LINE
5
15E
100
AcDbEntity
8
Black
6
ByLayer
62
256
370
-1
100
AcDbLine
10
176.981
20
-86.0272
11
176.976
21
-86.0187
0
LINE
5
15F
100
AcDbEntity
8
Black
6
ByLayer
62
256
370
-1
100
AcDbLine
10
176.976
20
-86.0187
11
176.97
21
-86.0107
0
LINE
5
160
100
AcDbEntity
8
Black
6
ByLayer
62
256
370
-1
100
AcDbLine
10
176.97
20
-86.0107
11
176.969
21
-86.0075
0
LINE
5
161
100
AcDbEntity
8
Black
6
ByLayer
62
256
370
-1
100
AcDbLine
10
176.969
20
-86.0075
11
176.968
21
-86.0047
0
LINE
5
162
100
AcDbEntity
8
Black
6
ByLayer
62
256
370
-1
100
AcDbLine
10
176.968
20
-86.0047
11
176.966
21
-85.995
0
LINE
5
163
100
AcDbEntity
8
Black
6
ByLayer
62
256
370
-1
100
AcDbLine
10
176.966
20
-85.995
11
176.963
21
-85.9855
0
LINE
5
164
100
AcDbEntity
8
Black
6
ByLayer
62
256
370
-1
100
AcDbLine
10
176.963
20
-85.9855
11
176.964
21
-85.9823
0
LINE
5
165
100
AcDbEntity
8
Black
6
ByLayer
62
256
370
-1
100
AcDbLine
10
176.964
20
-85.9823
11
176.963
21
-85.979
0
LINE
5
166
100
AcDbEntity
8
Black
6
ByLayer
62
256
370
-1
100
AcDbLine
10
176.963
20
-85.979
11
176.963
21
-74.5801
0
LINE
5
167
100
AcDbEntity
8
Black
6
ByLayer
62
256
370
-1
100
AcDbLine
10
176.963
20
-74.5801
11
175.483
21
-73.1
0
LINE
5
168
100
AcDbEntity
8
Black
6
ByLayer
62
256
370
-1
100
AcDbLine
10
175.483
20
-73.1
11
111.073
21
-73.1
0
ENDSEC
0
SECTION
2
OBJECTS
0
DICTIONARY
5
C
330
0
100
AcDbDictionary
281
1
3
ACAD_GROUP
350
D
0
DICTIONARY
5
D
330
C
100
AcDbDictionary
281
1
0
ENDSEC
0
EOF
