G04 #@! TF.FileFunction,Copper,L2,Bot,Signal*
%FSLAX46Y46*%
G04 Gerber Fmt 4.6, Leading zero omitted, Abs format (unit mm)*
G04 Created by KiCad (PCBNEW 4.0.6+dfsg1-1) date Mon Oct 16 00:48:50 2017*
%MOMM*%
%LPD*%
G01*
G04 APERTURE LIST*
%ADD10C,0.100000*%
%ADD11C,0.150000*%
%ADD12C,2.500000*%
%ADD13C,1.000000*%
%ADD14C,3.000000*%
%ADD15C,0.600000*%
%ADD16C,0.635000*%
%ADD17C,0.254000*%
G04 APERTURE END LIST*
D10*
D11*
X181000000Y-127500000D02*
X181000000Y-109000000D01*
X117000000Y-127500000D02*
X181000000Y-127500000D01*
X117000000Y-109000000D02*
X117000000Y-127500000D01*
X181000000Y-109000000D02*
X117000000Y-109000000D01*
D12*
X127500000Y-124500000D03*
X122400000Y-124500000D03*
X132600000Y-124500000D03*
D13*
X170000000Y-112500000D03*
X171250000Y-112500000D03*
X172500000Y-112500000D03*
X173750000Y-112500000D03*
X175000000Y-112500000D03*
X176250000Y-112500000D03*
D12*
X170500000Y-124500000D03*
X165400000Y-124500000D03*
X175600000Y-124500000D03*
D14*
X149000000Y-115000000D03*
X156000000Y-115000000D03*
D15*
X166370000Y-120015000D03*
X169545000Y-116205000D03*
D16*
X166900000Y-120545000D02*
X166900000Y-123000000D01*
X166370000Y-120015000D02*
X166900000Y-120545000D01*
X166900000Y-123000000D02*
X165400000Y-124500000D01*
X170000000Y-115750000D02*
X170000000Y-112500000D01*
X169545000Y-116205000D02*
X170000000Y-115750000D01*
D17*
G36*
X180290000Y-126790000D02*
X117710000Y-126790000D01*
X117710000Y-124873305D01*
X120514674Y-124873305D01*
X120801043Y-125566372D01*
X121330839Y-126097093D01*
X122023405Y-126384672D01*
X122773305Y-126385326D01*
X123466372Y-126098957D01*
X123997093Y-125569161D01*
X124284672Y-124876595D01*
X124284674Y-124873305D01*
X125614674Y-124873305D01*
X125901043Y-125566372D01*
X126430839Y-126097093D01*
X127123405Y-126384672D01*
X127873305Y-126385326D01*
X128566372Y-126098957D01*
X128832472Y-125833320D01*
X131446285Y-125833320D01*
X131575533Y-126126123D01*
X132275806Y-126394388D01*
X133025435Y-126374250D01*
X133624467Y-126126123D01*
X133753715Y-125833320D01*
X132600000Y-124679605D01*
X131446285Y-125833320D01*
X128832472Y-125833320D01*
X129097093Y-125569161D01*
X129384672Y-124876595D01*
X129385283Y-124175806D01*
X130705612Y-124175806D01*
X130725750Y-124925435D01*
X130973877Y-125524467D01*
X131266680Y-125653715D01*
X132420395Y-124500000D01*
X132779605Y-124500000D01*
X133933320Y-125653715D01*
X134226123Y-125524467D01*
X134475574Y-124873305D01*
X163514674Y-124873305D01*
X163801043Y-125566372D01*
X164330839Y-126097093D01*
X165023405Y-126384672D01*
X165773305Y-126385326D01*
X166466372Y-126098957D01*
X166997093Y-125569161D01*
X167284672Y-124876595D01*
X167284674Y-124873305D01*
X168614674Y-124873305D01*
X168901043Y-125566372D01*
X169430839Y-126097093D01*
X170123405Y-126384672D01*
X170873305Y-126385326D01*
X171566372Y-126098957D01*
X171832472Y-125833320D01*
X174446285Y-125833320D01*
X174575533Y-126126123D01*
X175275806Y-126394388D01*
X176025435Y-126374250D01*
X176624467Y-126126123D01*
X176753715Y-125833320D01*
X175600000Y-124679605D01*
X174446285Y-125833320D01*
X171832472Y-125833320D01*
X172097093Y-125569161D01*
X172384672Y-124876595D01*
X172385283Y-124175806D01*
X173705612Y-124175806D01*
X173725750Y-124925435D01*
X173973877Y-125524467D01*
X174266680Y-125653715D01*
X175420395Y-124500000D01*
X175779605Y-124500000D01*
X176933320Y-125653715D01*
X177226123Y-125524467D01*
X177494388Y-124824194D01*
X177474250Y-124074565D01*
X177226123Y-123475533D01*
X176933320Y-123346285D01*
X175779605Y-124500000D01*
X175420395Y-124500000D01*
X174266680Y-123346285D01*
X173973877Y-123475533D01*
X173705612Y-124175806D01*
X172385283Y-124175806D01*
X172385326Y-124126695D01*
X172098957Y-123433628D01*
X171832475Y-123166680D01*
X174446285Y-123166680D01*
X175600000Y-124320395D01*
X176753715Y-123166680D01*
X176624467Y-122873877D01*
X175924194Y-122605612D01*
X175174565Y-122625750D01*
X174575533Y-122873877D01*
X174446285Y-123166680D01*
X171832475Y-123166680D01*
X171569161Y-122902907D01*
X170876595Y-122615328D01*
X170126695Y-122614674D01*
X169433628Y-122901043D01*
X168902907Y-123430839D01*
X168615328Y-124123405D01*
X168614674Y-124873305D01*
X167284674Y-124873305D01*
X167285326Y-124126695D01*
X167237088Y-124009950D01*
X167573519Y-123673519D01*
X167779995Y-123364506D01*
X167819345Y-123166680D01*
X167852500Y-123000000D01*
X167852500Y-120545000D01*
X167779995Y-120180494D01*
X167573519Y-119871481D01*
X167043519Y-119341481D01*
X166969264Y-119291865D01*
X166900327Y-119222808D01*
X166809416Y-119185058D01*
X166734506Y-119135005D01*
X166646917Y-119117582D01*
X166556799Y-119080162D01*
X166458362Y-119080076D01*
X166370000Y-119062500D01*
X166282409Y-119079923D01*
X166184833Y-119079838D01*
X166093857Y-119117428D01*
X166005494Y-119135005D01*
X165931239Y-119184621D01*
X165841057Y-119221883D01*
X165771390Y-119291428D01*
X165696481Y-119341481D01*
X165646865Y-119415736D01*
X165577808Y-119484673D01*
X165540058Y-119575584D01*
X165490005Y-119650494D01*
X165472582Y-119738083D01*
X165435162Y-119828201D01*
X165435076Y-119926638D01*
X165417500Y-120015000D01*
X165434923Y-120102591D01*
X165434838Y-120200167D01*
X165472428Y-120291143D01*
X165490005Y-120379506D01*
X165539621Y-120453761D01*
X165576883Y-120543943D01*
X165646428Y-120613610D01*
X165696481Y-120688519D01*
X165947500Y-120939538D01*
X165947500Y-122605462D01*
X165890384Y-122662578D01*
X165776595Y-122615328D01*
X165026695Y-122614674D01*
X164333628Y-122901043D01*
X163802907Y-123430839D01*
X163515328Y-124123405D01*
X163514674Y-124873305D01*
X134475574Y-124873305D01*
X134494388Y-124824194D01*
X134474250Y-124074565D01*
X134226123Y-123475533D01*
X133933320Y-123346285D01*
X132779605Y-124500000D01*
X132420395Y-124500000D01*
X131266680Y-123346285D01*
X130973877Y-123475533D01*
X130705612Y-124175806D01*
X129385283Y-124175806D01*
X129385326Y-124126695D01*
X129098957Y-123433628D01*
X128832475Y-123166680D01*
X131446285Y-123166680D01*
X132600000Y-124320395D01*
X133753715Y-123166680D01*
X133624467Y-122873877D01*
X132924194Y-122605612D01*
X132174565Y-122625750D01*
X131575533Y-122873877D01*
X131446285Y-123166680D01*
X128832475Y-123166680D01*
X128569161Y-122902907D01*
X127876595Y-122615328D01*
X127126695Y-122614674D01*
X126433628Y-122901043D01*
X125902907Y-123430839D01*
X125615328Y-124123405D01*
X125614674Y-124873305D01*
X124284674Y-124873305D01*
X124285326Y-124126695D01*
X123998957Y-123433628D01*
X123469161Y-122902907D01*
X122776595Y-122615328D01*
X122026695Y-122614674D01*
X121333628Y-122901043D01*
X120802907Y-123430839D01*
X120515328Y-124123405D01*
X120514674Y-124873305D01*
X117710000Y-124873305D01*
X117710000Y-115422815D01*
X146864630Y-115422815D01*
X147188980Y-116207800D01*
X147789041Y-116808909D01*
X148573459Y-117134628D01*
X149422815Y-117135370D01*
X150207800Y-116811020D01*
X150505368Y-116513970D01*
X154665635Y-116513970D01*
X154825418Y-116832739D01*
X155616187Y-117142723D01*
X156465387Y-117126497D01*
X157174582Y-116832739D01*
X157334365Y-116513970D01*
X156000000Y-115179605D01*
X154665635Y-116513970D01*
X150505368Y-116513970D01*
X150808909Y-116210959D01*
X151134628Y-115426541D01*
X151135335Y-114616187D01*
X153857277Y-114616187D01*
X153873503Y-115465387D01*
X154167261Y-116174582D01*
X154486030Y-116334365D01*
X155820395Y-115000000D01*
X156179605Y-115000000D01*
X157513970Y-116334365D01*
X157772054Y-116205000D01*
X168592500Y-116205000D01*
X168609923Y-116292591D01*
X168609838Y-116390167D01*
X168647428Y-116481143D01*
X168665005Y-116569506D01*
X168714621Y-116643761D01*
X168751883Y-116733943D01*
X168821428Y-116803610D01*
X168871481Y-116878519D01*
X168945736Y-116928135D01*
X169014673Y-116997192D01*
X169105584Y-117034942D01*
X169180494Y-117084995D01*
X169268083Y-117102418D01*
X169358201Y-117139838D01*
X169456638Y-117139924D01*
X169545000Y-117157500D01*
X169632591Y-117140077D01*
X169730167Y-117140162D01*
X169821143Y-117102572D01*
X169909506Y-117084995D01*
X169983761Y-117035379D01*
X170073943Y-116998117D01*
X170143610Y-116928572D01*
X170218519Y-116878519D01*
X170673519Y-116423519D01*
X170879995Y-116114506D01*
X170952500Y-115750000D01*
X170952500Y-113605427D01*
X171023244Y-113634803D01*
X171474775Y-113635197D01*
X171875471Y-113469632D01*
X172273244Y-113634803D01*
X172724775Y-113635197D01*
X173125471Y-113469632D01*
X173523244Y-113634803D01*
X173974775Y-113635197D01*
X174375471Y-113469632D01*
X174773244Y-113634803D01*
X175224775Y-113635197D01*
X175642086Y-113462767D01*
X175665313Y-113439580D01*
X175676648Y-113505217D01*
X176104972Y-113648112D01*
X176555375Y-113616217D01*
X176823352Y-113505217D01*
X176860499Y-113290104D01*
X176250000Y-112679605D01*
X176235858Y-112693748D01*
X176134920Y-112592810D01*
X176135000Y-112500000D01*
X176429605Y-112500000D01*
X177040104Y-113110499D01*
X177255217Y-113073352D01*
X177398112Y-112645028D01*
X177366217Y-112194625D01*
X177255217Y-111926648D01*
X177040104Y-111889501D01*
X176429605Y-112500000D01*
X176135000Y-112500000D01*
X176135082Y-112407028D01*
X176235858Y-112306253D01*
X176250000Y-112320395D01*
X176860499Y-111709896D01*
X176823352Y-111494783D01*
X176395028Y-111351888D01*
X175944625Y-111383783D01*
X175676648Y-111494783D01*
X175665384Y-111560012D01*
X175643765Y-111538355D01*
X175226756Y-111365197D01*
X174775225Y-111364803D01*
X174374529Y-111530368D01*
X173976756Y-111365197D01*
X173525225Y-111364803D01*
X173124529Y-111530368D01*
X172726756Y-111365197D01*
X172275225Y-111364803D01*
X171874529Y-111530368D01*
X171476756Y-111365197D01*
X171025225Y-111364803D01*
X170624529Y-111530368D01*
X170226756Y-111365197D01*
X169775225Y-111364803D01*
X169357914Y-111537233D01*
X169038355Y-111856235D01*
X168865197Y-112273244D01*
X168864803Y-112724775D01*
X169037233Y-113142086D01*
X169047500Y-113152371D01*
X169047500Y-115355462D01*
X168871481Y-115531481D01*
X168821865Y-115605736D01*
X168752808Y-115674673D01*
X168715058Y-115765584D01*
X168665005Y-115840494D01*
X168647582Y-115928083D01*
X168610162Y-116018201D01*
X168610076Y-116116638D01*
X168592500Y-116205000D01*
X157772054Y-116205000D01*
X157832739Y-116174582D01*
X158142723Y-115383813D01*
X158126497Y-114534613D01*
X157832739Y-113825418D01*
X157513970Y-113665635D01*
X156179605Y-115000000D01*
X155820395Y-115000000D01*
X154486030Y-113665635D01*
X154167261Y-113825418D01*
X153857277Y-114616187D01*
X151135335Y-114616187D01*
X151135370Y-114577185D01*
X150811020Y-113792200D01*
X150505384Y-113486030D01*
X154665635Y-113486030D01*
X156000000Y-114820395D01*
X157334365Y-113486030D01*
X157174582Y-113167261D01*
X156383813Y-112857277D01*
X155534613Y-112873503D01*
X154825418Y-113167261D01*
X154665635Y-113486030D01*
X150505384Y-113486030D01*
X150210959Y-113191091D01*
X149426541Y-112865372D01*
X148577185Y-112864630D01*
X147792200Y-113188980D01*
X147191091Y-113789041D01*
X146865372Y-114573459D01*
X146864630Y-115422815D01*
X117710000Y-115422815D01*
X117710000Y-109710000D01*
X180290000Y-109710000D01*
X180290000Y-126790000D01*
X180290000Y-126790000D01*
G37*
X180290000Y-126790000D02*
X117710000Y-126790000D01*
X117710000Y-124873305D01*
X120514674Y-124873305D01*
X120801043Y-125566372D01*
X121330839Y-126097093D01*
X122023405Y-126384672D01*
X122773305Y-126385326D01*
X123466372Y-126098957D01*
X123997093Y-125569161D01*
X124284672Y-124876595D01*
X124284674Y-124873305D01*
X125614674Y-124873305D01*
X125901043Y-125566372D01*
X126430839Y-126097093D01*
X127123405Y-126384672D01*
X127873305Y-126385326D01*
X128566372Y-126098957D01*
X128832472Y-125833320D01*
X131446285Y-125833320D01*
X131575533Y-126126123D01*
X132275806Y-126394388D01*
X133025435Y-126374250D01*
X133624467Y-126126123D01*
X133753715Y-125833320D01*
X132600000Y-124679605D01*
X131446285Y-125833320D01*
X128832472Y-125833320D01*
X129097093Y-125569161D01*
X129384672Y-124876595D01*
X129385283Y-124175806D01*
X130705612Y-124175806D01*
X130725750Y-124925435D01*
X130973877Y-125524467D01*
X131266680Y-125653715D01*
X132420395Y-124500000D01*
X132779605Y-124500000D01*
X133933320Y-125653715D01*
X134226123Y-125524467D01*
X134475574Y-124873305D01*
X163514674Y-124873305D01*
X163801043Y-125566372D01*
X164330839Y-126097093D01*
X165023405Y-126384672D01*
X165773305Y-126385326D01*
X166466372Y-126098957D01*
X166997093Y-125569161D01*
X167284672Y-124876595D01*
X167284674Y-124873305D01*
X168614674Y-124873305D01*
X168901043Y-125566372D01*
X169430839Y-126097093D01*
X170123405Y-126384672D01*
X170873305Y-126385326D01*
X171566372Y-126098957D01*
X171832472Y-125833320D01*
X174446285Y-125833320D01*
X174575533Y-126126123D01*
X175275806Y-126394388D01*
X176025435Y-126374250D01*
X176624467Y-126126123D01*
X176753715Y-125833320D01*
X175600000Y-124679605D01*
X174446285Y-125833320D01*
X171832472Y-125833320D01*
X172097093Y-125569161D01*
X172384672Y-124876595D01*
X172385283Y-124175806D01*
X173705612Y-124175806D01*
X173725750Y-124925435D01*
X173973877Y-125524467D01*
X174266680Y-125653715D01*
X175420395Y-124500000D01*
X175779605Y-124500000D01*
X176933320Y-125653715D01*
X177226123Y-125524467D01*
X177494388Y-124824194D01*
X177474250Y-124074565D01*
X177226123Y-123475533D01*
X176933320Y-123346285D01*
X175779605Y-124500000D01*
X175420395Y-124500000D01*
X174266680Y-123346285D01*
X173973877Y-123475533D01*
X173705612Y-124175806D01*
X172385283Y-124175806D01*
X172385326Y-124126695D01*
X172098957Y-123433628D01*
X171832475Y-123166680D01*
X174446285Y-123166680D01*
X175600000Y-124320395D01*
X176753715Y-123166680D01*
X176624467Y-122873877D01*
X175924194Y-122605612D01*
X175174565Y-122625750D01*
X174575533Y-122873877D01*
X174446285Y-123166680D01*
X171832475Y-123166680D01*
X171569161Y-122902907D01*
X170876595Y-122615328D01*
X170126695Y-122614674D01*
X169433628Y-122901043D01*
X168902907Y-123430839D01*
X168615328Y-124123405D01*
X168614674Y-124873305D01*
X167284674Y-124873305D01*
X167285326Y-124126695D01*
X167237088Y-124009950D01*
X167573519Y-123673519D01*
X167779995Y-123364506D01*
X167819345Y-123166680D01*
X167852500Y-123000000D01*
X167852500Y-120545000D01*
X167779995Y-120180494D01*
X167573519Y-119871481D01*
X167043519Y-119341481D01*
X166969264Y-119291865D01*
X166900327Y-119222808D01*
X166809416Y-119185058D01*
X166734506Y-119135005D01*
X166646917Y-119117582D01*
X166556799Y-119080162D01*
X166458362Y-119080076D01*
X166370000Y-119062500D01*
X166282409Y-119079923D01*
X166184833Y-119079838D01*
X166093857Y-119117428D01*
X166005494Y-119135005D01*
X165931239Y-119184621D01*
X165841057Y-119221883D01*
X165771390Y-119291428D01*
X165696481Y-119341481D01*
X165646865Y-119415736D01*
X165577808Y-119484673D01*
X165540058Y-119575584D01*
X165490005Y-119650494D01*
X165472582Y-119738083D01*
X165435162Y-119828201D01*
X165435076Y-119926638D01*
X165417500Y-120015000D01*
X165434923Y-120102591D01*
X165434838Y-120200167D01*
X165472428Y-120291143D01*
X165490005Y-120379506D01*
X165539621Y-120453761D01*
X165576883Y-120543943D01*
X165646428Y-120613610D01*
X165696481Y-120688519D01*
X165947500Y-120939538D01*
X165947500Y-122605462D01*
X165890384Y-122662578D01*
X165776595Y-122615328D01*
X165026695Y-122614674D01*
X164333628Y-122901043D01*
X163802907Y-123430839D01*
X163515328Y-124123405D01*
X163514674Y-124873305D01*
X134475574Y-124873305D01*
X134494388Y-124824194D01*
X134474250Y-124074565D01*
X134226123Y-123475533D01*
X133933320Y-123346285D01*
X132779605Y-124500000D01*
X132420395Y-124500000D01*
X131266680Y-123346285D01*
X130973877Y-123475533D01*
X130705612Y-124175806D01*
X129385283Y-124175806D01*
X129385326Y-124126695D01*
X129098957Y-123433628D01*
X128832475Y-123166680D01*
X131446285Y-123166680D01*
X132600000Y-124320395D01*
X133753715Y-123166680D01*
X133624467Y-122873877D01*
X132924194Y-122605612D01*
X132174565Y-122625750D01*
X131575533Y-122873877D01*
X131446285Y-123166680D01*
X128832475Y-123166680D01*
X128569161Y-122902907D01*
X127876595Y-122615328D01*
X127126695Y-122614674D01*
X126433628Y-122901043D01*
X125902907Y-123430839D01*
X125615328Y-124123405D01*
X125614674Y-124873305D01*
X124284674Y-124873305D01*
X124285326Y-124126695D01*
X123998957Y-123433628D01*
X123469161Y-122902907D01*
X122776595Y-122615328D01*
X122026695Y-122614674D01*
X121333628Y-122901043D01*
X120802907Y-123430839D01*
X120515328Y-124123405D01*
X120514674Y-124873305D01*
X117710000Y-124873305D01*
X117710000Y-115422815D01*
X146864630Y-115422815D01*
X147188980Y-116207800D01*
X147789041Y-116808909D01*
X148573459Y-117134628D01*
X149422815Y-117135370D01*
X150207800Y-116811020D01*
X150505368Y-116513970D01*
X154665635Y-116513970D01*
X154825418Y-116832739D01*
X155616187Y-117142723D01*
X156465387Y-117126497D01*
X157174582Y-116832739D01*
X157334365Y-116513970D01*
X156000000Y-115179605D01*
X154665635Y-116513970D01*
X150505368Y-116513970D01*
X150808909Y-116210959D01*
X151134628Y-115426541D01*
X151135335Y-114616187D01*
X153857277Y-114616187D01*
X153873503Y-115465387D01*
X154167261Y-116174582D01*
X154486030Y-116334365D01*
X155820395Y-115000000D01*
X156179605Y-115000000D01*
X157513970Y-116334365D01*
X157772054Y-116205000D01*
X168592500Y-116205000D01*
X168609923Y-116292591D01*
X168609838Y-116390167D01*
X168647428Y-116481143D01*
X168665005Y-116569506D01*
X168714621Y-116643761D01*
X168751883Y-116733943D01*
X168821428Y-116803610D01*
X168871481Y-116878519D01*
X168945736Y-116928135D01*
X169014673Y-116997192D01*
X169105584Y-117034942D01*
X169180494Y-117084995D01*
X169268083Y-117102418D01*
X169358201Y-117139838D01*
X169456638Y-117139924D01*
X169545000Y-117157500D01*
X169632591Y-117140077D01*
X169730167Y-117140162D01*
X169821143Y-117102572D01*
X169909506Y-117084995D01*
X169983761Y-117035379D01*
X170073943Y-116998117D01*
X170143610Y-116928572D01*
X170218519Y-116878519D01*
X170673519Y-116423519D01*
X170879995Y-116114506D01*
X170952500Y-115750000D01*
X170952500Y-113605427D01*
X171023244Y-113634803D01*
X171474775Y-113635197D01*
X171875471Y-113469632D01*
X172273244Y-113634803D01*
X172724775Y-113635197D01*
X173125471Y-113469632D01*
X173523244Y-113634803D01*
X173974775Y-113635197D01*
X174375471Y-113469632D01*
X174773244Y-113634803D01*
X175224775Y-113635197D01*
X175642086Y-113462767D01*
X175665313Y-113439580D01*
X175676648Y-113505217D01*
X176104972Y-113648112D01*
X176555375Y-113616217D01*
X176823352Y-113505217D01*
X176860499Y-113290104D01*
X176250000Y-112679605D01*
X176235858Y-112693748D01*
X176134920Y-112592810D01*
X176135000Y-112500000D01*
X176429605Y-112500000D01*
X177040104Y-113110499D01*
X177255217Y-113073352D01*
X177398112Y-112645028D01*
X177366217Y-112194625D01*
X177255217Y-111926648D01*
X177040104Y-111889501D01*
X176429605Y-112500000D01*
X176135000Y-112500000D01*
X176135082Y-112407028D01*
X176235858Y-112306253D01*
X176250000Y-112320395D01*
X176860499Y-111709896D01*
X176823352Y-111494783D01*
X176395028Y-111351888D01*
X175944625Y-111383783D01*
X175676648Y-111494783D01*
X175665384Y-111560012D01*
X175643765Y-111538355D01*
X175226756Y-111365197D01*
X174775225Y-111364803D01*
X174374529Y-111530368D01*
X173976756Y-111365197D01*
X173525225Y-111364803D01*
X173124529Y-111530368D01*
X172726756Y-111365197D01*
X172275225Y-111364803D01*
X171874529Y-111530368D01*
X171476756Y-111365197D01*
X171025225Y-111364803D01*
X170624529Y-111530368D01*
X170226756Y-111365197D01*
X169775225Y-111364803D01*
X169357914Y-111537233D01*
X169038355Y-111856235D01*
X168865197Y-112273244D01*
X168864803Y-112724775D01*
X169037233Y-113142086D01*
X169047500Y-113152371D01*
X169047500Y-115355462D01*
X168871481Y-115531481D01*
X168821865Y-115605736D01*
X168752808Y-115674673D01*
X168715058Y-115765584D01*
X168665005Y-115840494D01*
X168647582Y-115928083D01*
X168610162Y-116018201D01*
X168610076Y-116116638D01*
X168592500Y-116205000D01*
X157772054Y-116205000D01*
X157832739Y-116174582D01*
X158142723Y-115383813D01*
X158126497Y-114534613D01*
X157832739Y-113825418D01*
X157513970Y-113665635D01*
X156179605Y-115000000D01*
X155820395Y-115000000D01*
X154486030Y-113665635D01*
X154167261Y-113825418D01*
X153857277Y-114616187D01*
X151135335Y-114616187D01*
X151135370Y-114577185D01*
X150811020Y-113792200D01*
X150505384Y-113486030D01*
X154665635Y-113486030D01*
X156000000Y-114820395D01*
X157334365Y-113486030D01*
X157174582Y-113167261D01*
X156383813Y-112857277D01*
X155534613Y-112873503D01*
X154825418Y-113167261D01*
X154665635Y-113486030D01*
X150505384Y-113486030D01*
X150210959Y-113191091D01*
X149426541Y-112865372D01*
X148577185Y-112864630D01*
X147792200Y-113188980D01*
X147191091Y-113789041D01*
X146865372Y-114573459D01*
X146864630Y-115422815D01*
X117710000Y-115422815D01*
X117710000Y-109710000D01*
X180290000Y-109710000D01*
X180290000Y-126790000D01*
M02*
