G04 #@! TF.FileFunction,Legend,Top*
%FSLAX46Y46*%
G04 Gerber Fmt 4.6, Leading zero omitted, Abs format (unit mm)*
G04 Created by KiCad (PCBNEW 4.0.6+dfsg1-1) date Mon Oct 16 01:04:24 2017*
%MOMM*%
%LPD*%
G01*
G04 APERTURE LIST*
%ADD10C,0.100000*%
%ADD11C,0.300000*%
%ADD12C,0.150000*%
%ADD13C,0.120000*%
G04 APERTURE END LIST*
D10*
D11*
X137964286Y-119678571D02*
X137964286Y-120892857D01*
X138035714Y-121035714D01*
X138107143Y-121107143D01*
X138250000Y-121178571D01*
X138535714Y-121178571D01*
X138678572Y-121107143D01*
X138750000Y-121035714D01*
X138821429Y-120892857D01*
X138821429Y-119678571D01*
X139535715Y-120178571D02*
X139535715Y-121178571D01*
X139535715Y-120321429D02*
X139607143Y-120250000D01*
X139750001Y-120178571D01*
X139964286Y-120178571D01*
X140107143Y-120250000D01*
X140178572Y-120392857D01*
X140178572Y-121178571D01*
X140892858Y-120178571D02*
X140892858Y-121178571D01*
X140892858Y-120321429D02*
X140964286Y-120250000D01*
X141107144Y-120178571D01*
X141321429Y-120178571D01*
X141464286Y-120250000D01*
X141535715Y-120392857D01*
X141535715Y-121178571D01*
X142892858Y-121178571D02*
X142892858Y-120392857D01*
X142821429Y-120250000D01*
X142678572Y-120178571D01*
X142392858Y-120178571D01*
X142250001Y-120250000D01*
X142892858Y-121107143D02*
X142750001Y-121178571D01*
X142392858Y-121178571D01*
X142250001Y-121107143D01*
X142178572Y-120964286D01*
X142178572Y-120821429D01*
X142250001Y-120678571D01*
X142392858Y-120607143D01*
X142750001Y-120607143D01*
X142892858Y-120535714D01*
X143392858Y-120178571D02*
X143964287Y-120178571D01*
X143607144Y-119678571D02*
X143607144Y-120964286D01*
X143678572Y-121107143D01*
X143821430Y-121178571D01*
X143964287Y-121178571D01*
X145107144Y-120178571D02*
X145107144Y-121178571D01*
X144464287Y-120178571D02*
X144464287Y-120964286D01*
X144535715Y-121107143D01*
X144678573Y-121178571D01*
X144892858Y-121178571D01*
X145035715Y-121107143D01*
X145107144Y-121035714D01*
X145821430Y-121178571D02*
X145821430Y-120178571D01*
X145821430Y-120464286D02*
X145892858Y-120321429D01*
X145964287Y-120250000D01*
X146107144Y-120178571D01*
X146250001Y-120178571D01*
X147392858Y-121178571D02*
X147392858Y-120392857D01*
X147321429Y-120250000D01*
X147178572Y-120178571D01*
X146892858Y-120178571D01*
X146750001Y-120250000D01*
X147392858Y-121107143D02*
X147250001Y-121178571D01*
X146892858Y-121178571D01*
X146750001Y-121107143D01*
X146678572Y-120964286D01*
X146678572Y-120821429D01*
X146750001Y-120678571D01*
X146892858Y-120607143D01*
X147250001Y-120607143D01*
X147392858Y-120535714D01*
X148321430Y-121178571D02*
X148178572Y-121107143D01*
X148107144Y-120964286D01*
X148107144Y-119678571D01*
X149607144Y-121178571D02*
X148892858Y-121178571D01*
X148892858Y-119678571D01*
X150107144Y-121178571D02*
X150107144Y-120178571D01*
X150107144Y-119678571D02*
X150035715Y-119750000D01*
X150107144Y-119821429D01*
X150178572Y-119750000D01*
X150107144Y-119678571D01*
X150107144Y-119821429D01*
X151464287Y-120178571D02*
X151464287Y-121392857D01*
X151392858Y-121535714D01*
X151321430Y-121607143D01*
X151178573Y-121678571D01*
X150964287Y-121678571D01*
X150821430Y-121607143D01*
X151464287Y-121107143D02*
X151321430Y-121178571D01*
X151035716Y-121178571D01*
X150892858Y-121107143D01*
X150821430Y-121035714D01*
X150750001Y-120892857D01*
X150750001Y-120464286D01*
X150821430Y-120321429D01*
X150892858Y-120250000D01*
X151035716Y-120178571D01*
X151321430Y-120178571D01*
X151464287Y-120250000D01*
X152178573Y-121178571D02*
X152178573Y-119678571D01*
X152821430Y-121178571D02*
X152821430Y-120392857D01*
X152750001Y-120250000D01*
X152607144Y-120178571D01*
X152392859Y-120178571D01*
X152250001Y-120250000D01*
X152178573Y-120321429D01*
X153321430Y-120178571D02*
X153892859Y-120178571D01*
X153535716Y-119678571D02*
X153535716Y-120964286D01*
X153607144Y-121107143D01*
X153750002Y-121178571D01*
X153892859Y-121178571D01*
X155964287Y-121750000D02*
X155892859Y-121678571D01*
X155750002Y-121464286D01*
X155678573Y-121321429D01*
X155607144Y-121107143D01*
X155535716Y-120750000D01*
X155535716Y-120464286D01*
X155607144Y-120107143D01*
X155678573Y-119892857D01*
X155750002Y-119750000D01*
X155892859Y-119535714D01*
X155964287Y-119464286D01*
X157250002Y-121178571D02*
X156535716Y-121178571D01*
X156535716Y-119678571D01*
X157750002Y-120392857D02*
X158250002Y-120392857D01*
X158464288Y-121178571D02*
X157750002Y-121178571D01*
X157750002Y-119678571D01*
X158464288Y-119678571D01*
X159107145Y-121178571D02*
X159107145Y-119678571D01*
X159464288Y-119678571D01*
X159678573Y-119750000D01*
X159821431Y-119892857D01*
X159892859Y-120035714D01*
X159964288Y-120321429D01*
X159964288Y-120535714D01*
X159892859Y-120821429D01*
X159821431Y-120964286D01*
X159678573Y-121107143D01*
X159464288Y-121178571D01*
X159107145Y-121178571D01*
X161750002Y-121178571D02*
X161750002Y-119678571D01*
X161750002Y-120250000D02*
X161892859Y-120178571D01*
X162178573Y-120178571D01*
X162321430Y-120250000D01*
X162392859Y-120321429D01*
X162464288Y-120464286D01*
X162464288Y-120892857D01*
X162392859Y-121035714D01*
X162321430Y-121107143D01*
X162178573Y-121178571D01*
X161892859Y-121178571D01*
X161750002Y-121107143D01*
X163321431Y-121178571D02*
X163178573Y-121107143D01*
X163107145Y-121035714D01*
X163035716Y-120892857D01*
X163035716Y-120464286D01*
X163107145Y-120321429D01*
X163178573Y-120250000D01*
X163321431Y-120178571D01*
X163535716Y-120178571D01*
X163678573Y-120250000D01*
X163750002Y-120321429D01*
X163821431Y-120464286D01*
X163821431Y-120892857D01*
X163750002Y-121035714D01*
X163678573Y-121107143D01*
X163535716Y-121178571D01*
X163321431Y-121178571D01*
X165107145Y-121178571D02*
X165107145Y-120392857D01*
X165035716Y-120250000D01*
X164892859Y-120178571D01*
X164607145Y-120178571D01*
X164464288Y-120250000D01*
X165107145Y-121107143D02*
X164964288Y-121178571D01*
X164607145Y-121178571D01*
X164464288Y-121107143D01*
X164392859Y-120964286D01*
X164392859Y-120821429D01*
X164464288Y-120678571D01*
X164607145Y-120607143D01*
X164964288Y-120607143D01*
X165107145Y-120535714D01*
X165821431Y-121178571D02*
X165821431Y-120178571D01*
X165821431Y-120464286D02*
X165892859Y-120321429D01*
X165964288Y-120250000D01*
X166107145Y-120178571D01*
X166250002Y-120178571D01*
X167392859Y-121178571D02*
X167392859Y-119678571D01*
X167392859Y-121107143D02*
X167250002Y-121178571D01*
X166964288Y-121178571D01*
X166821430Y-121107143D01*
X166750002Y-121035714D01*
X166678573Y-120892857D01*
X166678573Y-120464286D01*
X166750002Y-120321429D01*
X166821430Y-120250000D01*
X166964288Y-120178571D01*
X167250002Y-120178571D01*
X167392859Y-120250000D01*
X167964288Y-121750000D02*
X168035716Y-121678571D01*
X168178573Y-121464286D01*
X168250002Y-121321429D01*
X168321431Y-121107143D01*
X168392859Y-120750000D01*
X168392859Y-120464286D01*
X168321431Y-120107143D01*
X168250002Y-119892857D01*
X168178573Y-119750000D01*
X168035716Y-119535714D01*
X167964288Y-119464286D01*
X170250002Y-120607143D02*
X171392859Y-120607143D01*
X174107145Y-121178571D02*
X173607145Y-120464286D01*
X173250002Y-121178571D02*
X173250002Y-119678571D01*
X173821430Y-119678571D01*
X173964288Y-119750000D01*
X174035716Y-119821429D01*
X174107145Y-119964286D01*
X174107145Y-120178571D01*
X174035716Y-120321429D01*
X173964288Y-120392857D01*
X173821430Y-120464286D01*
X173250002Y-120464286D01*
X175321430Y-121107143D02*
X175178573Y-121178571D01*
X174892859Y-121178571D01*
X174750002Y-121107143D01*
X174678573Y-120964286D01*
X174678573Y-120392857D01*
X174750002Y-120250000D01*
X174892859Y-120178571D01*
X175178573Y-120178571D01*
X175321430Y-120250000D01*
X175392859Y-120392857D01*
X175392859Y-120535714D01*
X174678573Y-120678571D01*
X175892859Y-120178571D02*
X176250002Y-121178571D01*
X176607144Y-120178571D01*
X179107144Y-121178571D02*
X178250001Y-121178571D01*
X178678573Y-121178571D02*
X178678573Y-119678571D01*
X178535716Y-119892857D01*
X178392858Y-120035714D01*
X178250001Y-120107143D01*
X168557143Y-83633571D02*
X168914286Y-85133571D01*
X169200000Y-84062143D01*
X169485714Y-85133571D01*
X169842857Y-83633571D01*
X170342857Y-84705000D02*
X171057143Y-84705000D01*
X170200000Y-85133571D02*
X170700000Y-83633571D01*
X171200000Y-85133571D01*
X172557143Y-85133571D02*
X172057143Y-84419286D01*
X171700000Y-85133571D02*
X171700000Y-83633571D01*
X172271428Y-83633571D01*
X172414286Y-83705000D01*
X172485714Y-83776429D01*
X172557143Y-83919286D01*
X172557143Y-84133571D01*
X172485714Y-84276429D01*
X172414286Y-84347857D01*
X172271428Y-84419286D01*
X171700000Y-84419286D01*
X173200000Y-85133571D02*
X173200000Y-83633571D01*
X173700000Y-84705000D01*
X174200000Y-83633571D01*
X174200000Y-85133571D01*
D12*
X193675000Y-122555000D02*
X193675000Y-76835000D01*
X130175000Y-122555000D02*
X193675000Y-122555000D01*
X130175000Y-76835000D02*
X130175000Y-122555000D01*
X193675000Y-76835000D02*
X130175000Y-76835000D01*
D11*
X169735714Y-95150714D02*
X169664285Y-95222143D01*
X169449999Y-95293571D01*
X169307142Y-95293571D01*
X169092857Y-95222143D01*
X168949999Y-95079286D01*
X168878571Y-94936429D01*
X168807142Y-94650714D01*
X168807142Y-94436429D01*
X168878571Y-94150714D01*
X168949999Y-94007857D01*
X169092857Y-93865000D01*
X169307142Y-93793571D01*
X169449999Y-93793571D01*
X169664285Y-93865000D01*
X169735714Y-93936429D01*
X170664285Y-93793571D02*
X170949999Y-93793571D01*
X171092857Y-93865000D01*
X171235714Y-94007857D01*
X171307142Y-94293571D01*
X171307142Y-94793571D01*
X171235714Y-95079286D01*
X171092857Y-95222143D01*
X170949999Y-95293571D01*
X170664285Y-95293571D01*
X170521428Y-95222143D01*
X170378571Y-95079286D01*
X170307142Y-94793571D01*
X170307142Y-94293571D01*
X170378571Y-94007857D01*
X170521428Y-93865000D01*
X170664285Y-93793571D01*
X172235714Y-93793571D02*
X172521428Y-93793571D01*
X172664286Y-93865000D01*
X172807143Y-94007857D01*
X172878571Y-94293571D01*
X172878571Y-94793571D01*
X172807143Y-95079286D01*
X172664286Y-95222143D01*
X172521428Y-95293571D01*
X172235714Y-95293571D01*
X172092857Y-95222143D01*
X171950000Y-95079286D01*
X171878571Y-94793571D01*
X171878571Y-94293571D01*
X171950000Y-94007857D01*
X172092857Y-93865000D01*
X172235714Y-93793571D01*
X174235715Y-95293571D02*
X173521429Y-95293571D01*
X173521429Y-93793571D01*
X169735714Y-105310714D02*
X169664285Y-105382143D01*
X169449999Y-105453571D01*
X169307142Y-105453571D01*
X169092857Y-105382143D01*
X168949999Y-105239286D01*
X168878571Y-105096429D01*
X168807142Y-104810714D01*
X168807142Y-104596429D01*
X168878571Y-104310714D01*
X168949999Y-104167857D01*
X169092857Y-104025000D01*
X169307142Y-103953571D01*
X169449999Y-103953571D01*
X169664285Y-104025000D01*
X169735714Y-104096429D01*
X170664285Y-103953571D02*
X170949999Y-103953571D01*
X171092857Y-104025000D01*
X171235714Y-104167857D01*
X171307142Y-104453571D01*
X171307142Y-104953571D01*
X171235714Y-105239286D01*
X171092857Y-105382143D01*
X170949999Y-105453571D01*
X170664285Y-105453571D01*
X170521428Y-105382143D01*
X170378571Y-105239286D01*
X170307142Y-104953571D01*
X170307142Y-104453571D01*
X170378571Y-104167857D01*
X170521428Y-104025000D01*
X170664285Y-103953571D01*
X172235714Y-103953571D02*
X172521428Y-103953571D01*
X172664286Y-104025000D01*
X172807143Y-104167857D01*
X172878571Y-104453571D01*
X172878571Y-104953571D01*
X172807143Y-105239286D01*
X172664286Y-105382143D01*
X172521428Y-105453571D01*
X172235714Y-105453571D01*
X172092857Y-105382143D01*
X171950000Y-105239286D01*
X171878571Y-104953571D01*
X171878571Y-104453571D01*
X171950000Y-104167857D01*
X172092857Y-104025000D01*
X172235714Y-103953571D01*
X174235715Y-105453571D02*
X173521429Y-105453571D01*
X173521429Y-103953571D01*
X168557143Y-114113571D02*
X168914286Y-115613571D01*
X169200000Y-114542143D01*
X169485714Y-115613571D01*
X169842857Y-114113571D01*
X170342857Y-115185000D02*
X171057143Y-115185000D01*
X170200000Y-115613571D02*
X170700000Y-114113571D01*
X171200000Y-115613571D01*
X172557143Y-115613571D02*
X172057143Y-114899286D01*
X171700000Y-115613571D02*
X171700000Y-114113571D01*
X172271428Y-114113571D01*
X172414286Y-114185000D01*
X172485714Y-114256429D01*
X172557143Y-114399286D01*
X172557143Y-114613571D01*
X172485714Y-114756429D01*
X172414286Y-114827857D01*
X172271428Y-114899286D01*
X171700000Y-114899286D01*
X173200000Y-115613571D02*
X173200000Y-114113571D01*
X173700000Y-115185000D01*
X174200000Y-114113571D01*
X174200000Y-115613571D01*
X187464286Y-102035714D02*
X187392857Y-102107143D01*
X187178571Y-102178571D01*
X187035714Y-102178571D01*
X186821429Y-102107143D01*
X186678571Y-101964286D01*
X186607143Y-101821429D01*
X186535714Y-101535714D01*
X186535714Y-101321429D01*
X186607143Y-101035714D01*
X186678571Y-100892857D01*
X186821429Y-100750000D01*
X187035714Y-100678571D01*
X187178571Y-100678571D01*
X187392857Y-100750000D01*
X187464286Y-100821429D01*
X186357143Y-98178571D02*
X186714286Y-99678571D01*
X187000000Y-98607143D01*
X187285714Y-99678571D01*
X187642857Y-98178571D01*
X188301429Y-94658571D02*
X187444286Y-94658571D01*
X187872858Y-94658571D02*
X187872858Y-93158571D01*
X187730001Y-93372857D01*
X187587143Y-93515714D01*
X187444286Y-93587143D01*
X188872857Y-93301429D02*
X188944286Y-93230000D01*
X189087143Y-93158571D01*
X189444286Y-93158571D01*
X189587143Y-93230000D01*
X189658572Y-93301429D01*
X189730000Y-93444286D01*
X189730000Y-93587143D01*
X189658572Y-93801429D01*
X188801429Y-94658571D01*
X189730000Y-94658571D01*
X190158571Y-93158571D02*
X190658571Y-94658571D01*
X191158571Y-93158571D01*
X137878286Y-102135714D02*
X137806857Y-102207143D01*
X137592571Y-102278571D01*
X137449714Y-102278571D01*
X137235429Y-102207143D01*
X137092571Y-102064286D01*
X137021143Y-101921429D01*
X136949714Y-101635714D01*
X136949714Y-101421429D01*
X137021143Y-101135714D01*
X137092571Y-100992857D01*
X137235429Y-100850000D01*
X137449714Y-100778571D01*
X137592571Y-100778571D01*
X137806857Y-100850000D01*
X137878286Y-100921429D01*
X136771143Y-98492571D02*
X137128286Y-99992571D01*
X137414000Y-98921143D01*
X137699714Y-99992571D01*
X138056857Y-98492571D01*
X133691429Y-94658571D02*
X132834286Y-94658571D01*
X133262858Y-94658571D02*
X133262858Y-93158571D01*
X133120001Y-93372857D01*
X132977143Y-93515714D01*
X132834286Y-93587143D01*
X134262857Y-93301429D02*
X134334286Y-93230000D01*
X134477143Y-93158571D01*
X134834286Y-93158571D01*
X134977143Y-93230000D01*
X135048572Y-93301429D01*
X135120000Y-93444286D01*
X135120000Y-93587143D01*
X135048572Y-93801429D01*
X134191429Y-94658571D01*
X135120000Y-94658571D01*
X135548571Y-93158571D02*
X136048571Y-94658571D01*
X136548571Y-93158571D01*
D13*
X136440000Y-86300000D02*
X136440000Y-91500000D01*
X132800000Y-91500000D02*
X132800000Y-86300000D01*
D12*
X135920000Y-103150000D02*
X135920000Y-101600000D01*
X134620000Y-103150000D02*
X135920000Y-103150000D01*
X130429000Y-101727000D02*
X124587000Y-101727000D01*
X124587000Y-101727000D02*
X124587000Y-101473000D01*
X124587000Y-101473000D02*
X130429000Y-101473000D01*
X130429000Y-101473000D02*
X130429000Y-101600000D01*
X130429000Y-101600000D02*
X124587000Y-101600000D01*
X133096000Y-101854000D02*
X133477000Y-101854000D01*
X133096000Y-101346000D02*
X133477000Y-101346000D01*
X133096000Y-99314000D02*
X133477000Y-99314000D01*
X133096000Y-98806000D02*
X133477000Y-98806000D01*
X133096000Y-96774000D02*
X133477000Y-96774000D01*
X133096000Y-96266000D02*
X133477000Y-96266000D01*
X130556000Y-100330000D02*
X130556000Y-102870000D01*
X124460000Y-101346000D02*
X130556000Y-101346000D01*
X124460000Y-101854000D02*
X124460000Y-101346000D01*
X130556000Y-101854000D02*
X124460000Y-101854000D01*
X133096000Y-100330000D02*
X130556000Y-100330000D01*
X133096000Y-102870000D02*
X133096000Y-100330000D01*
X133096000Y-102870000D02*
X130556000Y-102870000D01*
X133096000Y-97790000D02*
X130556000Y-97790000D01*
X133096000Y-97790000D02*
X133096000Y-95250000D01*
X130556000Y-96774000D02*
X124460000Y-96774000D01*
X124460000Y-96774000D02*
X124460000Y-96266000D01*
X124460000Y-96266000D02*
X130556000Y-96266000D01*
X130556000Y-95250000D02*
X130556000Y-97790000D01*
X130556000Y-97790000D02*
X130556000Y-100330000D01*
X124460000Y-98806000D02*
X130556000Y-98806000D01*
X124460000Y-99314000D02*
X124460000Y-98806000D01*
X130556000Y-99314000D02*
X124460000Y-99314000D01*
X133096000Y-97790000D02*
X130556000Y-97790000D01*
X133096000Y-100330000D02*
X133096000Y-97790000D01*
X133096000Y-100330000D02*
X130556000Y-100330000D01*
X133096000Y-95250000D02*
X130556000Y-95250000D01*
X188438000Y-94970000D02*
X188438000Y-96520000D01*
X189738000Y-94970000D02*
X188438000Y-94970000D01*
X193929000Y-96393000D02*
X199771000Y-96393000D01*
X199771000Y-96393000D02*
X199771000Y-96647000D01*
X199771000Y-96647000D02*
X193929000Y-96647000D01*
X193929000Y-96647000D02*
X193929000Y-96520000D01*
X193929000Y-96520000D02*
X199771000Y-96520000D01*
X191262000Y-96266000D02*
X190881000Y-96266000D01*
X191262000Y-96774000D02*
X190881000Y-96774000D01*
X191262000Y-98806000D02*
X190881000Y-98806000D01*
X191262000Y-99314000D02*
X190881000Y-99314000D01*
X191262000Y-101346000D02*
X190881000Y-101346000D01*
X191262000Y-101854000D02*
X190881000Y-101854000D01*
X193802000Y-97790000D02*
X193802000Y-95250000D01*
X199898000Y-96774000D02*
X193802000Y-96774000D01*
X199898000Y-96266000D02*
X199898000Y-96774000D01*
X193802000Y-96266000D02*
X199898000Y-96266000D01*
X191262000Y-97790000D02*
X193802000Y-97790000D01*
X191262000Y-95250000D02*
X191262000Y-97790000D01*
X191262000Y-95250000D02*
X193802000Y-95250000D01*
X191262000Y-100330000D02*
X193802000Y-100330000D01*
X191262000Y-100330000D02*
X191262000Y-102870000D01*
X193802000Y-101346000D02*
X199898000Y-101346000D01*
X199898000Y-101346000D02*
X199898000Y-101854000D01*
X199898000Y-101854000D02*
X193802000Y-101854000D01*
X193802000Y-102870000D02*
X193802000Y-100330000D01*
X193802000Y-100330000D02*
X193802000Y-97790000D01*
X199898000Y-99314000D02*
X193802000Y-99314000D01*
X199898000Y-98806000D02*
X199898000Y-99314000D01*
X193802000Y-98806000D02*
X199898000Y-98806000D01*
X191262000Y-100330000D02*
X193802000Y-100330000D01*
X191262000Y-97790000D02*
X191262000Y-100330000D01*
X191262000Y-97790000D02*
X193802000Y-97790000D01*
X191262000Y-102870000D02*
X193802000Y-102870000D01*
X143319500Y-96329500D02*
X139700000Y-96329500D01*
X139700000Y-96329500D02*
X139636500Y-96329500D01*
X139636500Y-96329500D02*
X139636500Y-93154500D01*
X139636500Y-93154500D02*
X143383000Y-93154500D01*
X143383000Y-93154500D02*
X143383000Y-96329500D01*
X164909500Y-96329500D02*
X161290000Y-96329500D01*
X161290000Y-96329500D02*
X161226500Y-96329500D01*
X161226500Y-96329500D02*
X161226500Y-93154500D01*
X161226500Y-93154500D02*
X164973000Y-93154500D01*
X164973000Y-93154500D02*
X164973000Y-96329500D01*
X186499500Y-96329500D02*
X182880000Y-96329500D01*
X182880000Y-96329500D02*
X182816500Y-96329500D01*
X182816500Y-96329500D02*
X182816500Y-93154500D01*
X182816500Y-93154500D02*
X186563000Y-93154500D01*
X186563000Y-93154500D02*
X186563000Y-96329500D01*
X143319500Y-106489500D02*
X139700000Y-106489500D01*
X139700000Y-106489500D02*
X139636500Y-106489500D01*
X139636500Y-106489500D02*
X139636500Y-103314500D01*
X139636500Y-103314500D02*
X143383000Y-103314500D01*
X143383000Y-103314500D02*
X143383000Y-106489500D01*
X164909500Y-106489500D02*
X161290000Y-106489500D01*
X161290000Y-106489500D02*
X161226500Y-106489500D01*
X161226500Y-106489500D02*
X161226500Y-103314500D01*
X161226500Y-103314500D02*
X164973000Y-103314500D01*
X164973000Y-103314500D02*
X164973000Y-106489500D01*
X186499500Y-106489500D02*
X182880000Y-106489500D01*
X182880000Y-106489500D02*
X182816500Y-106489500D01*
X182816500Y-106489500D02*
X182816500Y-103314500D01*
X182816500Y-103314500D02*
X186563000Y-103314500D01*
X186563000Y-103314500D02*
X186563000Y-106489500D01*
X143319500Y-86169500D02*
X139700000Y-86169500D01*
X139700000Y-86169500D02*
X139636500Y-86169500D01*
X139636500Y-86169500D02*
X139636500Y-82994500D01*
X139636500Y-82994500D02*
X143383000Y-82994500D01*
X143383000Y-82994500D02*
X143383000Y-86169500D01*
X164909500Y-86169500D02*
X161290000Y-86169500D01*
X161290000Y-86169500D02*
X161226500Y-86169500D01*
X161226500Y-86169500D02*
X161226500Y-82994500D01*
X161226500Y-82994500D02*
X164973000Y-82994500D01*
X164973000Y-82994500D02*
X164973000Y-86169500D01*
X186499500Y-86169500D02*
X182880000Y-86169500D01*
X182880000Y-86169500D02*
X182816500Y-86169500D01*
X182816500Y-86169500D02*
X182816500Y-82994500D01*
X182816500Y-82994500D02*
X186563000Y-82994500D01*
X186563000Y-82994500D02*
X186563000Y-86169500D01*
X143319500Y-116649500D02*
X139700000Y-116649500D01*
X139700000Y-116649500D02*
X139636500Y-116649500D01*
X139636500Y-116649500D02*
X139636500Y-113474500D01*
X139636500Y-113474500D02*
X143383000Y-113474500D01*
X143383000Y-113474500D02*
X143383000Y-116649500D01*
X164909500Y-116649500D02*
X161290000Y-116649500D01*
X161290000Y-116649500D02*
X161226500Y-116649500D01*
X161226500Y-116649500D02*
X161226500Y-113474500D01*
X161226500Y-113474500D02*
X164973000Y-113474500D01*
X164973000Y-113474500D02*
X164973000Y-116649500D01*
X186499500Y-116649500D02*
X182880000Y-116649500D01*
X182880000Y-116649500D02*
X182816500Y-116649500D01*
X182816500Y-116649500D02*
X182816500Y-113474500D01*
X182816500Y-113474500D02*
X186563000Y-113474500D01*
X186563000Y-113474500D02*
X186563000Y-116649500D01*
D13*
X144840000Y-91990000D02*
X139640000Y-91990000D01*
X139640000Y-88350000D02*
X144840000Y-88350000D01*
X145990000Y-99780000D02*
X151190000Y-99780000D01*
X151190000Y-103420000D02*
X145990000Y-103420000D01*
X135340000Y-111820000D02*
X135340000Y-106620000D01*
X138980000Y-106620000D02*
X138980000Y-111820000D01*
D12*
X132472381Y-89066666D02*
X131996190Y-89400000D01*
X132472381Y-89638095D02*
X131472381Y-89638095D01*
X131472381Y-89257142D01*
X131520000Y-89161904D01*
X131567619Y-89114285D01*
X131662857Y-89066666D01*
X131805714Y-89066666D01*
X131900952Y-89114285D01*
X131948571Y-89161904D01*
X131996190Y-89257142D01*
X131996190Y-89638095D01*
X131472381Y-88733333D02*
X131472381Y-88114285D01*
X131853333Y-88447619D01*
X131853333Y-88304761D01*
X131900952Y-88209523D01*
X131948571Y-88161904D01*
X132043810Y-88114285D01*
X132281905Y-88114285D01*
X132377143Y-88161904D01*
X132424762Y-88209523D01*
X132472381Y-88304761D01*
X132472381Y-88590476D01*
X132424762Y-88685714D01*
X132377143Y-88733333D01*
X133881905Y-104846381D02*
X133881905Y-103846381D01*
X134262858Y-103846381D01*
X134358096Y-103894000D01*
X134405715Y-103941619D01*
X134453334Y-104036857D01*
X134453334Y-104179714D01*
X134405715Y-104274952D01*
X134358096Y-104322571D01*
X134262858Y-104370190D01*
X133881905Y-104370190D01*
X135405715Y-104846381D02*
X134834286Y-104846381D01*
X135120000Y-104846381D02*
X135120000Y-103846381D01*
X135024762Y-103989238D01*
X134929524Y-104084476D01*
X134834286Y-104132095D01*
X188999905Y-104592381D02*
X188999905Y-103592381D01*
X189380858Y-103592381D01*
X189476096Y-103640000D01*
X189523715Y-103687619D01*
X189571334Y-103782857D01*
X189571334Y-103925714D01*
X189523715Y-104020952D01*
X189476096Y-104068571D01*
X189380858Y-104116190D01*
X188999905Y-104116190D01*
X189952286Y-103687619D02*
X189999905Y-103640000D01*
X190095143Y-103592381D01*
X190333239Y-103592381D01*
X190428477Y-103640000D01*
X190476096Y-103687619D01*
X190523715Y-103782857D01*
X190523715Y-103878095D01*
X190476096Y-104020952D01*
X189904667Y-104592381D01*
X190523715Y-104592381D01*
X128261905Y-122452381D02*
X128261905Y-121452381D01*
X128642858Y-121452381D01*
X128738096Y-121500000D01*
X128785715Y-121547619D01*
X128833334Y-121642857D01*
X128833334Y-121785714D01*
X128785715Y-121880952D01*
X128738096Y-121928571D01*
X128642858Y-121976190D01*
X128261905Y-121976190D01*
X129166667Y-121452381D02*
X129785715Y-121452381D01*
X129452381Y-121833333D01*
X129595239Y-121833333D01*
X129690477Y-121880952D01*
X129738096Y-121928571D01*
X129785715Y-122023810D01*
X129785715Y-122261905D01*
X129738096Y-122357143D01*
X129690477Y-122404762D01*
X129595239Y-122452381D01*
X129309524Y-122452381D01*
X129214286Y-122404762D01*
X129166667Y-122357143D01*
X194261905Y-122452381D02*
X194261905Y-121452381D01*
X194642858Y-121452381D01*
X194738096Y-121500000D01*
X194785715Y-121547619D01*
X194833334Y-121642857D01*
X194833334Y-121785714D01*
X194785715Y-121880952D01*
X194738096Y-121928571D01*
X194642858Y-121976190D01*
X194261905Y-121976190D01*
X195690477Y-121785714D02*
X195690477Y-122452381D01*
X195452381Y-121404762D02*
X195214286Y-122119048D01*
X195833334Y-122119048D01*
X127761905Y-77952381D02*
X127761905Y-76952381D01*
X128142858Y-76952381D01*
X128238096Y-77000000D01*
X128285715Y-77047619D01*
X128333334Y-77142857D01*
X128333334Y-77285714D01*
X128285715Y-77380952D01*
X128238096Y-77428571D01*
X128142858Y-77476190D01*
X127761905Y-77476190D01*
X129238096Y-76952381D02*
X128761905Y-76952381D01*
X128714286Y-77428571D01*
X128761905Y-77380952D01*
X128857143Y-77333333D01*
X129095239Y-77333333D01*
X129190477Y-77380952D01*
X129238096Y-77428571D01*
X129285715Y-77523810D01*
X129285715Y-77761905D01*
X129238096Y-77857143D01*
X129190477Y-77904762D01*
X129095239Y-77952381D01*
X128857143Y-77952381D01*
X128761905Y-77904762D01*
X128714286Y-77857143D01*
X194261905Y-78452381D02*
X194261905Y-77452381D01*
X194642858Y-77452381D01*
X194738096Y-77500000D01*
X194785715Y-77547619D01*
X194833334Y-77642857D01*
X194833334Y-77785714D01*
X194785715Y-77880952D01*
X194738096Y-77928571D01*
X194642858Y-77976190D01*
X194261905Y-77976190D01*
X195690477Y-77452381D02*
X195500000Y-77452381D01*
X195404762Y-77500000D01*
X195357143Y-77547619D01*
X195261905Y-77690476D01*
X195214286Y-77880952D01*
X195214286Y-78261905D01*
X195261905Y-78357143D01*
X195309524Y-78404762D01*
X195404762Y-78452381D01*
X195595239Y-78452381D01*
X195690477Y-78404762D01*
X195738096Y-78357143D01*
X195785715Y-78261905D01*
X195785715Y-78023810D01*
X195738096Y-77928571D01*
X195690477Y-77880952D01*
X195595239Y-77833333D01*
X195404762Y-77833333D01*
X195309524Y-77880952D01*
X195261905Y-77928571D01*
X195214286Y-78023810D01*
X140866905Y-97607381D02*
X140866905Y-96607381D01*
X141105000Y-96607381D01*
X141247858Y-96655000D01*
X141343096Y-96750238D01*
X141390715Y-96845476D01*
X141438334Y-97035952D01*
X141438334Y-97178810D01*
X141390715Y-97369286D01*
X141343096Y-97464524D01*
X141247858Y-97559762D01*
X141105000Y-97607381D01*
X140866905Y-97607381D01*
X142390715Y-97607381D02*
X141819286Y-97607381D01*
X142105000Y-97607381D02*
X142105000Y-96607381D01*
X142009762Y-96750238D01*
X141914524Y-96845476D01*
X141819286Y-96893095D01*
X162456905Y-97607381D02*
X162456905Y-96607381D01*
X162695000Y-96607381D01*
X162837858Y-96655000D01*
X162933096Y-96750238D01*
X162980715Y-96845476D01*
X163028334Y-97035952D01*
X163028334Y-97178810D01*
X162980715Y-97369286D01*
X162933096Y-97464524D01*
X162837858Y-97559762D01*
X162695000Y-97607381D01*
X162456905Y-97607381D01*
X163409286Y-96702619D02*
X163456905Y-96655000D01*
X163552143Y-96607381D01*
X163790239Y-96607381D01*
X163885477Y-96655000D01*
X163933096Y-96702619D01*
X163980715Y-96797857D01*
X163980715Y-96893095D01*
X163933096Y-97035952D01*
X163361667Y-97607381D01*
X163980715Y-97607381D01*
X184046905Y-97607381D02*
X184046905Y-96607381D01*
X184285000Y-96607381D01*
X184427858Y-96655000D01*
X184523096Y-96750238D01*
X184570715Y-96845476D01*
X184618334Y-97035952D01*
X184618334Y-97178810D01*
X184570715Y-97369286D01*
X184523096Y-97464524D01*
X184427858Y-97559762D01*
X184285000Y-97607381D01*
X184046905Y-97607381D01*
X184951667Y-96607381D02*
X185570715Y-96607381D01*
X185237381Y-96988333D01*
X185380239Y-96988333D01*
X185475477Y-97035952D01*
X185523096Y-97083571D01*
X185570715Y-97178810D01*
X185570715Y-97416905D01*
X185523096Y-97512143D01*
X185475477Y-97559762D01*
X185380239Y-97607381D01*
X185094524Y-97607381D01*
X184999286Y-97559762D01*
X184951667Y-97512143D01*
X140866905Y-107767381D02*
X140866905Y-106767381D01*
X141105000Y-106767381D01*
X141247858Y-106815000D01*
X141343096Y-106910238D01*
X141390715Y-107005476D01*
X141438334Y-107195952D01*
X141438334Y-107338810D01*
X141390715Y-107529286D01*
X141343096Y-107624524D01*
X141247858Y-107719762D01*
X141105000Y-107767381D01*
X140866905Y-107767381D01*
X142295477Y-107100714D02*
X142295477Y-107767381D01*
X142057381Y-106719762D02*
X141819286Y-107434048D01*
X142438334Y-107434048D01*
X162456905Y-107767381D02*
X162456905Y-106767381D01*
X162695000Y-106767381D01*
X162837858Y-106815000D01*
X162933096Y-106910238D01*
X162980715Y-107005476D01*
X163028334Y-107195952D01*
X163028334Y-107338810D01*
X162980715Y-107529286D01*
X162933096Y-107624524D01*
X162837858Y-107719762D01*
X162695000Y-107767381D01*
X162456905Y-107767381D01*
X163933096Y-106767381D02*
X163456905Y-106767381D01*
X163409286Y-107243571D01*
X163456905Y-107195952D01*
X163552143Y-107148333D01*
X163790239Y-107148333D01*
X163885477Y-107195952D01*
X163933096Y-107243571D01*
X163980715Y-107338810D01*
X163980715Y-107576905D01*
X163933096Y-107672143D01*
X163885477Y-107719762D01*
X163790239Y-107767381D01*
X163552143Y-107767381D01*
X163456905Y-107719762D01*
X163409286Y-107672143D01*
X184046905Y-107767381D02*
X184046905Y-106767381D01*
X184285000Y-106767381D01*
X184427858Y-106815000D01*
X184523096Y-106910238D01*
X184570715Y-107005476D01*
X184618334Y-107195952D01*
X184618334Y-107338810D01*
X184570715Y-107529286D01*
X184523096Y-107624524D01*
X184427858Y-107719762D01*
X184285000Y-107767381D01*
X184046905Y-107767381D01*
X185475477Y-106767381D02*
X185285000Y-106767381D01*
X185189762Y-106815000D01*
X185142143Y-106862619D01*
X185046905Y-107005476D01*
X184999286Y-107195952D01*
X184999286Y-107576905D01*
X185046905Y-107672143D01*
X185094524Y-107719762D01*
X185189762Y-107767381D01*
X185380239Y-107767381D01*
X185475477Y-107719762D01*
X185523096Y-107672143D01*
X185570715Y-107576905D01*
X185570715Y-107338810D01*
X185523096Y-107243571D01*
X185475477Y-107195952D01*
X185380239Y-107148333D01*
X185189762Y-107148333D01*
X185094524Y-107195952D01*
X185046905Y-107243571D01*
X184999286Y-107338810D01*
X140866905Y-87447381D02*
X140866905Y-86447381D01*
X141105000Y-86447381D01*
X141247858Y-86495000D01*
X141343096Y-86590238D01*
X141390715Y-86685476D01*
X141438334Y-86875952D01*
X141438334Y-87018810D01*
X141390715Y-87209286D01*
X141343096Y-87304524D01*
X141247858Y-87399762D01*
X141105000Y-87447381D01*
X140866905Y-87447381D01*
X141771667Y-86447381D02*
X142438334Y-86447381D01*
X142009762Y-87447381D01*
X162456905Y-87447381D02*
X162456905Y-86447381D01*
X162695000Y-86447381D01*
X162837858Y-86495000D01*
X162933096Y-86590238D01*
X162980715Y-86685476D01*
X163028334Y-86875952D01*
X163028334Y-87018810D01*
X162980715Y-87209286D01*
X162933096Y-87304524D01*
X162837858Y-87399762D01*
X162695000Y-87447381D01*
X162456905Y-87447381D01*
X163599762Y-86875952D02*
X163504524Y-86828333D01*
X163456905Y-86780714D01*
X163409286Y-86685476D01*
X163409286Y-86637857D01*
X163456905Y-86542619D01*
X163504524Y-86495000D01*
X163599762Y-86447381D01*
X163790239Y-86447381D01*
X163885477Y-86495000D01*
X163933096Y-86542619D01*
X163980715Y-86637857D01*
X163980715Y-86685476D01*
X163933096Y-86780714D01*
X163885477Y-86828333D01*
X163790239Y-86875952D01*
X163599762Y-86875952D01*
X163504524Y-86923571D01*
X163456905Y-86971190D01*
X163409286Y-87066429D01*
X163409286Y-87256905D01*
X163456905Y-87352143D01*
X163504524Y-87399762D01*
X163599762Y-87447381D01*
X163790239Y-87447381D01*
X163885477Y-87399762D01*
X163933096Y-87352143D01*
X163980715Y-87256905D01*
X163980715Y-87066429D01*
X163933096Y-86971190D01*
X163885477Y-86923571D01*
X163790239Y-86875952D01*
X184046905Y-87447381D02*
X184046905Y-86447381D01*
X184285000Y-86447381D01*
X184427858Y-86495000D01*
X184523096Y-86590238D01*
X184570715Y-86685476D01*
X184618334Y-86875952D01*
X184618334Y-87018810D01*
X184570715Y-87209286D01*
X184523096Y-87304524D01*
X184427858Y-87399762D01*
X184285000Y-87447381D01*
X184046905Y-87447381D01*
X185094524Y-87447381D02*
X185285000Y-87447381D01*
X185380239Y-87399762D01*
X185427858Y-87352143D01*
X185523096Y-87209286D01*
X185570715Y-87018810D01*
X185570715Y-86637857D01*
X185523096Y-86542619D01*
X185475477Y-86495000D01*
X185380239Y-86447381D01*
X185189762Y-86447381D01*
X185094524Y-86495000D01*
X185046905Y-86542619D01*
X184999286Y-86637857D01*
X184999286Y-86875952D01*
X185046905Y-86971190D01*
X185094524Y-87018810D01*
X185189762Y-87066429D01*
X185380239Y-87066429D01*
X185475477Y-87018810D01*
X185523096Y-86971190D01*
X185570715Y-86875952D01*
X140390714Y-117927381D02*
X140390714Y-116927381D01*
X140628809Y-116927381D01*
X140771667Y-116975000D01*
X140866905Y-117070238D01*
X140914524Y-117165476D01*
X140962143Y-117355952D01*
X140962143Y-117498810D01*
X140914524Y-117689286D01*
X140866905Y-117784524D01*
X140771667Y-117879762D01*
X140628809Y-117927381D01*
X140390714Y-117927381D01*
X141914524Y-117927381D02*
X141343095Y-117927381D01*
X141628809Y-117927381D02*
X141628809Y-116927381D01*
X141533571Y-117070238D01*
X141438333Y-117165476D01*
X141343095Y-117213095D01*
X142533571Y-116927381D02*
X142628810Y-116927381D01*
X142724048Y-116975000D01*
X142771667Y-117022619D01*
X142819286Y-117117857D01*
X142866905Y-117308333D01*
X142866905Y-117546429D01*
X142819286Y-117736905D01*
X142771667Y-117832143D01*
X142724048Y-117879762D01*
X142628810Y-117927381D01*
X142533571Y-117927381D01*
X142438333Y-117879762D01*
X142390714Y-117832143D01*
X142343095Y-117736905D01*
X142295476Y-117546429D01*
X142295476Y-117308333D01*
X142343095Y-117117857D01*
X142390714Y-117022619D01*
X142438333Y-116975000D01*
X142533571Y-116927381D01*
X161980714Y-117927381D02*
X161980714Y-116927381D01*
X162218809Y-116927381D01*
X162361667Y-116975000D01*
X162456905Y-117070238D01*
X162504524Y-117165476D01*
X162552143Y-117355952D01*
X162552143Y-117498810D01*
X162504524Y-117689286D01*
X162456905Y-117784524D01*
X162361667Y-117879762D01*
X162218809Y-117927381D01*
X161980714Y-117927381D01*
X163504524Y-117927381D02*
X162933095Y-117927381D01*
X163218809Y-117927381D02*
X163218809Y-116927381D01*
X163123571Y-117070238D01*
X163028333Y-117165476D01*
X162933095Y-117213095D01*
X164456905Y-117927381D02*
X163885476Y-117927381D01*
X164171190Y-117927381D02*
X164171190Y-116927381D01*
X164075952Y-117070238D01*
X163980714Y-117165476D01*
X163885476Y-117213095D01*
X183570714Y-117927381D02*
X183570714Y-116927381D01*
X183808809Y-116927381D01*
X183951667Y-116975000D01*
X184046905Y-117070238D01*
X184094524Y-117165476D01*
X184142143Y-117355952D01*
X184142143Y-117498810D01*
X184094524Y-117689286D01*
X184046905Y-117784524D01*
X183951667Y-117879762D01*
X183808809Y-117927381D01*
X183570714Y-117927381D01*
X185094524Y-117927381D02*
X184523095Y-117927381D01*
X184808809Y-117927381D02*
X184808809Y-116927381D01*
X184713571Y-117070238D01*
X184618333Y-117165476D01*
X184523095Y-117213095D01*
X185475476Y-117022619D02*
X185523095Y-116975000D01*
X185618333Y-116927381D01*
X185856429Y-116927381D01*
X185951667Y-116975000D01*
X185999286Y-117022619D01*
X186046905Y-117117857D01*
X186046905Y-117213095D01*
X185999286Y-117355952D01*
X185427857Y-117927381D01*
X186046905Y-117927381D01*
X147153334Y-90622381D02*
X146820000Y-90146190D01*
X146581905Y-90622381D02*
X146581905Y-89622381D01*
X146962858Y-89622381D01*
X147058096Y-89670000D01*
X147105715Y-89717619D01*
X147153334Y-89812857D01*
X147153334Y-89955714D01*
X147105715Y-90050952D01*
X147058096Y-90098571D01*
X146962858Y-90146190D01*
X146581905Y-90146190D01*
X148105715Y-90622381D02*
X147534286Y-90622381D01*
X147820000Y-90622381D02*
X147820000Y-89622381D01*
X147724762Y-89765238D01*
X147629524Y-89860476D01*
X147534286Y-89908095D01*
X148423334Y-104652381D02*
X148090000Y-104176190D01*
X147851905Y-104652381D02*
X147851905Y-103652381D01*
X148232858Y-103652381D01*
X148328096Y-103700000D01*
X148375715Y-103747619D01*
X148423334Y-103842857D01*
X148423334Y-103985714D01*
X148375715Y-104080952D01*
X148328096Y-104128571D01*
X148232858Y-104176190D01*
X147851905Y-104176190D01*
X148804286Y-103747619D02*
X148851905Y-103700000D01*
X148947143Y-103652381D01*
X149185239Y-103652381D01*
X149280477Y-103700000D01*
X149328096Y-103747619D01*
X149375715Y-103842857D01*
X149375715Y-103938095D01*
X149328096Y-104080952D01*
X148756667Y-104652381D01*
X149375715Y-104652381D01*
X140212381Y-109386666D02*
X139736190Y-109720000D01*
X140212381Y-109958095D02*
X139212381Y-109958095D01*
X139212381Y-109577142D01*
X139260000Y-109481904D01*
X139307619Y-109434285D01*
X139402857Y-109386666D01*
X139545714Y-109386666D01*
X139640952Y-109434285D01*
X139688571Y-109481904D01*
X139736190Y-109577142D01*
X139736190Y-109958095D01*
X139545714Y-108529523D02*
X140212381Y-108529523D01*
X139164762Y-108767619D02*
X139879048Y-109005714D01*
X139879048Y-108386666D01*
M02*
