G04 #@! TF.FileFunction,Soldermask,Top*
%FSLAX46Y46*%
G04 Gerber Fmt 4.6, Leading zero omitted, Abs format (unit mm)*
G04 Created by KiCad (PCBNEW 4.0.6+dfsg1-1) date Mon Oct 16 01:04:24 2017*
%MOMM*%
%LPD*%
G01*
G04 APERTURE LIST*
%ADD10C,0.100000*%
%ADD11C,0.150000*%
%ADD12R,3.403200X1.203200*%
%ADD13R,2.235200X1.930400*%
%ADD14O,2.235200X1.930400*%
%ADD15C,6.045200*%
%ADD16R,2.203200X3.203200*%
%ADD17R,1.103200X3.203200*%
%ADD18R,1.203200X3.403200*%
G04 APERTURE END LIST*
D10*
D11*
X193675000Y-122555000D02*
X193675000Y-76835000D01*
X130175000Y-122555000D02*
X193675000Y-122555000D01*
X130175000Y-76835000D02*
X130175000Y-122555000D01*
X193675000Y-76835000D02*
X130175000Y-76835000D01*
D12*
X134620000Y-92000000D03*
X134620000Y-85800000D03*
D13*
X134620000Y-101600000D03*
D14*
X134620000Y-99060000D03*
X134620000Y-96520000D03*
D13*
X189738000Y-96520000D03*
D14*
X189738000Y-99060000D03*
X189738000Y-101600000D03*
D15*
X133350000Y-119380000D03*
X190500000Y-119380000D03*
X133350000Y-80010000D03*
X190500000Y-80010000D03*
D16*
X142240000Y-94742000D03*
D17*
X140208000Y-94742000D03*
D16*
X163830000Y-94742000D03*
D17*
X161798000Y-94742000D03*
D16*
X185420000Y-94742000D03*
D17*
X183388000Y-94742000D03*
D16*
X142240000Y-104902000D03*
D17*
X140208000Y-104902000D03*
D16*
X163830000Y-104902000D03*
D17*
X161798000Y-104902000D03*
D16*
X185420000Y-104902000D03*
D17*
X183388000Y-104902000D03*
D16*
X142240000Y-84582000D03*
D17*
X140208000Y-84582000D03*
D16*
X163830000Y-84582000D03*
D17*
X161798000Y-84582000D03*
D16*
X185420000Y-84582000D03*
D17*
X183388000Y-84582000D03*
D16*
X142240000Y-115062000D03*
D17*
X140208000Y-115062000D03*
D16*
X163830000Y-115062000D03*
D17*
X161798000Y-115062000D03*
D16*
X185420000Y-115062000D03*
D17*
X183388000Y-115062000D03*
D18*
X139140000Y-90170000D03*
X145340000Y-90170000D03*
X151690000Y-101600000D03*
X145490000Y-101600000D03*
D12*
X137160000Y-106120000D03*
X137160000Y-112320000D03*
M02*
