G04 #@! TF.FileFunction,Copper,L1,Top,Signal*
%FSLAX46Y46*%
G04 Gerber Fmt 4.6, Leading zero omitted, Abs format (unit mm)*
G04 Created by KiCad (PCBNEW 4.0.6+dfsg1-1) date Mon Oct 16 01:04:24 2017*
%MOMM*%
%LPD*%
G01*
G04 APERTURE LIST*
%ADD10C,0.100000*%
%ADD11C,0.150000*%
%ADD12R,3.200000X1.000000*%
%ADD13R,2.032000X1.727200*%
%ADD14O,2.032000X1.727200*%
%ADD15C,5.842000*%
%ADD16R,2.000000X3.000000*%
%ADD17R,0.900000X3.000000*%
%ADD18R,1.000000X3.200000*%
%ADD19C,0.889000*%
%ADD20C,1.905000*%
%ADD21C,1.016000*%
%ADD22C,0.254000*%
G04 APERTURE END LIST*
D10*
D11*
X193675000Y-122555000D02*
X193675000Y-76835000D01*
X130175000Y-122555000D02*
X193675000Y-122555000D01*
X130175000Y-76835000D02*
X130175000Y-122555000D01*
X193675000Y-76835000D02*
X130175000Y-76835000D01*
D12*
X134620000Y-92000000D03*
X134620000Y-85800000D03*
D13*
X134620000Y-101600000D03*
D14*
X134620000Y-99060000D03*
X134620000Y-96520000D03*
D13*
X189738000Y-96520000D03*
D14*
X189738000Y-99060000D03*
X189738000Y-101600000D03*
D15*
X133350000Y-119380000D03*
X190500000Y-119380000D03*
X133350000Y-80010000D03*
X190500000Y-80010000D03*
D16*
X142240000Y-94742000D03*
D17*
X140208000Y-94742000D03*
D16*
X163830000Y-94742000D03*
D17*
X161798000Y-94742000D03*
D16*
X185420000Y-94742000D03*
D17*
X183388000Y-94742000D03*
D16*
X142240000Y-104902000D03*
D17*
X140208000Y-104902000D03*
D16*
X163830000Y-104902000D03*
D17*
X161798000Y-104902000D03*
D16*
X185420000Y-104902000D03*
D17*
X183388000Y-104902000D03*
D16*
X142240000Y-84582000D03*
D17*
X140208000Y-84582000D03*
D16*
X163830000Y-84582000D03*
D17*
X161798000Y-84582000D03*
D16*
X185420000Y-84582000D03*
D17*
X183388000Y-84582000D03*
D16*
X142240000Y-115062000D03*
D17*
X140208000Y-115062000D03*
D16*
X163830000Y-115062000D03*
D17*
X161798000Y-115062000D03*
D16*
X185420000Y-115062000D03*
D17*
X183388000Y-115062000D03*
D18*
X139140000Y-90170000D03*
X145340000Y-90170000D03*
X151690000Y-101600000D03*
X145490000Y-101600000D03*
D12*
X137160000Y-106120000D03*
X137160000Y-112320000D03*
D19*
X140208000Y-94742000D02*
X140208000Y-92837000D01*
X144070000Y-91440000D02*
X145340000Y-90170000D01*
X141605000Y-91440000D02*
X144070000Y-91440000D01*
X140208000Y-92837000D02*
X141605000Y-91440000D01*
X161798000Y-94742000D02*
X142240000Y-94742000D01*
X163830000Y-94742000D02*
X183388000Y-94742000D01*
D20*
X189738000Y-101600000D02*
X187325000Y-101600000D01*
X185420000Y-99695000D02*
X185420000Y-94742000D01*
X187325000Y-101600000D02*
X185420000Y-99695000D01*
X189738000Y-101600000D02*
X186690000Y-101600000D01*
X185420000Y-102870000D02*
X185420000Y-104902000D01*
X186690000Y-101600000D02*
X185420000Y-102870000D01*
X180975000Y-111760000D02*
X187325000Y-111760000D01*
X135255000Y-109220000D02*
X133985000Y-107950000D01*
X133985000Y-102235000D02*
X133985000Y-107950000D01*
X142240000Y-111760000D02*
X139700000Y-109220000D01*
X180975000Y-111760000D02*
X142240000Y-111760000D01*
X139700000Y-109220000D02*
X135255000Y-109220000D01*
X189738000Y-109347000D02*
X189738000Y-101600000D01*
X187325000Y-111760000D02*
X189738000Y-109347000D01*
X133985000Y-102235000D02*
X134620000Y-101600000D01*
D19*
X140208000Y-104902000D02*
X140208000Y-102362000D01*
X140970000Y-101600000D02*
X145490000Y-101600000D01*
X140208000Y-102362000D02*
X140970000Y-101600000D01*
X142240000Y-104902000D02*
X161798000Y-104902000D01*
X163830000Y-104902000D02*
X183388000Y-104902000D01*
X140208000Y-84582000D02*
X135838000Y-84582000D01*
X135838000Y-84582000D02*
X134620000Y-85800000D01*
X161798000Y-84582000D02*
X142240000Y-84582000D01*
X163830000Y-84582000D02*
X183388000Y-84582000D01*
D20*
X181229000Y-119761000D02*
X183769000Y-119761000D01*
X134620000Y-99060000D02*
X133350000Y-99060000D01*
X135382000Y-114808000D02*
X140335000Y-119761000D01*
X134874000Y-114808000D02*
X135382000Y-114808000D01*
X131572000Y-111506000D02*
X134874000Y-114808000D01*
X131572000Y-100838000D02*
X131572000Y-111506000D01*
X133350000Y-99060000D02*
X131572000Y-100838000D01*
X140335000Y-119761000D02*
X181229000Y-119761000D01*
X185420000Y-118110000D02*
X185420000Y-115062000D01*
X183769000Y-119761000D02*
X185420000Y-118110000D01*
X185420000Y-115062000D02*
X188468000Y-115062000D01*
X191135000Y-99060000D02*
X192405000Y-100330000D01*
X192405000Y-100330000D02*
X192405000Y-111125000D01*
X192405000Y-111125000D02*
X188468000Y-115062000D01*
X191135000Y-99060000D02*
X189738000Y-99060000D01*
X185420000Y-84582000D02*
X189992000Y-84582000D01*
X191770000Y-99060000D02*
X192405000Y-98425000D01*
X192405000Y-98425000D02*
X192405000Y-86995000D01*
X192405000Y-86995000D02*
X189992000Y-84582000D01*
X191770000Y-99060000D02*
X189738000Y-99060000D01*
D19*
X140208000Y-115062000D02*
X139902000Y-115062000D01*
X139902000Y-115062000D02*
X137160000Y-112320000D01*
X161798000Y-115062000D02*
X142240000Y-115062000D01*
X183388000Y-115062000D02*
X163830000Y-115062000D01*
D20*
X134672000Y-96468000D02*
X134620000Y-96520000D01*
X134874000Y-96266000D02*
X134620000Y-96520000D01*
D21*
X187960000Y-96520000D02*
X188976000Y-96520000D01*
D22*
G36*
X187487128Y-77993058D02*
X186944619Y-79299565D01*
X186943384Y-80714229D01*
X187483612Y-82021681D01*
X188454735Y-82994500D01*
X187050976Y-82994500D01*
X187023162Y-82846683D01*
X186884090Y-82630559D01*
X186671890Y-82485569D01*
X186420000Y-82434560D01*
X184420000Y-82434560D01*
X184184683Y-82478838D01*
X184130792Y-82513516D01*
X184089890Y-82485569D01*
X183838000Y-82434560D01*
X182938000Y-82434560D01*
X182702683Y-82478838D01*
X182486559Y-82617910D01*
X182341569Y-82830110D01*
X182290560Y-83082000D01*
X182290560Y-83502500D01*
X165477440Y-83502500D01*
X165477440Y-83082000D01*
X165433162Y-82846683D01*
X165294090Y-82630559D01*
X165081890Y-82485569D01*
X164830000Y-82434560D01*
X162830000Y-82434560D01*
X162594683Y-82478838D01*
X162540792Y-82513516D01*
X162499890Y-82485569D01*
X162248000Y-82434560D01*
X161348000Y-82434560D01*
X161112683Y-82478838D01*
X160896559Y-82617910D01*
X160751569Y-82830110D01*
X160700560Y-83082000D01*
X160700560Y-83502500D01*
X143887440Y-83502500D01*
X143887440Y-83082000D01*
X143843162Y-82846683D01*
X143704090Y-82630559D01*
X143491890Y-82485569D01*
X143240000Y-82434560D01*
X141240000Y-82434560D01*
X141004683Y-82478838D01*
X140950792Y-82513516D01*
X140909890Y-82485569D01*
X140658000Y-82434560D01*
X139758000Y-82434560D01*
X139522683Y-82478838D01*
X139306559Y-82617910D01*
X139161569Y-82830110D01*
X139110560Y-83082000D01*
X139110560Y-83502500D01*
X135838000Y-83502500D01*
X135424893Y-83584672D01*
X135074678Y-83818678D01*
X134240796Y-84652560D01*
X133020000Y-84652560D01*
X132784683Y-84696838D01*
X132568559Y-84835910D01*
X132423569Y-85048110D01*
X132372560Y-85300000D01*
X132372560Y-86300000D01*
X132416838Y-86535317D01*
X132555910Y-86751441D01*
X132768110Y-86896431D01*
X133020000Y-86947440D01*
X136220000Y-86947440D01*
X136455317Y-86903162D01*
X136671441Y-86764090D01*
X136816431Y-86551890D01*
X136867440Y-86300000D01*
X136867440Y-85661500D01*
X139110560Y-85661500D01*
X139110560Y-86082000D01*
X139154838Y-86317317D01*
X139293910Y-86533441D01*
X139506110Y-86678431D01*
X139758000Y-86729440D01*
X140658000Y-86729440D01*
X140893317Y-86685162D01*
X140947208Y-86650484D01*
X140988110Y-86678431D01*
X141240000Y-86729440D01*
X143240000Y-86729440D01*
X143475317Y-86685162D01*
X143691441Y-86546090D01*
X143836431Y-86333890D01*
X143887440Y-86082000D01*
X143887440Y-85661500D01*
X160700560Y-85661500D01*
X160700560Y-86082000D01*
X160744838Y-86317317D01*
X160883910Y-86533441D01*
X161096110Y-86678431D01*
X161348000Y-86729440D01*
X162248000Y-86729440D01*
X162483317Y-86685162D01*
X162537208Y-86650484D01*
X162578110Y-86678431D01*
X162830000Y-86729440D01*
X164830000Y-86729440D01*
X165065317Y-86685162D01*
X165281441Y-86546090D01*
X165426431Y-86333890D01*
X165477440Y-86082000D01*
X165477440Y-85661500D01*
X182290560Y-85661500D01*
X182290560Y-86082000D01*
X182334838Y-86317317D01*
X182473910Y-86533441D01*
X182686110Y-86678431D01*
X182938000Y-86729440D01*
X183838000Y-86729440D01*
X184073317Y-86685162D01*
X184127208Y-86650484D01*
X184168110Y-86678431D01*
X184420000Y-86729440D01*
X186420000Y-86729440D01*
X186655317Y-86685162D01*
X186871441Y-86546090D01*
X187016431Y-86333890D01*
X187049721Y-86169500D01*
X189334436Y-86169500D01*
X190817500Y-87652564D01*
X190817500Y-95021400D01*
X190404750Y-95021400D01*
X190246000Y-95180150D01*
X190246000Y-96088200D01*
X190647000Y-96088200D01*
X190647000Y-96951800D01*
X190246000Y-96951800D01*
X190246000Y-97383600D01*
X189230000Y-97383600D01*
X189230000Y-96951800D01*
X188245750Y-96951800D01*
X188087000Y-97110550D01*
X188087000Y-97509910D01*
X188183673Y-97743299D01*
X188362302Y-97921927D01*
X188515780Y-97985500D01*
X188493585Y-98000330D01*
X188168729Y-98486511D01*
X188054655Y-99060000D01*
X188168729Y-99633489D01*
X188421976Y-100012500D01*
X187982564Y-100012500D01*
X187007500Y-99037436D01*
X187007500Y-96506961D01*
X187016431Y-96493890D01*
X187067440Y-96242000D01*
X187067440Y-95530090D01*
X188087000Y-95530090D01*
X188087000Y-95929450D01*
X188245750Y-96088200D01*
X189230000Y-96088200D01*
X189230000Y-95180150D01*
X189071250Y-95021400D01*
X188595691Y-95021400D01*
X188362302Y-95118073D01*
X188183673Y-95296701D01*
X188087000Y-95530090D01*
X187067440Y-95530090D01*
X187067440Y-93242000D01*
X187023162Y-93006683D01*
X186884090Y-92790559D01*
X186671890Y-92645569D01*
X186420000Y-92594560D01*
X184420000Y-92594560D01*
X184184683Y-92638838D01*
X184130792Y-92673516D01*
X184089890Y-92645569D01*
X183838000Y-92594560D01*
X182938000Y-92594560D01*
X182702683Y-92638838D01*
X182486559Y-92777910D01*
X182341569Y-92990110D01*
X182290560Y-93242000D01*
X182290560Y-93662500D01*
X165477440Y-93662500D01*
X165477440Y-93242000D01*
X165433162Y-93006683D01*
X165294090Y-92790559D01*
X165081890Y-92645569D01*
X164830000Y-92594560D01*
X162830000Y-92594560D01*
X162594683Y-92638838D01*
X162540792Y-92673516D01*
X162499890Y-92645569D01*
X162248000Y-92594560D01*
X161348000Y-92594560D01*
X161112683Y-92638838D01*
X160896559Y-92777910D01*
X160751569Y-92990110D01*
X160700560Y-93242000D01*
X160700560Y-93662500D01*
X143887440Y-93662500D01*
X143887440Y-93242000D01*
X143843162Y-93006683D01*
X143704090Y-92790559D01*
X143491890Y-92645569D01*
X143240000Y-92594560D01*
X141977084Y-92594560D01*
X142052144Y-92519500D01*
X144070000Y-92519500D01*
X144483107Y-92437328D01*
X144588956Y-92366602D01*
X144840000Y-92417440D01*
X145840000Y-92417440D01*
X146075317Y-92373162D01*
X146291441Y-92234090D01*
X146436431Y-92021890D01*
X146487440Y-91770000D01*
X146487440Y-88570000D01*
X146443162Y-88334683D01*
X146304090Y-88118559D01*
X146091890Y-87973569D01*
X145840000Y-87922560D01*
X144840000Y-87922560D01*
X144604683Y-87966838D01*
X144388559Y-88105910D01*
X144243569Y-88318110D01*
X144192560Y-88570000D01*
X144192560Y-89790796D01*
X143622856Y-90360500D01*
X141605000Y-90360500D01*
X141191893Y-90442672D01*
X140841678Y-90676678D01*
X140275000Y-91243356D01*
X140275000Y-91128750D01*
X140116250Y-90970000D01*
X139390000Y-90970000D01*
X139390000Y-92155509D01*
X139210672Y-92423893D01*
X139128500Y-92837000D01*
X139128500Y-93153410D01*
X139110560Y-93242000D01*
X139110560Y-96242000D01*
X139154838Y-96477317D01*
X139293910Y-96693441D01*
X139506110Y-96838431D01*
X139758000Y-96889440D01*
X140658000Y-96889440D01*
X140893317Y-96845162D01*
X140947208Y-96810484D01*
X140988110Y-96838431D01*
X141240000Y-96889440D01*
X143240000Y-96889440D01*
X143475317Y-96845162D01*
X143691441Y-96706090D01*
X143836431Y-96493890D01*
X143887440Y-96242000D01*
X143887440Y-95821500D01*
X160700560Y-95821500D01*
X160700560Y-96242000D01*
X160744838Y-96477317D01*
X160883910Y-96693441D01*
X161096110Y-96838431D01*
X161348000Y-96889440D01*
X162248000Y-96889440D01*
X162483317Y-96845162D01*
X162537208Y-96810484D01*
X162578110Y-96838431D01*
X162830000Y-96889440D01*
X164830000Y-96889440D01*
X165065317Y-96845162D01*
X165281441Y-96706090D01*
X165426431Y-96493890D01*
X165477440Y-96242000D01*
X165477440Y-95821500D01*
X182290560Y-95821500D01*
X182290560Y-96242000D01*
X182334838Y-96477317D01*
X182473910Y-96693441D01*
X182686110Y-96838431D01*
X182938000Y-96889440D01*
X183832500Y-96889440D01*
X183832500Y-99695000D01*
X183953341Y-100302510D01*
X184297468Y-100817532D01*
X184762436Y-101282500D01*
X184297468Y-101747468D01*
X183953341Y-102262490D01*
X183854786Y-102757959D01*
X183838000Y-102754560D01*
X182938000Y-102754560D01*
X182702683Y-102798838D01*
X182486559Y-102937910D01*
X182341569Y-103150110D01*
X182290560Y-103402000D01*
X182290560Y-103822500D01*
X165477440Y-103822500D01*
X165477440Y-103402000D01*
X165433162Y-103166683D01*
X165294090Y-102950559D01*
X165081890Y-102805569D01*
X164830000Y-102754560D01*
X162830000Y-102754560D01*
X162594683Y-102798838D01*
X162540792Y-102833516D01*
X162499890Y-102805569D01*
X162248000Y-102754560D01*
X161348000Y-102754560D01*
X161112683Y-102798838D01*
X160896559Y-102937910D01*
X160751569Y-103150110D01*
X160700560Y-103402000D01*
X160700560Y-103822500D01*
X152579002Y-103822500D01*
X152579002Y-103709023D01*
X152728327Y-103559699D01*
X152825000Y-103326310D01*
X152825000Y-102558750D01*
X152666250Y-102400000D01*
X151940000Y-102400000D01*
X151940000Y-102509000D01*
X151440000Y-102509000D01*
X151440000Y-102400000D01*
X150713750Y-102400000D01*
X150555000Y-102558750D01*
X150555000Y-103326310D01*
X150651673Y-103559699D01*
X150800998Y-103709023D01*
X150800998Y-103822500D01*
X146122545Y-103822500D01*
X146225317Y-103803162D01*
X146441441Y-103664090D01*
X146586431Y-103451890D01*
X146637440Y-103200000D01*
X146637440Y-100000000D01*
X146613674Y-99873690D01*
X150555000Y-99873690D01*
X150555000Y-100641250D01*
X150713750Y-100800000D01*
X151440000Y-100800000D01*
X151440000Y-99523750D01*
X151940000Y-99523750D01*
X151940000Y-100800000D01*
X152666250Y-100800000D01*
X152825000Y-100641250D01*
X152825000Y-99873690D01*
X152728327Y-99640301D01*
X152549698Y-99461673D01*
X152316309Y-99365000D01*
X152098750Y-99365000D01*
X151940000Y-99523750D01*
X151440000Y-99523750D01*
X151281250Y-99365000D01*
X151063691Y-99365000D01*
X150830302Y-99461673D01*
X150651673Y-99640301D01*
X150555000Y-99873690D01*
X146613674Y-99873690D01*
X146593162Y-99764683D01*
X146454090Y-99548559D01*
X146241890Y-99403569D01*
X145990000Y-99352560D01*
X144990000Y-99352560D01*
X144754683Y-99396838D01*
X144538559Y-99535910D01*
X144393569Y-99748110D01*
X144342560Y-100000000D01*
X144342560Y-100520500D01*
X140970005Y-100520500D01*
X140970000Y-100520499D01*
X140625433Y-100589039D01*
X140556893Y-100602672D01*
X140356755Y-100736400D01*
X140206678Y-100836678D01*
X139444678Y-101598678D01*
X139210672Y-101948893D01*
X139128500Y-102362000D01*
X139128500Y-103313410D01*
X139110560Y-103402000D01*
X139110560Y-105077887D01*
X138886310Y-104985000D01*
X138118750Y-104985000D01*
X137960000Y-105143750D01*
X137960000Y-105870000D01*
X138069000Y-105870000D01*
X138069000Y-106370000D01*
X137960000Y-106370000D01*
X137960000Y-107096250D01*
X138118750Y-107255000D01*
X138886310Y-107255000D01*
X139119699Y-107158327D01*
X139269023Y-107009002D01*
X139395000Y-107009002D01*
X139395000Y-106922513D01*
X139506110Y-106998431D01*
X139758000Y-107049440D01*
X140658000Y-107049440D01*
X140893317Y-107005162D01*
X140947208Y-106970484D01*
X140988110Y-106998431D01*
X141240000Y-107049440D01*
X143240000Y-107049440D01*
X143475317Y-107005162D01*
X143691441Y-106866090D01*
X143836431Y-106653890D01*
X143887440Y-106402000D01*
X143887440Y-105981500D01*
X160700560Y-105981500D01*
X160700560Y-106402000D01*
X160744838Y-106637317D01*
X160883910Y-106853441D01*
X161096110Y-106998431D01*
X161348000Y-107049440D01*
X162248000Y-107049440D01*
X162483317Y-107005162D01*
X162537208Y-106970484D01*
X162578110Y-106998431D01*
X162830000Y-107049440D01*
X164830000Y-107049440D01*
X165065317Y-107005162D01*
X165281441Y-106866090D01*
X165426431Y-106653890D01*
X165477440Y-106402000D01*
X165477440Y-105981500D01*
X182290560Y-105981500D01*
X182290560Y-106402000D01*
X182334838Y-106637317D01*
X182473910Y-106853441D01*
X182686110Y-106998431D01*
X182938000Y-107049440D01*
X183838000Y-107049440D01*
X184073317Y-107005162D01*
X184127208Y-106970484D01*
X184168110Y-106998431D01*
X184420000Y-107049440D01*
X186420000Y-107049440D01*
X186655317Y-107005162D01*
X186871441Y-106866090D01*
X187016431Y-106653890D01*
X187067440Y-106402000D01*
X187067440Y-103467624D01*
X187347564Y-103187500D01*
X188150500Y-103187500D01*
X188150500Y-108689436D01*
X186667436Y-110172500D01*
X142897564Y-110172500D01*
X140822532Y-108097468D01*
X140307510Y-107753341D01*
X139700000Y-107632500D01*
X135912564Y-107632500D01*
X135572500Y-107292436D01*
X135572500Y-107255000D01*
X136201250Y-107255000D01*
X136360000Y-107096250D01*
X136360000Y-106370000D01*
X136251000Y-106370000D01*
X136251000Y-105870000D01*
X136360000Y-105870000D01*
X136360000Y-105143750D01*
X136201250Y-104985000D01*
X135572500Y-104985000D01*
X135572500Y-103111040D01*
X135636000Y-103111040D01*
X135871317Y-103066762D01*
X136087441Y-102927690D01*
X136232431Y-102715490D01*
X136283440Y-102463600D01*
X136283440Y-100736400D01*
X136239162Y-100501083D01*
X136100090Y-100284959D01*
X135887890Y-100139969D01*
X135846561Y-100131600D01*
X135864415Y-100119670D01*
X136189271Y-99633489D01*
X136303345Y-99060000D01*
X136189271Y-98486511D01*
X135864415Y-98000330D01*
X135517922Y-97768811D01*
X135826478Y-97559523D01*
X136122228Y-97170974D01*
X136040764Y-96951800D01*
X135128000Y-96951800D01*
X135128000Y-97383600D01*
X134112000Y-97383600D01*
X134112000Y-96951800D01*
X133199236Y-96951800D01*
X133117772Y-97170974D01*
X133347640Y-97472969D01*
X132742490Y-97593341D01*
X132227468Y-97937468D01*
X130937000Y-99227936D01*
X130937000Y-95869026D01*
X133117772Y-95869026D01*
X133199236Y-96088200D01*
X134112000Y-96088200D01*
X134112000Y-95241657D01*
X135128000Y-95241657D01*
X135128000Y-96088200D01*
X136040764Y-96088200D01*
X136122228Y-95869026D01*
X135826478Y-95480477D01*
X135348433Y-95156228D01*
X135128000Y-95241657D01*
X134112000Y-95241657D01*
X133891567Y-95156228D01*
X133413522Y-95480477D01*
X133117772Y-95869026D01*
X130937000Y-95869026D01*
X130937000Y-92408750D01*
X132385000Y-92408750D01*
X132385000Y-92626309D01*
X132481673Y-92859698D01*
X132660301Y-93038327D01*
X132893690Y-93135000D01*
X133661250Y-93135000D01*
X133820000Y-92976250D01*
X133820000Y-92250000D01*
X135420000Y-92250000D01*
X135420000Y-92976250D01*
X135578750Y-93135000D01*
X136346310Y-93135000D01*
X136579699Y-93038327D01*
X136758327Y-92859698D01*
X136855000Y-92626309D01*
X136855000Y-92408750D01*
X136696250Y-92250000D01*
X135420000Y-92250000D01*
X133820000Y-92250000D01*
X132543750Y-92250000D01*
X132385000Y-92408750D01*
X130937000Y-92408750D01*
X130937000Y-91373691D01*
X132385000Y-91373691D01*
X132385000Y-91591250D01*
X132543750Y-91750000D01*
X133820000Y-91750000D01*
X133820000Y-91023750D01*
X135420000Y-91023750D01*
X135420000Y-91750000D01*
X136696250Y-91750000D01*
X136855000Y-91591250D01*
X136855000Y-91373691D01*
X136758327Y-91140302D01*
X136746776Y-91128750D01*
X138005000Y-91128750D01*
X138005000Y-91896310D01*
X138101673Y-92129699D01*
X138280302Y-92308327D01*
X138513691Y-92405000D01*
X138731250Y-92405000D01*
X138890000Y-92246250D01*
X138890000Y-90970000D01*
X138163750Y-90970000D01*
X138005000Y-91128750D01*
X136746776Y-91128750D01*
X136579699Y-90961673D01*
X136346310Y-90865000D01*
X135578750Y-90865000D01*
X135420000Y-91023750D01*
X133820000Y-91023750D01*
X133661250Y-90865000D01*
X132893690Y-90865000D01*
X132660301Y-90961673D01*
X132481673Y-91140302D01*
X132385000Y-91373691D01*
X130937000Y-91373691D01*
X130937000Y-88443690D01*
X138005000Y-88443690D01*
X138005000Y-89211250D01*
X138163750Y-89370000D01*
X138890000Y-89370000D01*
X138890000Y-88093750D01*
X139390000Y-88093750D01*
X139390000Y-89370000D01*
X140116250Y-89370000D01*
X140275000Y-89211250D01*
X140275000Y-88443690D01*
X140178327Y-88210301D01*
X139999698Y-88031673D01*
X139766309Y-87935000D01*
X139548750Y-87935000D01*
X139390000Y-88093750D01*
X138890000Y-88093750D01*
X138731250Y-87935000D01*
X138513691Y-87935000D01*
X138280302Y-88031673D01*
X138101673Y-88210301D01*
X138005000Y-88443690D01*
X130937000Y-88443690D01*
X130937000Y-82626123D01*
X131333058Y-83022872D01*
X132639565Y-83565381D01*
X134054229Y-83566616D01*
X135361681Y-83026388D01*
X136362872Y-82026942D01*
X136905381Y-80720435D01*
X136906616Y-79305771D01*
X136366388Y-77998319D01*
X135965768Y-77597000D01*
X187883877Y-77597000D01*
X187487128Y-77993058D01*
X187487128Y-77993058D01*
G37*
X187487128Y-77993058D02*
X186944619Y-79299565D01*
X186943384Y-80714229D01*
X187483612Y-82021681D01*
X188454735Y-82994500D01*
X187050976Y-82994500D01*
X187023162Y-82846683D01*
X186884090Y-82630559D01*
X186671890Y-82485569D01*
X186420000Y-82434560D01*
X184420000Y-82434560D01*
X184184683Y-82478838D01*
X184130792Y-82513516D01*
X184089890Y-82485569D01*
X183838000Y-82434560D01*
X182938000Y-82434560D01*
X182702683Y-82478838D01*
X182486559Y-82617910D01*
X182341569Y-82830110D01*
X182290560Y-83082000D01*
X182290560Y-83502500D01*
X165477440Y-83502500D01*
X165477440Y-83082000D01*
X165433162Y-82846683D01*
X165294090Y-82630559D01*
X165081890Y-82485569D01*
X164830000Y-82434560D01*
X162830000Y-82434560D01*
X162594683Y-82478838D01*
X162540792Y-82513516D01*
X162499890Y-82485569D01*
X162248000Y-82434560D01*
X161348000Y-82434560D01*
X161112683Y-82478838D01*
X160896559Y-82617910D01*
X160751569Y-82830110D01*
X160700560Y-83082000D01*
X160700560Y-83502500D01*
X143887440Y-83502500D01*
X143887440Y-83082000D01*
X143843162Y-82846683D01*
X143704090Y-82630559D01*
X143491890Y-82485569D01*
X143240000Y-82434560D01*
X141240000Y-82434560D01*
X141004683Y-82478838D01*
X140950792Y-82513516D01*
X140909890Y-82485569D01*
X140658000Y-82434560D01*
X139758000Y-82434560D01*
X139522683Y-82478838D01*
X139306559Y-82617910D01*
X139161569Y-82830110D01*
X139110560Y-83082000D01*
X139110560Y-83502500D01*
X135838000Y-83502500D01*
X135424893Y-83584672D01*
X135074678Y-83818678D01*
X134240796Y-84652560D01*
X133020000Y-84652560D01*
X132784683Y-84696838D01*
X132568559Y-84835910D01*
X132423569Y-85048110D01*
X132372560Y-85300000D01*
X132372560Y-86300000D01*
X132416838Y-86535317D01*
X132555910Y-86751441D01*
X132768110Y-86896431D01*
X133020000Y-86947440D01*
X136220000Y-86947440D01*
X136455317Y-86903162D01*
X136671441Y-86764090D01*
X136816431Y-86551890D01*
X136867440Y-86300000D01*
X136867440Y-85661500D01*
X139110560Y-85661500D01*
X139110560Y-86082000D01*
X139154838Y-86317317D01*
X139293910Y-86533441D01*
X139506110Y-86678431D01*
X139758000Y-86729440D01*
X140658000Y-86729440D01*
X140893317Y-86685162D01*
X140947208Y-86650484D01*
X140988110Y-86678431D01*
X141240000Y-86729440D01*
X143240000Y-86729440D01*
X143475317Y-86685162D01*
X143691441Y-86546090D01*
X143836431Y-86333890D01*
X143887440Y-86082000D01*
X143887440Y-85661500D01*
X160700560Y-85661500D01*
X160700560Y-86082000D01*
X160744838Y-86317317D01*
X160883910Y-86533441D01*
X161096110Y-86678431D01*
X161348000Y-86729440D01*
X162248000Y-86729440D01*
X162483317Y-86685162D01*
X162537208Y-86650484D01*
X162578110Y-86678431D01*
X162830000Y-86729440D01*
X164830000Y-86729440D01*
X165065317Y-86685162D01*
X165281441Y-86546090D01*
X165426431Y-86333890D01*
X165477440Y-86082000D01*
X165477440Y-85661500D01*
X182290560Y-85661500D01*
X182290560Y-86082000D01*
X182334838Y-86317317D01*
X182473910Y-86533441D01*
X182686110Y-86678431D01*
X182938000Y-86729440D01*
X183838000Y-86729440D01*
X184073317Y-86685162D01*
X184127208Y-86650484D01*
X184168110Y-86678431D01*
X184420000Y-86729440D01*
X186420000Y-86729440D01*
X186655317Y-86685162D01*
X186871441Y-86546090D01*
X187016431Y-86333890D01*
X187049721Y-86169500D01*
X189334436Y-86169500D01*
X190817500Y-87652564D01*
X190817500Y-95021400D01*
X190404750Y-95021400D01*
X190246000Y-95180150D01*
X190246000Y-96088200D01*
X190647000Y-96088200D01*
X190647000Y-96951800D01*
X190246000Y-96951800D01*
X190246000Y-97383600D01*
X189230000Y-97383600D01*
X189230000Y-96951800D01*
X188245750Y-96951800D01*
X188087000Y-97110550D01*
X188087000Y-97509910D01*
X188183673Y-97743299D01*
X188362302Y-97921927D01*
X188515780Y-97985500D01*
X188493585Y-98000330D01*
X188168729Y-98486511D01*
X188054655Y-99060000D01*
X188168729Y-99633489D01*
X188421976Y-100012500D01*
X187982564Y-100012500D01*
X187007500Y-99037436D01*
X187007500Y-96506961D01*
X187016431Y-96493890D01*
X187067440Y-96242000D01*
X187067440Y-95530090D01*
X188087000Y-95530090D01*
X188087000Y-95929450D01*
X188245750Y-96088200D01*
X189230000Y-96088200D01*
X189230000Y-95180150D01*
X189071250Y-95021400D01*
X188595691Y-95021400D01*
X188362302Y-95118073D01*
X188183673Y-95296701D01*
X188087000Y-95530090D01*
X187067440Y-95530090D01*
X187067440Y-93242000D01*
X187023162Y-93006683D01*
X186884090Y-92790559D01*
X186671890Y-92645569D01*
X186420000Y-92594560D01*
X184420000Y-92594560D01*
X184184683Y-92638838D01*
X184130792Y-92673516D01*
X184089890Y-92645569D01*
X183838000Y-92594560D01*
X182938000Y-92594560D01*
X182702683Y-92638838D01*
X182486559Y-92777910D01*
X182341569Y-92990110D01*
X182290560Y-93242000D01*
X182290560Y-93662500D01*
X165477440Y-93662500D01*
X165477440Y-93242000D01*
X165433162Y-93006683D01*
X165294090Y-92790559D01*
X165081890Y-92645569D01*
X164830000Y-92594560D01*
X162830000Y-92594560D01*
X162594683Y-92638838D01*
X162540792Y-92673516D01*
X162499890Y-92645569D01*
X162248000Y-92594560D01*
X161348000Y-92594560D01*
X161112683Y-92638838D01*
X160896559Y-92777910D01*
X160751569Y-92990110D01*
X160700560Y-93242000D01*
X160700560Y-93662500D01*
X143887440Y-93662500D01*
X143887440Y-93242000D01*
X143843162Y-93006683D01*
X143704090Y-92790559D01*
X143491890Y-92645569D01*
X143240000Y-92594560D01*
X141977084Y-92594560D01*
X142052144Y-92519500D01*
X144070000Y-92519500D01*
X144483107Y-92437328D01*
X144588956Y-92366602D01*
X144840000Y-92417440D01*
X145840000Y-92417440D01*
X146075317Y-92373162D01*
X146291441Y-92234090D01*
X146436431Y-92021890D01*
X146487440Y-91770000D01*
X146487440Y-88570000D01*
X146443162Y-88334683D01*
X146304090Y-88118559D01*
X146091890Y-87973569D01*
X145840000Y-87922560D01*
X144840000Y-87922560D01*
X144604683Y-87966838D01*
X144388559Y-88105910D01*
X144243569Y-88318110D01*
X144192560Y-88570000D01*
X144192560Y-89790796D01*
X143622856Y-90360500D01*
X141605000Y-90360500D01*
X141191893Y-90442672D01*
X140841678Y-90676678D01*
X140275000Y-91243356D01*
X140275000Y-91128750D01*
X140116250Y-90970000D01*
X139390000Y-90970000D01*
X139390000Y-92155509D01*
X139210672Y-92423893D01*
X139128500Y-92837000D01*
X139128500Y-93153410D01*
X139110560Y-93242000D01*
X139110560Y-96242000D01*
X139154838Y-96477317D01*
X139293910Y-96693441D01*
X139506110Y-96838431D01*
X139758000Y-96889440D01*
X140658000Y-96889440D01*
X140893317Y-96845162D01*
X140947208Y-96810484D01*
X140988110Y-96838431D01*
X141240000Y-96889440D01*
X143240000Y-96889440D01*
X143475317Y-96845162D01*
X143691441Y-96706090D01*
X143836431Y-96493890D01*
X143887440Y-96242000D01*
X143887440Y-95821500D01*
X160700560Y-95821500D01*
X160700560Y-96242000D01*
X160744838Y-96477317D01*
X160883910Y-96693441D01*
X161096110Y-96838431D01*
X161348000Y-96889440D01*
X162248000Y-96889440D01*
X162483317Y-96845162D01*
X162537208Y-96810484D01*
X162578110Y-96838431D01*
X162830000Y-96889440D01*
X164830000Y-96889440D01*
X165065317Y-96845162D01*
X165281441Y-96706090D01*
X165426431Y-96493890D01*
X165477440Y-96242000D01*
X165477440Y-95821500D01*
X182290560Y-95821500D01*
X182290560Y-96242000D01*
X182334838Y-96477317D01*
X182473910Y-96693441D01*
X182686110Y-96838431D01*
X182938000Y-96889440D01*
X183832500Y-96889440D01*
X183832500Y-99695000D01*
X183953341Y-100302510D01*
X184297468Y-100817532D01*
X184762436Y-101282500D01*
X184297468Y-101747468D01*
X183953341Y-102262490D01*
X183854786Y-102757959D01*
X183838000Y-102754560D01*
X182938000Y-102754560D01*
X182702683Y-102798838D01*
X182486559Y-102937910D01*
X182341569Y-103150110D01*
X182290560Y-103402000D01*
X182290560Y-103822500D01*
X165477440Y-103822500D01*
X165477440Y-103402000D01*
X165433162Y-103166683D01*
X165294090Y-102950559D01*
X165081890Y-102805569D01*
X164830000Y-102754560D01*
X162830000Y-102754560D01*
X162594683Y-102798838D01*
X162540792Y-102833516D01*
X162499890Y-102805569D01*
X162248000Y-102754560D01*
X161348000Y-102754560D01*
X161112683Y-102798838D01*
X160896559Y-102937910D01*
X160751569Y-103150110D01*
X160700560Y-103402000D01*
X160700560Y-103822500D01*
X152579002Y-103822500D01*
X152579002Y-103709023D01*
X152728327Y-103559699D01*
X152825000Y-103326310D01*
X152825000Y-102558750D01*
X152666250Y-102400000D01*
X151940000Y-102400000D01*
X151940000Y-102509000D01*
X151440000Y-102509000D01*
X151440000Y-102400000D01*
X150713750Y-102400000D01*
X150555000Y-102558750D01*
X150555000Y-103326310D01*
X150651673Y-103559699D01*
X150800998Y-103709023D01*
X150800998Y-103822500D01*
X146122545Y-103822500D01*
X146225317Y-103803162D01*
X146441441Y-103664090D01*
X146586431Y-103451890D01*
X146637440Y-103200000D01*
X146637440Y-100000000D01*
X146613674Y-99873690D01*
X150555000Y-99873690D01*
X150555000Y-100641250D01*
X150713750Y-100800000D01*
X151440000Y-100800000D01*
X151440000Y-99523750D01*
X151940000Y-99523750D01*
X151940000Y-100800000D01*
X152666250Y-100800000D01*
X152825000Y-100641250D01*
X152825000Y-99873690D01*
X152728327Y-99640301D01*
X152549698Y-99461673D01*
X152316309Y-99365000D01*
X152098750Y-99365000D01*
X151940000Y-99523750D01*
X151440000Y-99523750D01*
X151281250Y-99365000D01*
X151063691Y-99365000D01*
X150830302Y-99461673D01*
X150651673Y-99640301D01*
X150555000Y-99873690D01*
X146613674Y-99873690D01*
X146593162Y-99764683D01*
X146454090Y-99548559D01*
X146241890Y-99403569D01*
X145990000Y-99352560D01*
X144990000Y-99352560D01*
X144754683Y-99396838D01*
X144538559Y-99535910D01*
X144393569Y-99748110D01*
X144342560Y-100000000D01*
X144342560Y-100520500D01*
X140970005Y-100520500D01*
X140970000Y-100520499D01*
X140625433Y-100589039D01*
X140556893Y-100602672D01*
X140356755Y-100736400D01*
X140206678Y-100836678D01*
X139444678Y-101598678D01*
X139210672Y-101948893D01*
X139128500Y-102362000D01*
X139128500Y-103313410D01*
X139110560Y-103402000D01*
X139110560Y-105077887D01*
X138886310Y-104985000D01*
X138118750Y-104985000D01*
X137960000Y-105143750D01*
X137960000Y-105870000D01*
X138069000Y-105870000D01*
X138069000Y-106370000D01*
X137960000Y-106370000D01*
X137960000Y-107096250D01*
X138118750Y-107255000D01*
X138886310Y-107255000D01*
X139119699Y-107158327D01*
X139269023Y-107009002D01*
X139395000Y-107009002D01*
X139395000Y-106922513D01*
X139506110Y-106998431D01*
X139758000Y-107049440D01*
X140658000Y-107049440D01*
X140893317Y-107005162D01*
X140947208Y-106970484D01*
X140988110Y-106998431D01*
X141240000Y-107049440D01*
X143240000Y-107049440D01*
X143475317Y-107005162D01*
X143691441Y-106866090D01*
X143836431Y-106653890D01*
X143887440Y-106402000D01*
X143887440Y-105981500D01*
X160700560Y-105981500D01*
X160700560Y-106402000D01*
X160744838Y-106637317D01*
X160883910Y-106853441D01*
X161096110Y-106998431D01*
X161348000Y-107049440D01*
X162248000Y-107049440D01*
X162483317Y-107005162D01*
X162537208Y-106970484D01*
X162578110Y-106998431D01*
X162830000Y-107049440D01*
X164830000Y-107049440D01*
X165065317Y-107005162D01*
X165281441Y-106866090D01*
X165426431Y-106653890D01*
X165477440Y-106402000D01*
X165477440Y-105981500D01*
X182290560Y-105981500D01*
X182290560Y-106402000D01*
X182334838Y-106637317D01*
X182473910Y-106853441D01*
X182686110Y-106998431D01*
X182938000Y-107049440D01*
X183838000Y-107049440D01*
X184073317Y-107005162D01*
X184127208Y-106970484D01*
X184168110Y-106998431D01*
X184420000Y-107049440D01*
X186420000Y-107049440D01*
X186655317Y-107005162D01*
X186871441Y-106866090D01*
X187016431Y-106653890D01*
X187067440Y-106402000D01*
X187067440Y-103467624D01*
X187347564Y-103187500D01*
X188150500Y-103187500D01*
X188150500Y-108689436D01*
X186667436Y-110172500D01*
X142897564Y-110172500D01*
X140822532Y-108097468D01*
X140307510Y-107753341D01*
X139700000Y-107632500D01*
X135912564Y-107632500D01*
X135572500Y-107292436D01*
X135572500Y-107255000D01*
X136201250Y-107255000D01*
X136360000Y-107096250D01*
X136360000Y-106370000D01*
X136251000Y-106370000D01*
X136251000Y-105870000D01*
X136360000Y-105870000D01*
X136360000Y-105143750D01*
X136201250Y-104985000D01*
X135572500Y-104985000D01*
X135572500Y-103111040D01*
X135636000Y-103111040D01*
X135871317Y-103066762D01*
X136087441Y-102927690D01*
X136232431Y-102715490D01*
X136283440Y-102463600D01*
X136283440Y-100736400D01*
X136239162Y-100501083D01*
X136100090Y-100284959D01*
X135887890Y-100139969D01*
X135846561Y-100131600D01*
X135864415Y-100119670D01*
X136189271Y-99633489D01*
X136303345Y-99060000D01*
X136189271Y-98486511D01*
X135864415Y-98000330D01*
X135517922Y-97768811D01*
X135826478Y-97559523D01*
X136122228Y-97170974D01*
X136040764Y-96951800D01*
X135128000Y-96951800D01*
X135128000Y-97383600D01*
X134112000Y-97383600D01*
X134112000Y-96951800D01*
X133199236Y-96951800D01*
X133117772Y-97170974D01*
X133347640Y-97472969D01*
X132742490Y-97593341D01*
X132227468Y-97937468D01*
X130937000Y-99227936D01*
X130937000Y-95869026D01*
X133117772Y-95869026D01*
X133199236Y-96088200D01*
X134112000Y-96088200D01*
X134112000Y-95241657D01*
X135128000Y-95241657D01*
X135128000Y-96088200D01*
X136040764Y-96088200D01*
X136122228Y-95869026D01*
X135826478Y-95480477D01*
X135348433Y-95156228D01*
X135128000Y-95241657D01*
X134112000Y-95241657D01*
X133891567Y-95156228D01*
X133413522Y-95480477D01*
X133117772Y-95869026D01*
X130937000Y-95869026D01*
X130937000Y-92408750D01*
X132385000Y-92408750D01*
X132385000Y-92626309D01*
X132481673Y-92859698D01*
X132660301Y-93038327D01*
X132893690Y-93135000D01*
X133661250Y-93135000D01*
X133820000Y-92976250D01*
X133820000Y-92250000D01*
X135420000Y-92250000D01*
X135420000Y-92976250D01*
X135578750Y-93135000D01*
X136346310Y-93135000D01*
X136579699Y-93038327D01*
X136758327Y-92859698D01*
X136855000Y-92626309D01*
X136855000Y-92408750D01*
X136696250Y-92250000D01*
X135420000Y-92250000D01*
X133820000Y-92250000D01*
X132543750Y-92250000D01*
X132385000Y-92408750D01*
X130937000Y-92408750D01*
X130937000Y-91373691D01*
X132385000Y-91373691D01*
X132385000Y-91591250D01*
X132543750Y-91750000D01*
X133820000Y-91750000D01*
X133820000Y-91023750D01*
X135420000Y-91023750D01*
X135420000Y-91750000D01*
X136696250Y-91750000D01*
X136855000Y-91591250D01*
X136855000Y-91373691D01*
X136758327Y-91140302D01*
X136746776Y-91128750D01*
X138005000Y-91128750D01*
X138005000Y-91896310D01*
X138101673Y-92129699D01*
X138280302Y-92308327D01*
X138513691Y-92405000D01*
X138731250Y-92405000D01*
X138890000Y-92246250D01*
X138890000Y-90970000D01*
X138163750Y-90970000D01*
X138005000Y-91128750D01*
X136746776Y-91128750D01*
X136579699Y-90961673D01*
X136346310Y-90865000D01*
X135578750Y-90865000D01*
X135420000Y-91023750D01*
X133820000Y-91023750D01*
X133661250Y-90865000D01*
X132893690Y-90865000D01*
X132660301Y-90961673D01*
X132481673Y-91140302D01*
X132385000Y-91373691D01*
X130937000Y-91373691D01*
X130937000Y-88443690D01*
X138005000Y-88443690D01*
X138005000Y-89211250D01*
X138163750Y-89370000D01*
X138890000Y-89370000D01*
X138890000Y-88093750D01*
X139390000Y-88093750D01*
X139390000Y-89370000D01*
X140116250Y-89370000D01*
X140275000Y-89211250D01*
X140275000Y-88443690D01*
X140178327Y-88210301D01*
X139999698Y-88031673D01*
X139766309Y-87935000D01*
X139548750Y-87935000D01*
X139390000Y-88093750D01*
X138890000Y-88093750D01*
X138731250Y-87935000D01*
X138513691Y-87935000D01*
X138280302Y-88031673D01*
X138101673Y-88210301D01*
X138005000Y-88443690D01*
X130937000Y-88443690D01*
X130937000Y-82626123D01*
X131333058Y-83022872D01*
X132639565Y-83565381D01*
X134054229Y-83566616D01*
X135361681Y-83026388D01*
X136362872Y-82026942D01*
X136905381Y-80720435D01*
X136906616Y-79305771D01*
X136366388Y-77998319D01*
X135965768Y-77597000D01*
X187883877Y-77597000D01*
X187487128Y-77993058D01*
M02*
