G04 #@! TF.FileFunction,Soldermask,Top*
%FSLAX46Y46*%
G04 Gerber Fmt 4.6, Leading zero omitted, Abs format (unit mm)*
G04 Created by KiCad (PCBNEW 4.0.1-stable) date Tuesday, February 02, 2016 'pmt' 10:50:14 pm*
%MOMM*%
G01*
G04 APERTURE LIST*
%ADD10C,0.100000*%
%ADD11R,2.432000X2.127200*%
%ADD12O,2.432000X2.127200*%
%ADD13R,3.100000X3.600000*%
%ADD14R,1.500000X4.700000*%
%ADD15R,2.400000X4.700000*%
%ADD16C,3.400000*%
%ADD17C,5.400000*%
G04 APERTURE END LIST*
D10*
D11*
X134620000Y-101600000D03*
D12*
X134620000Y-99060000D03*
X134620000Y-96520000D03*
D11*
X189230000Y-96520000D03*
D12*
X189230000Y-99060000D03*
X189230000Y-101600000D03*
D13*
X140830000Y-82550000D03*
X148730000Y-82550000D03*
X140830000Y-109220000D03*
X148730000Y-109220000D03*
X140830000Y-90170000D03*
X148730000Y-90170000D03*
X140830000Y-116840000D03*
X148730000Y-116840000D03*
D14*
X156210000Y-109220000D03*
D15*
X152460000Y-109220000D03*
X159960000Y-109220000D03*
D16*
X156210000Y-109220000D03*
D14*
X156210000Y-116840000D03*
D15*
X152460000Y-116840000D03*
X159960000Y-116840000D03*
D16*
X156210000Y-116840000D03*
D14*
X167640000Y-116840000D03*
D15*
X163890000Y-116840000D03*
X171390000Y-116840000D03*
D16*
X167640000Y-116840000D03*
D14*
X167640000Y-109220000D03*
D15*
X163890000Y-109220000D03*
X171390000Y-109220000D03*
D16*
X167640000Y-109220000D03*
D14*
X179070000Y-109220000D03*
D15*
X175320000Y-109220000D03*
X182820000Y-109220000D03*
D16*
X179070000Y-109220000D03*
D14*
X179070000Y-116840000D03*
D15*
X175320000Y-116840000D03*
X182820000Y-116840000D03*
D16*
X179070000Y-116840000D03*
D14*
X179070000Y-82550000D03*
D15*
X175320000Y-82550000D03*
X182820000Y-82550000D03*
D16*
X179070000Y-82550000D03*
D14*
X179070000Y-90170000D03*
D15*
X175320000Y-90170000D03*
X182820000Y-90170000D03*
D16*
X179070000Y-90170000D03*
D14*
X167640000Y-90170000D03*
D15*
X163890000Y-90170000D03*
X171390000Y-90170000D03*
D16*
X167640000Y-90170000D03*
D14*
X167640000Y-82550000D03*
D15*
X163890000Y-82550000D03*
X171390000Y-82550000D03*
D16*
X167640000Y-82550000D03*
D14*
X156210000Y-82550000D03*
D15*
X152460000Y-82550000D03*
X159960000Y-82550000D03*
D16*
X156210000Y-82550000D03*
D14*
X156210000Y-90170000D03*
D15*
X152460000Y-90170000D03*
X159960000Y-90170000D03*
D16*
X156210000Y-90170000D03*
D17*
X133350000Y-119380000D03*
X190500000Y-119380000D03*
X133350000Y-80010000D03*
X190500000Y-80010000D03*
M02*
