G04 #@! TF.FileFunction,Copper,L2,Bot,Signal*
%FSLAX46Y46*%
G04 Gerber Fmt 4.6, Leading zero omitted, Abs format (unit mm)*
G04 Created by KiCad (PCBNEW 4.0.1-stable) date Tuesday, February 02, 2016 'pmt' 10:50:14 pm*
%MOMM*%
G01*
G04 APERTURE LIST*
%ADD10C,0.100000*%
%ADD11R,2.032000X1.727200*%
%ADD12O,2.032000X1.727200*%
%ADD13C,3.000000*%
%ADD14C,5.000000*%
%ADD15C,1.905000*%
%ADD16C,1.270000*%
%ADD17C,0.254000*%
G04 APERTURE END LIST*
D10*
D11*
X134620000Y-101600000D03*
D12*
X134620000Y-99060000D03*
X134620000Y-96520000D03*
D11*
X189230000Y-96520000D03*
D12*
X189230000Y-99060000D03*
X189230000Y-101600000D03*
D13*
X156210000Y-109220000D03*
X156210000Y-116840000D03*
X167640000Y-116840000D03*
X167640000Y-109220000D03*
X179070000Y-109220000D03*
X179070000Y-116840000D03*
X179070000Y-82550000D03*
X179070000Y-90170000D03*
X167640000Y-90170000D03*
X167640000Y-82550000D03*
X156210000Y-82550000D03*
X156210000Y-90170000D03*
D14*
X133350000Y-119380000D03*
X190500000Y-119380000D03*
X133350000Y-80010000D03*
X190500000Y-80010000D03*
D15*
X191770000Y-88900000D03*
D16*
X189230000Y-101600000D02*
X190500000Y-101600000D01*
X191770000Y-100330000D02*
X191770000Y-88900000D01*
X190500000Y-101600000D02*
X191770000Y-100330000D01*
X189230000Y-101600000D02*
X187960000Y-101600000D01*
D17*
G36*
X192913000Y-87122965D02*
X192185453Y-86820862D01*
X191358177Y-86820140D01*
X190593597Y-87136058D01*
X190008113Y-87720520D01*
X189690862Y-88484547D01*
X189690140Y-89311823D01*
X190006058Y-90076403D01*
X190008000Y-90078348D01*
X190008000Y-94507321D01*
X188214000Y-94507321D01*
X187796359Y-94585906D01*
X187412781Y-94832731D01*
X187155452Y-95209344D01*
X187064921Y-95656400D01*
X187064921Y-97383600D01*
X187143506Y-97801241D01*
X187332436Y-98094848D01*
X187196541Y-98298230D01*
X187045016Y-99060000D01*
X187196541Y-99821770D01*
X187295680Y-99970141D01*
X187285712Y-99972124D01*
X186714078Y-100354078D01*
X186332124Y-100925712D01*
X186198000Y-101600000D01*
X186332124Y-102274288D01*
X186714078Y-102845922D01*
X187285712Y-103227876D01*
X187960000Y-103362000D01*
X188158495Y-103362000D01*
X188273846Y-103439075D01*
X189035616Y-103590600D01*
X189424384Y-103590600D01*
X190186154Y-103439075D01*
X190301505Y-103362000D01*
X190500000Y-103362000D01*
X191174289Y-103227876D01*
X191745922Y-102845922D01*
X192913000Y-101678844D01*
X192913000Y-121793000D01*
X130937000Y-121793000D01*
X130937000Y-96520000D01*
X132435016Y-96520000D01*
X132586541Y-97281770D01*
X132926130Y-97790000D01*
X132586541Y-98298230D01*
X132435016Y-99060000D01*
X132586541Y-99821770D01*
X132724182Y-100027764D01*
X132545452Y-100289344D01*
X132454921Y-100736400D01*
X132454921Y-102463600D01*
X132533506Y-102881241D01*
X132780331Y-103264819D01*
X133156944Y-103522148D01*
X133604000Y-103612679D01*
X135636000Y-103612679D01*
X136053641Y-103534094D01*
X136437219Y-103287269D01*
X136694548Y-102910656D01*
X136785079Y-102463600D01*
X136785079Y-100736400D01*
X136706494Y-100318759D01*
X136517564Y-100025152D01*
X136653459Y-99821770D01*
X136804984Y-99060000D01*
X136653459Y-98298230D01*
X136313870Y-97790000D01*
X136653459Y-97281770D01*
X136804984Y-96520000D01*
X136653459Y-95758230D01*
X136221951Y-95112433D01*
X135576154Y-94680925D01*
X134814384Y-94529400D01*
X134425616Y-94529400D01*
X133663846Y-94680925D01*
X133018049Y-95112433D01*
X132586541Y-95758230D01*
X132435016Y-96520000D01*
X130937000Y-96520000D01*
X130937000Y-77597000D01*
X192913000Y-77597000D01*
X192913000Y-87122965D01*
X192913000Y-87122965D01*
G37*
X192913000Y-87122965D02*
X192185453Y-86820862D01*
X191358177Y-86820140D01*
X190593597Y-87136058D01*
X190008113Y-87720520D01*
X189690862Y-88484547D01*
X189690140Y-89311823D01*
X190006058Y-90076403D01*
X190008000Y-90078348D01*
X190008000Y-94507321D01*
X188214000Y-94507321D01*
X187796359Y-94585906D01*
X187412781Y-94832731D01*
X187155452Y-95209344D01*
X187064921Y-95656400D01*
X187064921Y-97383600D01*
X187143506Y-97801241D01*
X187332436Y-98094848D01*
X187196541Y-98298230D01*
X187045016Y-99060000D01*
X187196541Y-99821770D01*
X187295680Y-99970141D01*
X187285712Y-99972124D01*
X186714078Y-100354078D01*
X186332124Y-100925712D01*
X186198000Y-101600000D01*
X186332124Y-102274288D01*
X186714078Y-102845922D01*
X187285712Y-103227876D01*
X187960000Y-103362000D01*
X188158495Y-103362000D01*
X188273846Y-103439075D01*
X189035616Y-103590600D01*
X189424384Y-103590600D01*
X190186154Y-103439075D01*
X190301505Y-103362000D01*
X190500000Y-103362000D01*
X191174289Y-103227876D01*
X191745922Y-102845922D01*
X192913000Y-101678844D01*
X192913000Y-121793000D01*
X130937000Y-121793000D01*
X130937000Y-96520000D01*
X132435016Y-96520000D01*
X132586541Y-97281770D01*
X132926130Y-97790000D01*
X132586541Y-98298230D01*
X132435016Y-99060000D01*
X132586541Y-99821770D01*
X132724182Y-100027764D01*
X132545452Y-100289344D01*
X132454921Y-100736400D01*
X132454921Y-102463600D01*
X132533506Y-102881241D01*
X132780331Y-103264819D01*
X133156944Y-103522148D01*
X133604000Y-103612679D01*
X135636000Y-103612679D01*
X136053641Y-103534094D01*
X136437219Y-103287269D01*
X136694548Y-102910656D01*
X136785079Y-102463600D01*
X136785079Y-100736400D01*
X136706494Y-100318759D01*
X136517564Y-100025152D01*
X136653459Y-99821770D01*
X136804984Y-99060000D01*
X136653459Y-98298230D01*
X136313870Y-97790000D01*
X136653459Y-97281770D01*
X136804984Y-96520000D01*
X136653459Y-95758230D01*
X136221951Y-95112433D01*
X135576154Y-94680925D01*
X134814384Y-94529400D01*
X134425616Y-94529400D01*
X133663846Y-94680925D01*
X133018049Y-95112433D01*
X132586541Y-95758230D01*
X132435016Y-96520000D01*
X130937000Y-96520000D01*
X130937000Y-77597000D01*
X192913000Y-77597000D01*
X192913000Y-87122965D01*
M02*
